<?xml version="1.0" encoding="UTF-8"?>
<svg width="24px" height="24px" viewBox="0 0 24 24" version="1.1" xmlns="http://www.w3.org/2000/svg" xmlns:xlink="http://www.w3.org/1999/xlink">
    <title>accesskey</title>
    <g id="☆-最终方案-☆-" stroke="none" stroke-width="1" fill="none" fill-rule="evenodd">
        <g id="通用模块" transform="translate(-804.000000, -912.000000)">
            <g id="编组-11" transform="translate(788.000000, 803.000000)">
                <g id="编组" transform="translate(16.000000, 109.000000)">
                    <polygon id="路径" points="0 0 24 0 24 24 0 24"></polygon>
                    <path d="M12,3 C14.335831,5.06657537 17.384472,6.1425663 20.5,6 C21.4164448,9.11753019 21.0294198,12.4734437 19.4274046,15.3005293 C17.8253894,18.1276149 15.1453562,20.184157 12,21 C8.85464378,20.184157 6.17461056,18.1276149 4.57259539,15.3005293 C2.97058023,12.4734437 2.58355523,9.11753019 3.5,6 C6.61552803,6.1425663 9.66416903,5.06657537 12,3" id="路径" stroke="#2C3E50" stroke-width="1.5" stroke-linecap="round" stroke-linejoin="round"></path>
                    <circle id="椭圆形" stroke="#2C3E50" stroke-width="1.5" stroke-linecap="round" stroke-linejoin="round" cx="12" cy="11" r="1"></circle>
                    <line x1="12" y1="12" x2="12" y2="14.5" id="路径" stroke="#2C3E50" stroke-width="1.5" stroke-linecap="round" stroke-linejoin="round"></line>
                    <rect id="矩形备份-39" fill-opacity="0.600355455" fill="#1EE6ED" x="6" y="6" width="12" height="12" rx="6"></rect>
                </g>
            </g>
        </g>
    </g>
</svg>