<?xml version="1.0" standalone="no"?><!DOCTYPE svg PUBLIC "-//W3C//DTD SVG 1.1//EN" "http://www.w3.org/Graphics/SVG/1.1/DTD/svg11.dtd"><svg t="1651741330419" class="icon" viewBox="0 0 1024 1024" version="1.1" xmlns="http://www.w3.org/2000/svg" p-id="4970" xmlns:xlink="http://www.w3.org/1999/xlink" width="200" height="200"><defs><style type="text/css"></style></defs><path d="M512 0a512 512 0 1 1 0 1024A512 512 0 0 1 512 0z m231.717 280.283a34.377 34.377 0 0 0-48.567 0L512 463.433l-183.15-183.15-5.412-4.388a34.377 34.377 0 0 0-43.155 4.388l-4.388 5.34a34.377 34.377 0 0 0 4.388 43.154L463.433 512l-183.15 183.15a34.377 34.377 0 0 0 48.567 48.567L512 560.567l183.15 183.15 5.412 4.388c13.312 8.777 31.452 7.314 43.155-4.388l4.388-5.34a34.377 34.377 0 0 0-4.388-43.154L560.567 512l183.15-183.15a34.377 34.377 0 0 0 0-48.567z" p-id="4971"></path></svg>