<?xml version="1.0" encoding="UTF-8"?>
<svg width="16px" height="16px" viewBox="0 0 16 16" version="1.1" xmlns="http://www.w3.org/2000/svg" xmlns:xlink="http://www.w3.org/1999/xlink">
    <title>画板</title>
    <defs>
        <linearGradient x1="51.0057266%" y1="146.529507%" x2="49.4260784%" y2="-5.09776551%" id="linearGradient-1">
            <stop stop-color="#008AFF" offset="0%"></stop>
            <stop stop-color="#0046DB" offset="51.84%"></stop>
            <stop stop-color="#0020C7" offset="84.49%"></stop>
        </linearGradient>
        <linearGradient x1="92.0277774%" y1="-1.46584808%" x2="-13.6331662%" y2="100.213382%" id="linearGradient-2">
            <stop stop-color="#00FFFF" offset="0%"></stop>
            <stop stop-color="#008AFF" offset="41.18%"></stop>
            <stop stop-color="#002FEC" offset="100%"></stop>
        </linearGradient>
    </defs>
    <g id="画板" stroke="none" stroke-width="1" fill="none" fill-rule="evenodd">
        <g id="编组" transform="translate(2.500000, 1.000000)" fill-rule="nonzero">
            <path d="M1.85151056,14 L0,14 L0,7.875 L5.5,7.875 L5.5,8.76317126 L5.5,8.76317126 C4.57745247,8.76317126 3.82940628,9.50682327 3.8290855,10.424345 L3.8290855,12.0316032 C3.82940628,12.5535314 3.62090283,13.0540848 3.25008748,13.4231991 C2.87927213,13.7923134 2.37629768,14 1.85151056,14 L1.85151056,14 Z" id="路径_5_" fill="url(#linearGradient-1)"></path>
            <path d="M6.78870771,0 L4.211619,0 C2.68751671,0.00390011143 1.28397042,0.824548559 0.539071549,2.14733635 C0.396299266,2.52727221 0.697852624,2.77947941 1.0356708,2.69660205 C1.71098043,2.53019729 2.03638362,2.83798109 2.08735038,2.89258265 C1.87400873,2.65435084 1.69431822,2.38849324 1.55252606,2.10248507 C1.91223381,2.44894497 2.89138377,2.41871911 2.89138377,2.41871911 C3.46574,2.3624925 4.01428614,2.70277722 4.01428614,2.70277722 C4.01428614,2.70277722 4.91927292,3.06906269 4.48180819,2.63745036 C4.45371113,2.60949956 4.77748077,2.62607503 5.06237191,2.89648276 C5.20220381,3.03591174 5.30707773,3.20621661 5.36784579,3.39342195 C5.47337313,3.10546373 5.12967418,2.46324538 5.12967418,2.46324538 C5.96376489,2.66540115 6.01179126,3.53447599 6.01179126,3.53447599 C6.42279248,3.67130489 7.12162523,4.92714078 7.12162523,4.92714078 C7.77014464,5.880068 9.03124536,6.67471571 9.03124536,6.67471571 C9.00837566,7.21423112 8.05438237,7.40111146 8.05438237,7.40111146 C7.54340788,7.97085274 7.22878612,7.33805966 7.22878612,7.33805966 C6.98898096,6.77741864 6.23591434,6.67471571 6.23591434,6.67471571 C5.35967804,6.71274179 4.95586445,6.36628189 4.77094657,6.01137175 C4.77094657,6.01137175 2.84009029,6.07214849 1.28168345,6.60483871 C0,7.04392626 0,7.96272751 0,7.96272751 L0,11.375 C0,11.375 0.21301494,10.8088338 0.924262675,10.0073609 C1.55513974,9.29461556 3.10047818,9.10383511 3.10047818,9.10383511 L5.60209688,8.86755336 L6.78903442,8.86755336 C9.11161603,8.86040315 10.9928124,6.98899969 11,4.67850867 L11,4.18839467 C10.9928124,1.87822866 9.11161603,0.00682519501 6.78870771,0 L6.78870771,0 Z" id="路径_3_" fill="url(#linearGradient-2)"></path>
        </g>
    </g>
</svg>