<?xml version="1.0" encoding="UTF-8"?>
<svg width="16px" height="16px" viewBox="0 0 16 16" version="1.1" xmlns="http://www.w3.org/2000/svg" xmlns:xlink="http://www.w3.org/1999/xlink">
    <title>切换产品</title>
    <g id="☆-最终方案-☆-" stroke="none" stroke-width="1" fill="none" fill-rule="evenodd">
        <g id="通用模块" transform="translate(-243.000000, -764.000000)">
            <g id="吊顶" transform="translate(73.000000, 747.000000)">
                <g id="编组-5" transform="translate(170.000000, 17.000000)">
                    <rect id="矩形" x="0" y="0" width="16" height="16"></rect>
                    <path d="M8,2.30926389e-14 C12.4179929,2.30926389e-14 16,3.58201221 16,8 C16,12.4179929 12.4179878,16 8,16 C3.58200715,16 1.33226763e-13,12.4179878 1.33226763e-13,8 C1.33226763e-13,3.58200715 3.58201221,2.30926389e-14 8,2.30926389e-14 Z M8,1.41225524 C4.36170964,1.41225524 1.41225524,4.36170964 1.41225524,8 C1.41225524,11.6382904 4.36170964,14.5877448 8,14.5877448 C11.6383063,14.5877448 14.5877448,11.6383063 14.5877448,8 C14.5877448,4.36169926 11.6382959,1.41225524 8,1.41225524 Z M7.9812634,10.5661534 C8.4584794,10.5661534 8.84533988,10.9530139 8.84533988,11.4302299 C8.84533988,11.9074459 8.4584794,12.2943064 7.98126337,12.2943064 C7.50404737,12.2943064 7.1171869,11.9074459 7.1171869,11.4302299 C7.1171869,10.9530139 7.50404738,10.5661534 7.9812634,10.5661534 Z M8.08107551,3.42181941 C8.84437126,3.42181941 9.47059705,3.64716778 9.94821225,4.09969659 C10.4101093,4.53475705 10.641847,5.1238523 10.641847,5.84426596 C10.641847,6.37016262 10.4782877,6.85576923 10.1567406,7.28119736 L10.113285,7.33369329 L9.99979002,7.4579566 L9.84721737,7.61154894 L9.53555278,7.90646809 L9.26621599,8.15246042 C9.05402484,8.33782415 8.90130113,8.51164489 8.80929611,8.66681238 C8.71579154,8.82818173 8.6613288,8.98985919 8.64280335,9.15434336 L8.63559899,9.27827178 L8.65397615,9.58729007 C8.66499176,9.76751173 8.54634631,9.92568867 8.37061958,9.97109495 L8.29202496,9.98338595 L7.61235954,9.98373898 C7.43180381,9.98439416 7.28068065,9.8568865 7.24520066,9.68627035 L7.23732648,9.61075789 L7.23732522,9.30076223 C7.23732522,8.93291795 7.31501357,8.58755816 7.46480209,8.28887695 C7.64641582,7.89979859 8.01121173,7.46412757 8.52075767,7.02008805 L8.87217724,6.66377158 L8.96098963,6.56640872 L8.98039079,6.54284467 C9.15946515,6.31242634 9.24322916,6.09270002 9.24322916,5.86539364 C9.24322916,5.51046539 9.14502594,5.23667815 8.95831235,5.04196324 C8.76208187,4.84571947 8.46618537,4.7454941 8.04905699,4.7454941 C7.58837743,4.7454941 7.27245605,4.88566834 7.0500412,5.1810925 C6.91280018,5.35297609 6.82651644,5.59303893 6.79170666,5.91187946 L6.77859366,6.0779136 L6.77105589,6.31761298 C6.76325714,6.7075755 6.44080824,7.01738012 6.05084576,7.00958007 C5.74240238,7.00341161 5.47946384,6.79899647 5.38921694,6.50134616 L5.3657051,6.39882029 L5.35815298,6.27078663 C5.35815298,5.47281171 5.58440473,4.80557851 6.03766673,4.27651117 C6.53421132,3.70567454 7.22038838,3.42181941 8.08107551,3.42181941 Z" id="形状结合" fill="#8E9EB1" fill-rule="nonzero"></path>
                </g>
            </g>
        </g>
    </g>
</svg>