<?xml version="1.0" encoding="UTF-8"?>
<svg width="32px" height="32px" viewBox="0 0 32 32" version="1.1" xmlns="http://www.w3.org/2000/svg" xmlns:xlink="http://www.w3.org/1999/xlink">
    <title>testma</title>
    <defs>
        <rect id="path-1" x="0" y="0" width="32" height="32" rx="6"></rect>
    </defs>
    <g id="☆-最终方案-☆-" stroke="none" stroke-width="1" fill="none" fill-rule="evenodd">
        <g id="通用模块" transform="translate(-397.000000, -999.000000)">
            <g id="编组-5备份-4" transform="translate(381.000000, 786.000000)">
                <g id="编组-43" transform="translate(0.000000, 64.000000)">
                    <g id="xland备份-4" transform="translate(16.000000, 149.000000)">
                        <path d="M0.0159657876,15.8955381 C0.0159657876,24.6710192 7.12963649,31.784804 15.9052316,31.784804 L15.9052316,31.784804 C24.6807128,31.784804 31.7944975,24.6710192 31.7944975,15.8955381 L31.7944975,15.8955381 C31.7944975,7.12005702 24.6807128,0.0062722737 15.9052316,0.0062722737 L15.9052316,0.0062722737 C7.12963649,0.0062722737 0.0159657876,7.12005702 0.0159657876,15.8955381 L0.0159657876,15.8955381 Z" id="Clip-132" fill="#2A64F0"></path>
                        <mask id="mask-2" fill="white">
                            <use xlink:href="#path-1"></use>
                        </mask>
                        <use id="蒙版" fill="#3271FE" xlink:href="#path-1"></use>
                        <g id="编组" mask="url(#mask-2)">
                            <g transform="translate(6.000000, 7.000000)">
                                <polygon id="Fill-1" fill="#FFFFFF" points="2.3644811 1.92857143 0 8.58923319 15.6076668 8.67857143 17.971831 1.92857143"></polygon>
                                <polygon id="Fill-2" fill="#FFFFFF" points="9.98318555 1.92857143 4.33802817 18 12.3268342 18 17.971831 1.92857143"></polygon>
                                <polygon id="Fill-3" fill="#00F0EE" points="12.6747778 0 12.6566172 0.050466685 9.91549296 7.66268676 19.2220725 7.71396221 19.2897327 7.71428571 22 0.101903883 21.963036 0.101742131 22 0"></polygon>
                            </g>
                        </g>
                    </g>
                </g>
            </g>
        </g>
    </g>
</svg>