<?xml version="1.0" encoding="UTF-8"?>
<svg width="16px" height="16px" viewBox="0 0 16 16" version="1.1" xmlns="http://www.w3.org/2000/svg" xmlns:xlink="http://www.w3.org/1999/xlink">
    <title>切换产品</title>
    <g id="☆-最终方案-☆-" stroke="none" stroke-width="1" fill="none" fill-rule="evenodd">
        <g id="通用模块" transform="translate(-211.000000, -764.000000)">
            <g id="吊顶" transform="translate(73.000000, 747.000000)">
                <g id="应用备份-3" transform="translate(138.000000, 17.000000)">
                    <rect id="矩形" x="0" y="0" width="16" height="16"></rect>
                    <g id="Group-10备份" transform="translate(0.942857, 0.942857)" fill="#8E9EB1" fill-rule="nonzero">
                        <path d="M5.07755102,7.83673469 C5.69887136,7.83673469 6.20990356,8.30893437 6.27135556,8.91404166 L6.27755102,9.03673469 L6.27755102,12.9142857 C6.27755102,13.5356061 5.80535134,14.0466383 5.20024405,14.1080902 L5.07755102,14.1142857 L1.2,14.1142857 C0.578679656,14.1142857 0.0676474571,13.642086 0.00619546472,13.0369787 L7.99360578e-14,12.9142857 L7.99360578e-14,9.03673469 C7.99360578e-14,8.41541435 0.472199678,7.90438215 1.07730697,7.84293016 L1.2,7.83673469 L5.07755102,7.83673469 Z M12.9142857,7.83673469 C13.5356061,7.83673469 14.0466383,8.30893437 14.1080902,8.91404166 L14.1142857,9.03673469 L14.1142857,12.9142857 C14.1142857,13.5356061 13.642086,14.0466383 13.0369787,14.1080902 L12.9142857,14.1142857 L9.03673469,14.1142857 C8.41541435,14.1142857 7.90438215,13.642086 7.84293016,13.0369787 L7.83673469,12.9142857 L7.83673469,9.03673469 C7.83673469,8.41541435 8.30893437,7.90438215 8.91404166,7.84293016 L9.03673469,7.83673469 L12.9142857,7.83673469 Z M4.69795918,9.21632653 L1.57959184,9.21632653 C1.48754438,9.21632653 1.41002046,9.2785092 1.38673603,9.36315861 L1.37959184,9.41632653 L1.37959184,12.5346939 C1.37959184,12.6267413 1.44177451,12.7042653 1.52642391,12.7275497 L1.57959184,12.7346939 L4.69795918,12.7346939 C4.79000664,12.7346939 4.86753056,12.6725112 4.89081499,12.5878618 L4.89795918,12.5346939 L4.89795918,9.41632653 C4.89795918,9.30586958 4.80841613,9.21632653 4.69795918,9.21632653 Z M12.5346939,9.21632653 L9.41632653,9.21632653 C9.32427907,9.21632653 9.24675516,9.2785092 9.22347072,9.36315861 L9.21632653,9.41632653 L9.21632653,12.5346939 C9.21632653,12.6267413 9.2785092,12.7042653 9.36315861,12.7275497 L9.41632653,12.7346939 L12.5346939,12.7346939 C12.6267413,12.7346939 12.7042653,12.6725112 12.7275497,12.5878618 L12.7346939,12.5346939 L12.7346939,9.41632653 C12.7346939,9.30586958 12.6451508,9.21632653 12.5346939,9.21632653 Z M5.07755102,-3.37507799e-14 C5.69887136,-3.37507799e-14 6.20990356,0.472199678 6.27135556,1.07730697 L6.27755102,1.2 L6.27755102,5.07755102 C6.27755102,5.69887136 5.80535134,6.20990356 5.20024405,6.27135556 L5.07755102,6.27755102 L1.2,6.27755102 C0.578679656,6.27755102 0.0676474571,5.80535134 0.00619546472,5.20024405 L7.99360578e-14,5.07755102 L7.99360578e-14,1.2 C7.99360578e-14,0.578679656 0.472199678,0.0676474571 1.07730697,0.00619546472 L1.2,-3.37507799e-14 L5.07755102,-3.37507799e-14 Z M12.9142857,-3.37507799e-14 C13.5356061,-3.37507799e-14 14.0466383,0.472199678 14.1080902,1.07730697 L14.1142857,1.2 L14.1142857,5.07755102 C14.1142857,5.69887136 13.642086,6.20990356 13.0369787,6.27135556 L12.9142857,6.27755102 L9.03673469,6.27755102 C8.41541435,6.27755102 7.90438215,5.80535134 7.84293016,5.20024405 L7.83673469,5.07755102 L7.83673469,1.2 C7.83673469,0.578679656 8.30893437,0.0676474571 8.91404166,0.00619546472 L9.03673469,-3.37507799e-14 L12.9142857,-3.37507799e-14 Z M4.69795918,1.37959184 L1.57959184,1.37959184 C1.48754438,1.37959184 1.41002046,1.44177451 1.38673603,1.52642391 L1.37959184,1.57959184 L1.37959184,4.69795918 C1.37959184,4.79000664 1.44177451,4.86753056 1.52642391,4.89081499 L1.57959184,4.89795918 L4.69795918,4.89795918 C4.79000664,4.89795918 4.86753056,4.83577651 4.89081499,4.75112711 L4.89795918,4.69795918 L4.89795918,1.57959184 C4.89795918,1.46913489 4.80841613,1.37959184 4.69795918,1.37959184 Z M12.5346939,1.37959184 L9.41632653,1.37959184 C9.32427907,1.37959184 9.24675516,1.44177451 9.22347072,1.52642391 L9.21632653,1.57959184 L9.21632653,4.69795918 C9.21632653,4.79000664 9.2785092,4.86753056 9.36315861,4.89081499 L9.41632653,4.89795918 L12.5346939,4.89795918 C12.6267413,4.89795918 12.7042653,4.83577651 12.7275497,4.75112711 L12.7346939,4.69795918 L12.7346939,1.57959184 C12.7346939,1.46913489 12.6451508,1.37959184 12.5346939,1.37959184 Z" id="Combined-Shape"></path>
                    </g>
                </g>
            </g>
        </g>
    </g>
</svg>