<?xml version="1.0" encoding="UTF-8"?>
<svg width="32px" height="32px" viewBox="0 0 32 32" version="1.1" xmlns="http://www.w3.org/2000/svg" xmlns:xlink="http://www.w3.org/1999/xlink">
    <title>xchaos</title>
    <defs>
        <rect id="path-1" x="0" y="0" width="32" height="32" rx="6"></rect>
    </defs>
    <g id="☆-最终方案-☆-" stroke="none" stroke-width="1" fill="none" fill-rule="evenodd">
        <g id="通用模块" transform="translate(-397.000000, -999.000000)">
            <g id="编组-5备份-4" transform="translate(381.000000, 786.000000)">
                <g id="编组-43" transform="translate(0.000000, 64.000000)">
                    <g id="xland备份-4" transform="translate(16.000000, 149.000000)">
                        <path d="M0.0159657876,15.8955381 C0.0159657876,24.6710192 7.12963649,31.784804 15.9052316,31.784804 L15.9052316,31.784804 C24.6807128,31.784804 31.7944975,24.6710192 31.7944975,15.8955381 L31.7944975,15.8955381 C31.7944975,7.12005702 24.6807128,0.0062722737 15.9052316,0.0062722737 L15.9052316,0.0062722737 C7.12963649,0.0062722737 0.0159657876,7.12005702 0.0159657876,15.8955381 L0.0159657876,15.8955381 Z" id="Clip-132" fill="#2A64F0"></path>
                        <mask id="mask-2" fill="white">
                            <use xlink:href="#path-1"></use>
                        </mask>
                        <use id="蒙版" fill="#3271FE" xlink:href="#path-1"></use>
                        <path d="M13.5562615,7 L15.9383145,11.1054765 L15.9383145,11.1216014 L15.9953486,11.2198378 L18.7744327,16.0063938 L18.780086,16.0161414 L16.0047149,20.796254 L16,20.7881585 L13.5562615,25 L8,25 L13.2218843,15.9999835 L8,7 L13.5562615,7 Z M19.6680789,17.5455766 L20.5936375,19.1396634 L20.5936375,19.1290236 L23.9999967,24.9999802 L18.4437351,24.9999802 L16.8924068,22.3262509 L19.6680789,17.5455766 Z M24,7 L19.662128,14.4764102 L16.8830439,9.68988723 L18.4437385,7 L24,7 Z" id="形状结合" fill="#FFFFFF" mask="url(#mask-2)"></path>
                    </g>
                </g>
            </g>
        </g>
    </g>
</svg>