<?xml version="1.0" encoding="UTF-8"?>
<svg width="32px" height="32px" viewBox="0 0 32 32" version="1.1" xmlns="http://www.w3.org/2000/svg" xmlns:xlink="http://www.w3.org/1999/xlink">
    <title>xsea</title>
    <defs>
        <rect id="path-1" x="0" y="0" width="32" height="32" rx="6"></rect>
    </defs>
    <g id="☆-最终方案-☆-" stroke="none" stroke-width="1" fill="none" fill-rule="evenodd">
        <g id="通用模块" transform="translate(-397.000000, -871.000000)">
            <g id="编组-5备份-4" transform="translate(381.000000, 786.000000)">
                <g id="编组-4" transform="translate(0.000000, 69.000000)">
                    <g id="编组" transform="translate(16.000000, 16.000000)">
                        <mask id="mask-2" fill="white">
                            <use xlink:href="#path-1"></use>
                        </mask>
                        <use id="蒙版" fill="#3271FE" xlink:href="#path-1"></use>
                        <g id="编组-3" mask="url(#mask-2)" fill="#FFFFFF">
                            <g transform="translate(3.000000, 4.000000)" id="形状结合">
                                <path d="M19.0033897,5 C20.0883712,7.78925287 16.0858171,9.23335221 16.0858171,9.23335221 C15.7925947,9.37493243 15.8658515,9.72893013 15.8658515,9.72893013 C16.7895704,11.4278927 17.0827928,13.3109756 17.0827928,13.6649733 C17.0827928,14.018971 17.1707009,13.905688 17.1707009,13.905688 C17.1707009,13.905688 19.0473438,12.1924825 21.4372723,11.9088504 C24.8240789,11.5411758 26.9477435,13.9306838 26.9477435,13.9306838 L26.9477435,13.9306838 L27,13.9407765 C26.7972253,15.145576 26.4249833,16.295479 25.9074975,17.3668102 L25.9074975,17.3668102 L25.7183974,17.3037075 C22.593557,15.6361035 19.3534077,17.641883 18.9440704,17.9105993 L18.905622,17.9362766 L18.905622,17.9362766 C18.9007326,17.9396394 14.7662187,21.6078026 9.98274758,19.1552862 C5.26509768,15.98658 2.29564863,17.0755571 1.62699965,17.3973124 L1.55666104,17.4325348 C1.50769085,17.4581219 1.48291218,17.4735849 1.48291218,17.4735849 L1.48291218,17.4735849 L1.27144433,17.4706608 C0.583221489,16.077968 0.141239034,14.5500147 0,12.9393393 L0,12.9393393 L0.00507913539,12.925851 L0.00507913539,12.925851 L0.0397860735,12.9086471 C0.278733526,12.7918561 1.70913755,12.1191846 3.00762956,12.093348 C6.17447047,12.0303396 7.21549787,13.0136666 8.84297006,14.1180111 C10.3541942,15.1434739 12.130881,15.1923222 12.376983,15.1940686 L12.4057882,15.1940585 C13.5492774,13.5233931 13.8865515,11.5978644 13.8865515,11.5978644 C14.2677797,9.88465893 13.1827982,9.84221317 13.1827982,9.84221317 C8.98958126,9.45991829 8.19791987,7.2370806 8.21247355,7.0388117 C8.22722257,6.84063713 8.7697133,7.06710888 8.7697133,7.06710888 C9.69333454,7.54853821 10.0745627,7.39280941 10.0745627,7.39280941 C11.4820693,7.37866082 11.5406747,6.81224563 12.288382,6.67066541 C13.4174152,6.47249084 13.9892086,7.15209474 13.9892086,7.15209474 C14.7662187,6.09019596 15.6752862,6.24592476 16.7895704,6.26007335 C17.9037569,6.27431627 18.695516,5.36814629 18.7980754,5.18412031 C18.9007326,5 19.0033897,5 19.0033897,5 Z M18.995309,2.29991277 C19.0268011,2.67579023 18.9083619,2.99148506 18.3758202,3.36611472 C18.2058354,3.58236904 18.0389637,4 18.0389637,4 C18.0389637,4 17.7673355,2.27102127 18.6584525,2.01176564 C18.6584525,2.01176564 18.962731,1.91088535 18.995309,2.29991277 Z M15.2737241,0.074815165 C15.2737241,0.074815165 15.8725084,-0.253655893 16.5054828,0.46591665 C17.3779025,1.54522336 16.8304036,3 16.8304036,3 C16.8304036,3 16.7620232,2.38984834 16.1633529,2.03011417 C15.5645687,1.67038 15.2737241,1.31054163 15.2737241,1.31054163 C14.6578448,0.46591665 15.2737241,0.074815165 15.2737241,0.074815165 Z"></path>
                            </g>
                        </g>
                    </g>
                </g>
            </g>
        </g>
    </g>
</svg>