<?xml version="1.0" encoding="UTF-8"?>
<svg width="32px" height="32px" viewBox="0 0 32 32" version="1.1" xmlns="http://www.w3.org/2000/svg" xmlns:xlink="http://www.w3.org/1999/xlink">
    <title>xsea</title>
    <defs>
        <rect id="path-1" x="0" y="0" width="32" height="32" rx="6"></rect>
    </defs>
    <g id="☆-最终方案-☆-" stroke="none" stroke-width="1" fill="none" fill-rule="evenodd">
        <g id="通用模块" transform="translate(-397.000000, -935.000000)">
            <g id="编组-5备份-4" transform="translate(381.000000, 786.000000)">
                <g id="xsky备份-4" transform="translate(16.000000, 149.000000)">
                    <path d="M31.7785317,15.8892659 C31.7785317,24.6646329 24.6646329,31.7785317 15.8892659,31.7785317 C7.11389879,31.7785317 1.77635684e-15,24.6646329 1.77635684e-15,15.8892659 C1.77635684e-15,7.11389879 7.11389879,1.77635684e-15 15.8892659,1.77635684e-15 C24.6646329,1.77635684e-15 31.7785317,7.11389879 31.7785317,15.8892659" id="Fill-97" fill="#2A64F0"></path>
                    <mask id="mask-2" fill="white">
                        <use xlink:href="#path-1"></use>
                    </mask>
                    <use id="蒙版" fill="#3271FE" xlink:href="#path-1"></use>
                    <path d="M24.1442966,10.3549537 L24.079423,10.4200251 L22.2016034,12.3072322 L19.4233928,12.3072322 L18.5974712,13.1378739 L17.2245842,14.5181732 L16.1791737,15.568245 L21.6203092,15.6196528 L22.717078,14.5174967 L26.8364146,10.3770049 L26.8584446,10.3549537 L29.5608342,10.3549537 L29.5823236,10.3763285 L28.2093015,11.7573041 L24.0898298,15.897796 L25.4628519,17.2783658 L26.8364146,18.658665 L28.2093015,20.0393701 L29.5798908,21.4169636 L26.8331709,21.4169636 L23.0211729,17.584648 L14.7142474,17.5341872 L14.2785132,17.0969504 L13.1121405,15.9243116 L13.095787,15.9079423 L14.4779995,14.5181732 L15.8507512,13.1378739 L17.2237733,11.7573041 L18.5631422,10.4116375 L18.619366,10.3549537 L24.1442966,10.3549537 Z M4.90076835,10.3549537 L4.92333895,10.3770049 L6.28987367,11.7573041 L9.02321343,14.5174967 L10.3905591,15.8982018 L9.02321343,17.2783658 L7.65654355,18.6593414 L6.28987367,20.0393701 L4.92536624,21.4169636 L2.19202649,21.4169636 L3.5559933,20.0393701 L4.92333895,18.658665 L6.28946821,17.2783658 L7.65654355,15.8982018 L6.28987367,14.5174967 L4.92279833,13.1373328 L2.18959373,10.3770049 L2.2113534,10.3549537 L4.90076835,10.3549537 Z M11.7688521,17.3324792 L13.1295753,18.6827455 L13.1303862,18.6827455 L14.5086792,20.0511398 L15.8860262,21.4169636 L13.1270074,21.4169636 L11.7507416,20.0511398 L10.3905591,18.7008735 L10.4083993,18.6827455 L11.7688521,17.3324792 Z M22.160652,19.4598149 L24.0867213,21.4169636 L18.6566683,21.4169636 L17.3148666,20.0527632 L16.7314099,19.4598149 L22.160652,19.4598149 Z M15.8638611,10.3549537 L15.8860262,10.3771402 L14.5074629,11.7655564 L13.1290347,13.1543785 L11.7693927,14.5245315 L10.3905591,13.1354388 L11.7500658,11.7655564 L13.1283589,10.3765991 L13.1498483,10.3549537 L15.8638611,10.3549537 Z" id="形状结合" fill="#FFFFFF" mask="url(#mask-2)"></path>
                </g>
            </g>
        </g>
    </g>
</svg>