<?xml version="1.0" encoding="UTF-8"?>
<svg width="32px" height="32px" viewBox="0 0 32 32" version="1.1" xmlns="http://www.w3.org/2000/svg" xmlns:xlink="http://www.w3.org/1999/xlink">
    <title>xwind</title>
    <defs>
        <rect id="path-1" x="0" y="0" width="32" height="32" rx="6"></rect>
    </defs>
    <g id="☆-最终方案-☆-" stroke="none" stroke-width="1" fill="none" fill-rule="evenodd">
        <g id="通用模块" transform="translate(-397.000000, -999.000000)">
            <g id="编组-5备份-4" transform="translate(381.000000, 786.000000)">
                <g id="编组-43" transform="translate(0.000000, 64.000000)">
                    <g id="xland备份-4" transform="translate(16.000000, 149.000000)">
                        <path d="M0.0159657876,15.8955381 C0.0159657876,24.6710192 7.12963649,31.784804 15.9052316,31.784804 L15.9052316,31.784804 C24.6807128,31.784804 31.7944975,24.6710192 31.7944975,15.8955381 L31.7944975,15.8955381 C31.7944975,7.12005702 24.6807128,0.0062722737 15.9052316,0.0062722737 L15.9052316,0.0062722737 C7.12963649,0.0062722737 0.0159657876,7.12005702 0.0159657876,15.8955381 L0.0159657876,15.8955381 Z" id="Clip-132" fill="#2A64F0"></path>
                        <mask id="mask-2" fill="white">
                            <use xlink:href="#path-1"></use>
                        </mask>
                        <use id="蒙版" fill="#3271FE" xlink:href="#path-1"></use>
                        <path d="M21.3999715,15.6189879 L21.4672256,15.6259836 C21.5341269,15.6399786 21.6003706,15.6749822 21.6695652,15.7310905 L21.6695652,15.7310905 L22.6432787,16.5253029 L22.6432787,16.5253029 L23.6195581,17.3166073 L24.588382,18.0833215 L24.588382,18.0833215 L25.558489,18.8487527 L26.0134711,19.221953 L26.0134711,19.221953 L26.4678546,19.5961796 L26.5308673,19.6553897 C26.641891,19.7786202 26.6642338,19.9293921 26.6218104,20.0839344 L26.6218104,20.0839344 L26.5923798,20.1613115 C26.5325002,20.280849 26.4190449,20.3541364 26.2605274,20.3942409 L26.2605274,20.3942409 L25.8613532,20.5068251 C25.5967688,20.5878198 25.3343977,20.6774816 25.0691376,20.7565502 L25.0691376,20.7565502 L24.2796294,20.9723165 L23.7917605,21.1228368 L23.7917605,21.1228368 L23.3038917,21.2742979 L22.9179187,21.3830506 L22.9179187,21.3830506 L22.5316037,21.4905203 L22.1408981,21.607484 L22.1408981,21.607484 L21.7505346,21.7259016 L21.3823664,21.8340699 L21.3823664,21.8340699 L21.0142837,21.9422381 L20.6094512,22.0643763 L20.6094512,22.0643763 L20.2043621,22.1858304 L19.4643478,22.397263 L18.6496365,22.6375481 L18.280613,22.744747 L18.280613,22.744747 L17.9120171,22.8526301 L17.5076978,22.9754669 L17.5076978,22.9754669 L17.1031219,23.0977049 L16.3631076,23.3077691 L15.5670991,23.5456593 L15.1812545,23.6550107 L15.1812545,23.6550107 L14.7954954,23.7646187 L14.0149964,24.0003421 L13.6383036,24.1091803 L13.6383036,24.1091803 L13.2615253,24.217933 L12.8642053,24.338047 L12.8642053,24.338047 L12.4665431,24.4573058 L12.0808553,24.5660299 L12.0808553,24.5660299 L11.6951675,24.6746686 L11.3047327,24.7915895 L11.3047327,24.7915895 L10.9145545,24.9093656 L10.5381183,25.0191162 L10.5381183,25.0191162 L10.1614255,25.1280969 L10.0627227,25.1616393 L10.0627227,25.1616393 L9.96299359,25.1887669 L9.8808469,25.194145 C9.6694202,25.1869352 9.5224899,25.010495 9.52279401,24.7411547 L9.52279401,24.7411547 L9.52066102,24.6622449 C9.53274095,24.5385444 9.61868377,24.4520789 9.71381326,24.375196 L9.71381326,24.375196 L9.81223093,24.2983321 L10.3889808,23.8606985 L10.3889808,23.8606985 L10.9704348,23.428881 L11.6544975,22.9120599 L11.6544975,22.9120599 L12.3377904,22.3942979 L13.1599287,21.7738703 L13.1599287,21.7738703 L13.9811262,21.1525018 L14.9398717,20.4143122 L16.2835068,19.4010549 L17.2474982,18.6684533 L17.9244191,18.1561511 L17.9244191,18.1561511 L18.601511,17.64402 L19.553186,16.9215681 L20.2361226,16.4044048 L20.2361226,16.4044048 L20.918717,15.886985 L21.0336422,15.7925303 L21.0336422,15.7925303 L21.1518175,15.7033785 C21.2406557,15.6471561 21.321511,15.6189879 21.3999715,15.6189879 L21.3999715,15.6189879 Z M9.92148254,6.41607983 L9.98752851,6.42172844 C10.0539273,6.43309337 10.1205987,6.46181041 10.1804704,6.50970777 L10.1804704,6.50970777 L10.9711333,7.14409123 L10.9711333,7.14409123 L11.7611974,7.77933001 L12.8272559,8.6364077 L12.8272559,8.6364077 L13.8939986,9.49245902 L14.7798717,10.1983179 L14.7798717,10.1983179 L15.666087,10.9038346 L17.7880542,12.6054455 L18.6727299,13.3122167 L18.6727299,13.3122167 L19.5577477,14.0183036 L19.6383036,14.0829366 L19.6383036,14.0829366 L19.7208268,14.1446614 L19.7812283,14.1977241 C19.9446227,14.3762338 19.9458646,14.7159629 19.7347398,14.8746401 L19.7347398,14.8746401 L19.4468361,15.1004715 C19.2572741,15.2541063 19.0710573,15.4121169 18.8797719,15.5637919 L18.8797719,15.5637919 L18.3905203,15.9473414 L18.3905203,15.9473414 L17.8991304,16.328325 L16.4430506,17.45665 L14.5216821,18.9534426 L13.5676835,19.6987883 L13.5676835,19.6987883 L12.6137705,20.4443051 L10.6921739,21.9424661 L9.73794726,22.6877406 L9.73794726,22.6877406 L8.78380613,23.4331005 L6.86175339,24.9319458 L6.75763364,25.0186172 L6.7304918,25.038047 L6.7304918,25.038047 L6.70198147,25.0549964 L6.63160925,25.0855203 C6.37605761,25.1720124 6.15356565,24.9812307 6.15491897,24.5938133 L6.15491897,24.5938133 L6.1789425,24.4878421 C6.20560941,24.3707341 6.23920171,24.2234925 6.27067712,24.0756094 L6.27067712,24.0756094 L6.31100499,23.8717177 L6.31100499,23.8717177 L6.34765502,23.6672274 L6.4515752,23.0609694 L6.4515752,23.0609694 L6.55737705,22.4549679 L6.65452602,21.9378475 L6.65452602,21.9378475 L6.75432644,21.4210691 L6.95481112,20.3709765 L7.0513186,19.8620813 L7.0513186,19.8620813 L7.15107627,19.3536137 L7.27531005,18.7698218 L7.27531005,18.7698218 L7.39774768,18.1856023 L7.47176051,17.7606415 L7.47176051,17.7606415 L7.54440485,17.335082 L7.63247327,16.9064291 L7.63247327,16.9064291 L7.72379187,16.4782894 L7.76407698,16.2743692 L7.76407698,16.2743692 L7.8011119,16.0700214 L7.90516037,15.4636208 L7.90516037,15.4636208 L8.01083393,14.8576479 L8.1080114,14.3406985 L8.1080114,14.3406985 L8.2080114,13.8240912 L8.30600143,13.3071561 L8.30600143,13.3071561 L8.4068995,12.7906486 L8.53270135,12.1985602 L8.53270135,12.1985602 L8.65619387,11.6062153 L8.72920884,11.1728154 L8.72920884,11.1728154 L8.80205274,10.7391589 L9.04963649,9.55415538 L9.1238489,9.12091233 L9.1238489,9.12091233 L9.19720599,8.68732716 L9.28516037,8.26728439 L9.28516037,8.26728439 L9.37704918,7.84775481 L9.41639344,7.64363507 L9.41639344,7.64363507 L9.45300071,7.43891661 L9.5208268,7.053799 L9.5208268,7.053799 L9.59429793,6.66970777 C9.62862438,6.50833927 9.76798289,6.41607983 9.92148254,6.41607983 L9.92148254,6.41607983 Z M26.3599715,10.8862723 L26.4266888,10.8942156 C26.5395581,10.9201362 26.6553576,11.0066809 26.692516,11.1120741 L26.692516,11.1120741 L26.723907,11.2241219 C26.7409203,11.3001663 26.7516655,11.3783226 26.7655025,11.4551105 L26.7655025,11.4551105 L26.8579615,11.9736992 L26.8579615,11.9736992 L26.948881,12.4925445 L26.988211,12.7216251 L26.988211,12.7216251 L27.0236921,12.9512188 L27.0605132,13.2540699 L27.0605132,13.2540699 L27.1013542,13.5563222 L27.1897363,14.042851 L27.1897363,14.042851 L27.2811974,14.5288667 L27.3191732,14.7499359 L27.3191732,14.7499359 L27.3530435,14.9716892 L27.4231789,15.4795296 L27.4231789,15.4795296 L27.4977619,15.9864291 L27.5866999,16.4811262 L27.5866999,16.4811262 L27.6803421,16.9750535 L27.7155381,17.1800998 L27.7155381,17.1800998 L27.7470563,17.3858304 L27.7733238,17.5756543 C27.7902273,17.7012941 27.8060157,17.8241292 27.8212972,17.9382466 L27.8212972,17.9382466 L27.8206978,18.0256548 C27.8097837,18.1917116 27.7387476,18.3063721 27.5746258,18.3905346 L27.5746258,18.3905346 L27.5037004,18.4179161 C27.3694701,18.4517375 27.2786885,18.3672538 27.1904205,18.2966785 L27.1904205,18.2966785 L26.5100641,17.7400713 L26.5100641,17.7400713 L25.8325303,17.1802138 L24.7643336,16.3104348 L24.7643336,16.3104348 L23.6952815,15.4421098 L23.3371917,15.146871 L23.3371917,15.146871 L22.9749964,14.8571917 L22.9011772,14.7932503 C22.677537,14.572471 22.6789036,14.2795827 22.9282395,14.0436208 L22.9282395,14.0436208 L24.474583,12.5726158 L24.474583,12.5726158 L26.0188738,11.0993015 L26.0977186,11.0265136 C26.1518334,10.9790639 26.2093609,10.9353481 26.2721597,10.904861 C26.2985032,10.8922024 26.328382,10.8862723 26.3599715,10.8862723 L26.3599715,10.8862723 Z M13.8162224,6.59580898 L14.1512901,6.67478261 L14.1512901,6.67478261 L14.4741269,6.75341411 L14.7984319,6.84022808 L14.7984319,6.84022808 L15.1222238,6.92960798 L15.4388881,7.01696365 L15.4388881,7.01696365 L15.7560656,7.1026087 L16.3644761,7.25485388 L17.0140556,7.4311618 L17.3106771,7.50538845 L17.3106771,7.50538845 L17.6072986,7.57952958 L18.0636778,7.70200998 L18.0636778,7.70200998 L18.5203136,7.82380613 L19.1321454,7.97126158 L19.4485959,8.05684961 L19.4485959,8.05684961 L19.7649608,8.14346401 L20.0614255,8.21897363 L20.0614255,8.21897363 L20.3579758,8.29388453 L21.2568496,8.53109052 L21.569052,8.60839629 L21.569052,8.60839629 L21.88134,8.68561654 L22.1909052,8.76880969 L22.1909052,8.76880969 L22.5004704,8.85234498 L22.8122452,8.93093371 L22.8122452,8.93093371 L23.1239344,9.00960798 L23.7581183,9.18192445 L24.0701354,9.25950107 L24.0701354,9.25950107 L24.3824947,9.33485388 L24.5775687,9.37750112 C24.7081334,9.40460917 24.8383939,9.43235923 24.9603421,9.48048468 L24.9603421,9.48048468 L25.0346418,9.51715992 C25.2881658,9.67053298 25.3314707,10.0218674 25.0910335,10.2442195 L25.0910335,10.2442195 L24.6533713,10.6371775 L24.6533713,10.6371775 L24.2114326,11.0255167 L23.2288382,11.89732 L23.2288382,11.89732 L22.245474,12.7681825 L21.9356379,13.0352103 L21.9356379,13.0352103 L21.6255453,13.3018959 L21.5548361,13.3580738 C21.3939184,13.4708446 21.2581468,13.4553528 21.0772345,13.3097648 L21.0772345,13.3097648 L20.284918,12.6780043 L20.284918,12.6780043 L19.4904633,12.0488097 L18.5603279,11.3105631 L18.5603279,11.3105631 L17.6297648,10.5726586 L16.6005274,9.75840342 L16.6005274,9.75840342 L15.5708624,8.94449038 L14.6094512,8.18344975 L14.6094512,8.18344975 L13.6460727,7.42488952 L13.5801258,7.36286003 C13.3834666,7.14050341 13.4181974,6.7746569 13.6768639,6.63811832 C13.6919173,6.63013542 13.7080352,6.62405322 13.7242966,6.61906497 L13.8162224,6.59580898 Z" id="形状结合" fill="#FFFFFF"></path>
                    </g>
                </g>
            </g>
        </g>
    </g>
</svg>