<?xml version="1.0" encoding="UTF-8"?>
<svg width="160px" height="110px" viewBox="0 0 160 110" version="1.1" xmlns="http://www.w3.org/2000/svg" xmlns:xlink="http://www.w3.org/1999/xlink">
    <title>404</title>
    <defs>
        <rect id="path-1" x="0" y="0" width="160" height="110"></rect>
        <linearGradient x1="50%" y1="-32.8130387%" x2="50%" y2="78.8882452%" id="linearGradient-3">
            <stop stop-color="#E2E7EF" offset="0%"></stop>
            <stop stop-color="#E9EDF3" stop-opacity="0.991407274" offset="36.7797425%"></stop>
            <stop stop-color="#F6F7FA" stop-opacity="0" offset="100%"></stop>
        </linearGradient>
        <linearGradient x1="50%" y1="-15.38682%" x2="50%" y2="78.8882452%" id="linearGradient-4">
            <stop stop-color="#E2E7EF" offset="0%"></stop>
            <stop stop-color="#E9EDF3" stop-opacity="0.991407274" offset="36.7797425%"></stop>
            <stop stop-color="#F6F7FA" stop-opacity="0" offset="100%"></stop>
        </linearGradient>
        <linearGradient x1="44.9986542%" y1="84.5678909%" x2="69.5182136%" y2="20.8200527%" id="linearGradient-5">
            <stop stop-color="#E8F5FF" stop-opacity="0.0549026169" offset="0%"></stop>
            <stop stop-color="#AEDAFF" stop-opacity="0.480890447" offset="100%"></stop>
        </linearGradient>
        <linearGradient x1="49.6782239%" y1="5.04199562%" x2="50.6104532%" y2="86.5563133%" id="linearGradient-6">
            <stop stop-color="#B1C4E0" offset="0%"></stop>
            <stop stop-color="#D3E1F9" offset="44.9627643%"></stop>
            <stop stop-color="#FFFFFF" offset="100%"></stop>
        </linearGradient>
        <rect id="path-7" x="48" y="4" width="1" height="7"></rect>
        <filter x="-650.0%" y="-92.9%" width="1400.0%" height="285.7%" filterUnits="objectBoundingBox" id="filter-8">
            <feGaussianBlur stdDeviation="4.5" in="SourceAlpha" result="shadowBlurInner1"></feGaussianBlur>
            <feOffset dx="0" dy="-4" in="shadowBlurInner1" result="shadowOffsetInner1"></feOffset>
            <feComposite in="shadowOffsetInner1" in2="SourceAlpha" operator="arithmetic" k2="-1" k3="1" result="shadowInnerInner1"></feComposite>
            <feColorMatrix values="0 0 0 0 0.631740127   0 0 0 0 0.789022581   0 0 0 0 0.884097777  0 0 0 1 0" type="matrix" in="shadowInnerInner1"></feColorMatrix>
        </filter>
        <linearGradient x1="28.3493376%" y1="33.6335948%" x2="79.912205%" y2="61.9659087%" id="linearGradient-9">
            <stop stop-color="#B1C4E0" offset="0%"></stop>
            <stop stop-color="#D3E1F9" offset="44.9627643%"></stop>
            <stop stop-color="#FFFFFF" offset="100%"></stop>
        </linearGradient>
        <path d="M41.2073298,25.1579895 C29.4960945,20.378661 20.5386614,15.1695186 21.1999673,13.5232807 C21.8616745,11.8766383 31.1594946,2.78440534 47.6158754,9.20855583 C64.0853016,15.6377629 64.2715511,29.1840817 63.6100445,30.8305218 C62.9485379,32.4767597 52.918565,29.9371157 41.2073298,25.1579895 Z" id="path-10"></path>
        <filter x="-15.2%" y="-26.6%" width="130.5%" height="153.3%" filterUnits="objectBoundingBox" id="filter-11">
            <feGaussianBlur stdDeviation="4.5" in="SourceAlpha" result="shadowBlurInner1"></feGaussianBlur>
            <feOffset dx="0" dy="-4" in="shadowBlurInner1" result="shadowOffsetInner1"></feOffset>
            <feComposite in="shadowOffsetInner1" in2="SourceAlpha" operator="arithmetic" k2="-1" k3="1" result="shadowInnerInner1"></feComposite>
            <feColorMatrix values="0 0 0 0 0.631740127   0 0 0 0 0.789022581   0 0 0 0 0.884097777  0 0 0 1 0" type="matrix" in="shadowInnerInner1"></feColorMatrix>
        </filter>
        <radialGradient cx="50%" cy="40.6016086%" fx="50%" fy="40.6016086%" r="68.743876%" id="radialGradient-12">
            <stop stop-color="#B1CBF7" offset="0%"></stop>
            <stop stop-color="#EFF5FF" offset="58.1291999%"></stop>
            <stop stop-color="#FFFFFF" offset="100%"></stop>
        </radialGradient>
        <path d="M49.7815744,5.9878683 C50.8861439,5.9878683 51.7815744,5.0924378 51.7815744,3.9878683 C51.7815744,2.8832988 50.8861439,1.9878683 49.7815744,1.9878683 C48.6770049,1.9878683 47.7815744,2.8832988 47.7815744,3.9878683 C47.7815744,5.0924378 48.6770049,5.9878683 49.7815744,5.9878683 Z" id="path-13"></path>
        <filter x="-162.5%" y="-162.5%" width="425.0%" height="425.0%" filterUnits="objectBoundingBox" id="filter-14">
            <feGaussianBlur stdDeviation="4.5" in="SourceAlpha" result="shadowBlurInner1"></feGaussianBlur>
            <feOffset dx="0" dy="-4" in="shadowBlurInner1" result="shadowOffsetInner1"></feOffset>
            <feComposite in="shadowOffsetInner1" in2="SourceAlpha" operator="arithmetic" k2="-1" k3="1" result="shadowInnerInner1"></feComposite>
            <feColorMatrix values="0 0 0 0 0.631740127   0 0 0 0 0.789022581   0 0 0 0 0.884097777  0 0 0 1 0" type="matrix" in="shadowInnerInner1"></feColorMatrix>
        </filter>
        <linearGradient x1="30.1005156%" y1="45.2662722%" x2="77.2190087%" y2="51.7782247%" id="linearGradient-15">
            <stop stop-color="#D6E2F4" offset="0%"></stop>
            <stop stop-color="#E5EEFD" offset="46.4471564%"></stop>
            <stop stop-color="#FFFFFF" offset="100%"></stop>
        </linearGradient>
        <ellipse id="path-16" cx="40.873033" cy="26.3640807" rx="39" ry="12"></ellipse>
        <filter x="-8.3%" y="-27.1%" width="116.7%" height="154.2%" filterUnits="objectBoundingBox" id="filter-17">
            <feGaussianBlur stdDeviation="4.5" in="SourceAlpha" result="shadowBlurInner1"></feGaussianBlur>
            <feOffset dx="0" dy="-4" in="shadowBlurInner1" result="shadowOffsetInner1"></feOffset>
            <feComposite in="shadowOffsetInner1" in2="SourceAlpha" operator="arithmetic" k2="-1" k3="1" result="shadowInnerInner1"></feComposite>
            <feColorMatrix values="0 0 0 0 0.631740127   0 0 0 0 0.789022581   0 0 0 0 0.884097777  0 0 0 1 0" type="matrix" in="shadowInnerInner1"></feColorMatrix>
        </filter>
        <linearGradient x1="50%" y1="-1.13686838e-11%" x2="50%" y2="100%" id="linearGradient-18">
            <stop stop-color="#C8D9F3" offset="0%"></stop>
            <stop stop-color="#7697C7" offset="100%"></stop>
        </linearGradient>
        <ellipse id="path-19" cx="37.5" cy="31" rx="18" ry="5"></ellipse>
        <filter x="-18.1%" y="-65.0%" width="136.1%" height="230.0%" filterUnits="objectBoundingBox" id="filter-20">
            <feGaussianBlur stdDeviation="4.5" in="SourceAlpha" result="shadowBlurInner1"></feGaussianBlur>
            <feOffset dx="0" dy="-4" in="shadowBlurInner1" result="shadowOffsetInner1"></feOffset>
            <feComposite in="shadowOffsetInner1" in2="SourceAlpha" operator="arithmetic" k2="-1" k3="1" result="shadowInnerInner1"></feComposite>
            <feColorMatrix values="0 0 0 0 0.631740127   0 0 0 0 0.789022581   0 0 0 0 0.884097777  0 0 0 1 0" type="matrix" in="shadowInnerInner1"></feColorMatrix>
        </filter>
        <filter x="-54.2%" y="-65.3%" width="208.5%" height="230.5%" filterUnits="objectBoundingBox" id="filter-21">
            <feGaussianBlur stdDeviation="3.10825893" in="SourceGraphic"></feGaussianBlur>
        </filter>
        <linearGradient x1="57.1325803%" y1="42.7776826%" x2="50%" y2="52.4938319%" id="linearGradient-22">
            <stop stop-color="#E2E7EF" offset="0%"></stop>
            <stop stop-color="#E9EDF3" stop-opacity="0.991407274" offset="36.7797425%"></stop>
            <stop stop-color="#F6F7FA" stop-opacity="0" offset="100%"></stop>
        </linearGradient>
        <linearGradient x1="50%" y1="0%" x2="50%" y2="93.6243589%" id="linearGradient-23">
            <stop stop-color="#E2E7EF" offset="0%"></stop>
            <stop stop-color="#E9EDF3" stop-opacity="0.991407274" offset="36.7797425%"></stop>
            <stop stop-color="#F6F7FA" stop-opacity="0" offset="100%"></stop>
        </linearGradient>
    </defs>
    <g id="Perfma-Design_PC组件库-" stroke="none" stroke-width="1" fill="none" fill-rule="evenodd">
        <g id="空页" transform="translate(-1096.000000, -789.000000)">
            <g id="无页面" transform="translate(1096.000000, 789.000000)">
                <mask id="mask-2" fill="white">
                    <use xlink:href="#path-1"></use>
                </mask>
                <g id="蒙版"></g>
                <g id="编组-19" mask="url(#mask-2)">
                    <g transform="translate(3.000000, 4.513259)">
                        <g id="编组-22" transform="translate(11.058972, 3.000000)">
                            <circle id="椭圆形备份-11" fill="url(#linearGradient-3)" cx="16" cy="30.4867413" r="16"></circle>
                            <path d="M78.3382921,9 C89.6604912,9 99.4131138,15.7201556 103.82508,25.3893865 C106.78216,23.2561129 110.413536,22 114.338292,22 C124.279418,22 132.338292,30.0588745 132.338292,40 C132.338292,49.9411255 124.279418,58 114.338292,58 C109.335954,58 104.810214,55.9594401 101.548053,52.6653 C96.5169124,60.1074906 87.9989557,65 78.3382921,65 C62.8743191,65 50.3382921,52.463973 50.3382921,37 C50.3382921,21.536027 62.8743191,9 78.3382921,9 Z" id="形状结合备份-6" fill="url(#linearGradient-4)" transform="translate(91.338292, 37.000000) rotate(13.000000) translate(-91.338292, -37.000000) "></path>
                            <polygon id="星形备份-7" fill="#DDE3EE" points="125.296609 46.1944345 124.250887 48.1064597 123.205166 46.1944345 121.293141 45.1487132 123.205166 44.1029919 124.250887 42.1909667 125.296609 44.1029919 127.208634 45.1487132"></polygon>
                            <polygon id="星形备份-8" fill="#DDE3EE" points="42.7608612 28.4896731 41.0677887 31.5853329 39.3747161 28.4896731 36.2790563 26.7966005 39.3747161 25.1035279 41.0677887 22.0078681 42.7608612 25.1035279 45.8565211 26.7966005"></polygon>
                            <polygon id="星形备份-9" fill="#DDE3EE" opacity="0.5" points="48.7895663 14.293026 47.743845 16.2050512 46.6981237 14.293026 44.7860985 13.2473047 46.6981237 12.2015834 47.743845 10.2895582 48.7895663 12.2015834 50.7015915 13.2473047"></polygon>
                        </g>
                        <g id="ico_暂无数据" transform="translate(26.000000, 0.486741)">
                            <path d="M48.1777547,24.693469 L12.0259021,80.5871447 C12.0259021,80.5871447 25.6015297,85.5496076 44.2766303,86.8316797 C62.9517308,88.1137518 75.6615976,84.8789482 75.6615976,84.8789482 L81.0361225,37.2836931 L48.1777547,24.693469 Z" id="Path-5" fill="url(#linearGradient-5)" opacity="0.561480978"></path>
                            <g id="飞碟" transform="translate(27.166667, 0.000000)">
                                <g id="矩形" transform="translate(48.500000, 7.500000) rotate(21.000000) translate(-48.500000, -7.500000) ">
                                    <use fill="url(#linearGradient-6)" fill-rule="evenodd" xlink:href="#path-7"></use>
                                    <use fill="black" fill-opacity="1" filter="url(#filter-8)" xlink:href="#path-7"></use>
                                </g>
                                <g id="-67">
                                    <use fill="url(#linearGradient-9)" fill-rule="evenodd" xlink:href="#path-10"></use>
                                    <use fill="black" fill-opacity="1" filter="url(#filter-11)" xlink:href="#path-10"></use>
                                </g>
                                <g id="椭圆形">
                                    <use fill="url(#radialGradient-12)" fill-rule="evenodd" xlink:href="#path-13"></use>
                                    <use fill="black" fill-opacity="1" filter="url(#filter-14)" xlink:href="#path-13"></use>
                                </g>
                                <g id="椭圆形" transform="translate(40.873033, 26.364081) rotate(22.000000) translate(-40.873033, -26.364081) ">
                                    <use fill="url(#linearGradient-15)" fill-rule="evenodd" xlink:href="#path-16"></use>
                                    <use fill="black" fill-opacity="1" filter="url(#filter-17)" xlink:href="#path-16"></use>
                                </g>
                                <ellipse id="椭圆形" fill="#008AFF" transform="translate(66.500000, 38.000000) rotate(12.000000) translate(-66.500000, -38.000000) " cx="66.5" cy="38" rx="3.5" ry="2"></ellipse>
                                <ellipse id="椭圆形备份-2" fill="#008AFF" transform="translate(33.312697, 19.463592) rotate(22.000000) translate(-33.312697, -19.463592) " cx="33.3126967" cy="19.4635919" rx="3.5" ry="2.5"></ellipse>
                                <ellipse id="椭圆形备份-9" fill="#008AFF" transform="translate(13.500000, 16.000000) rotate(30.000000) translate(-13.500000, -16.000000) " cx="13.5" cy="16" rx="3.5" ry="2"></ellipse>
                                <g id="椭圆形备份-10" transform="translate(37.500000, 31.000000) rotate(22.000000) translate(-37.500000, -31.000000) ">
                                    <use fill="url(#linearGradient-18)" fill-rule="evenodd" xlink:href="#path-19"></use>
                                    <use fill="black" fill-opacity="1" filter="url(#filter-20)" xlink:href="#path-19"></use>
                                </g>
                                <ellipse id="椭圆形备份-3" fill="#008AFF" transform="translate(52.312697, 27.463592) rotate(22.000000) translate(-52.312697, -27.463592) " cx="52.3126967" cy="27.4635919" rx="3.5" ry="2.5"></ellipse>
                                <path d="M2.34829445,7.49247573 C1.40761445,9.83389968 8.33757813,15.0454693 19.4577524,20.8830502 C16.1437972,18.8642395 12.5432426,16.5266586 11.1168691,15.276254 C8.51459537,12.9955097 6.1732314,11.7076861 4.00747976,9.16156958 C3.20628613,8.21961974 3.18039585,7.3361246 3.46438608,6.59644013 C2.88777553,6.79951456 2.5074494,7.09623786 2.34829445,7.49247573" id="-117" fill="#FEEEFF" filter="url(#filter-21)"></path>
                            </g>
                        </g>
                        <g id="编组-23" transform="translate(0.000000, 45.486741)">
                            <path d="M105.046975,20.7657576 C122.476148,20.7657576 137.602381,30.6367348 145.151913,45.0990909 L64.9420364,45.0990909 C72.4915685,30.6367348 87.6178012,20.7657576 105.046975,20.7657576 Z" id="路径备份-4" fill="url(#linearGradient-22)"></path>
                            <path d="M27.037037,3.60493827 C37.2407795,3.60493827 46.0300249,9.66111985 50.0063601,18.3750698 C52.6714737,16.4530956 55.9442686,15.3209877 59.4814815,15.3209877 C63.0279947,15.3209877 66.3086976,16.4590567 68.9783086,18.389913 C72.6105708,14.2960664 77.9113952,11.7160494 83.8148148,11.7160494 C94.7650532,11.7160494 103.641975,20.5929715 103.641975,31.5432099 C103.641975,42.4934482 94.7650532,51.3703704 83.8148148,51.3703704 C77.9113952,51.3703704 72.6105708,48.7903533 68.9783962,44.6963737 C66.3086976,46.6273631 63.0279947,47.7654321 59.4814815,47.7654321 C54.973069,47.7654321 50.8942086,45.9263008 47.9542163,42.9573542 C43.4198747,49.6649842 35.7433549,54.0740741 27.037037,54.0740741 C13.10037,54.0740741 1.80246914,42.7761732 1.80246914,28.8395062 C1.80246914,14.9028392 13.10037,3.60493827 27.037037,3.60493827 Z" id="形状结合备份-7" fill="url(#linearGradient-23)" transform="translate(52.722222, 28.839506) rotate(-4.000000) translate(-52.722222, -28.839506) "></path>
                        </g>
                    </g>
                </g>
            </g>
        </g>
    </g>
</svg>