<?xml version="1.0" encoding="UTF-8"?>
<svg width="160px" height="110px" viewBox="0 0 160 110" version="1.1" xmlns="http://www.w3.org/2000/svg" xmlns:xlink="http://www.w3.org/1999/xlink">
    <title>normal</title>
    <defs>
        <rect id="path-1" x="0" y="0" width="160" height="110"></rect>
        <linearGradient x1="50%" y1="-32.8130387%" x2="50%" y2="78.8882452%" id="linearGradient-3">
            <stop stop-color="#E2E7EF" offset="0%"></stop>
            <stop stop-color="#E9EDF3" stop-opacity="0.991407274" offset="36.7797425%"></stop>
            <stop stop-color="#F6F7FA" stop-opacity="0" offset="100%"></stop>
        </linearGradient>
        <linearGradient x1="50%" y1="-15.38682%" x2="50%" y2="78.8882452%" id="linearGradient-4">
            <stop stop-color="#E2E7EF" offset="0%"></stop>
            <stop stop-color="#E9EDF3" stop-opacity="0.991407274" offset="36.7797425%"></stop>
            <stop stop-color="#F6F7FA" stop-opacity="0" offset="100%"></stop>
        </linearGradient>
        <linearGradient x1="32.4446531%" y1="32.2177103%" x2="74.992865%" y2="100%" id="linearGradient-5">
            <stop stop-color="#C4D0E1" offset="0%"></stop>
            <stop stop-color="#E5EEFD" offset="100%"></stop>
        </linearGradient>
        <path d="M0,9.11273265 L41.6420868,0.384296358 C42.2511439,0.256634259 42.8483728,0.646882022 42.9760349,1.25593913 C42.9919689,1.33195808 43,1.40942087 43,1.48709181 L43,42.8803354 C43,43.4807829 42.5291405,43.9757442 41.9294403,44.0056935 L0,46.0996694 L0,46.0996694 L0,9.11273265 Z" id="path-6"></path>
        <filter x="-3.7%" y="-6.4%" width="106.6%" height="110.2%" filterUnits="objectBoundingBox" id="filter-8">
            <feGaussianBlur stdDeviation="0.6" in="SourceGraphic"></feGaussianBlur>
        </filter>
        <filter x="-10.0%" y="-7.7%" width="119.9%" height="109.4%" filterUnits="objectBoundingBox" id="filter-9">
            <feGaussianBlur stdDeviation="0.6" in="SourceGraphic"></feGaussianBlur>
        </filter>
        <linearGradient x1="92.4953051%" y1="45.5140383%" x2="23.1234347%" y2="51.8597171%" id="linearGradient-10">
            <stop stop-color="#F3F7FA" offset="0%"></stop>
            <stop stop-color="#F8FCFF" offset="100%"></stop>
        </linearGradient>
        <linearGradient x1="57.1325803%" y1="42.8649605%" x2="50%" y2="52.4636952%" id="linearGradient-11">
            <stop stop-color="#E2E7EF" offset="0%"></stop>
            <stop stop-color="#E9EDF3" stop-opacity="0.991407274" offset="36.7797425%"></stop>
            <stop stop-color="#F6F7FA" stop-opacity="0" offset="100%"></stop>
        </linearGradient>
        <linearGradient x1="50%" y1="0%" x2="50%" y2="93.6243589%" id="linearGradient-12">
            <stop stop-color="#E2E7EF" offset="0%"></stop>
            <stop stop-color="#E9EDF3" stop-opacity="0.991407274" offset="36.7797425%"></stop>
            <stop stop-color="#F6F7FA" stop-opacity="0" offset="100%"></stop>
        </linearGradient>
        <path d="M12.7840868,1.00046828 C12.6533549,1.00668981 12.5350739,1.08134803 12.472821,1.19333553 C11.3398137,3.17799593 11.352493,4.65674446 8.69428762,5.99937063 C6.03608221,7.3419968 5.01900202,9.15954443 5.19358497,12.4297176 C4.33339688,12.6367903 3.51476681,12.7204517 2.73769477,12.6807017 C2.3505858,12.6608817 2.0207185,12.9586435 2.00091645,13.3457534 C2.00030558,13.3576953 2,13.3696508 2,13.3816082 C2,13.7719416 2.31642776,14.0883694 2.70676119,14.0883694 C2.73113171,14.0883694 2.75548592,14.0871089 2.77972849,14.0846147 C4.06003347,13.9517278 4.97663998,13.8003634 5.52954802,13.6305216 C5.93609388,13.5056392 5.66225265,13.5763431 5.66015561,13.5687164 C11.4552266,16.3785152 14.2231186,11.0666734 14.4443973,8.18663162 C14.6656759,5.30658988 14.1411946,2.49983438 13.1202399,1.15599073 C13.0393253,1.05023992 12.9148187,0.994246054 12.7840868,1.00046828 Z" id="path-13"></path>
    </defs>
    <g id="Perfma-Design_PC组件库-" stroke="none" stroke-width="1" fill="none" fill-rule="evenodd">
        <g id="空页" transform="translate(-474.000000, -789.000000)">
            <g id="暂无内容（通用）" transform="translate(474.000000, 789.000000)">
                <mask id="mask-2" fill="white">
                    <use xlink:href="#path-1"></use>
                </mask>
                <g id="蒙版"></g>
                <g id="编组-18备份-12" mask="url(#mask-2)">
                    <g transform="translate(8.000000, 0.000000)" id="蒙版">
                        <g id="编组-18" transform="translate(15.804878, 0.476506)">
                            <ellipse id="椭圆形备份-8" fill="url(#linearGradient-3)" cx="14.1005607" cy="45.9001171" rx="14.0487805" ry="13.9636364"></ellipse>
                            <path d="M61.5237301,8.29090909 C71.4651071,8.29090909 80.0283378,14.1556942 83.9022957,22.5942055 C86.4985581,20.7327025 89.6872096,19.6363636 93.1334862,19.6363636 C101.862279,19.6363636 108.938364,26.6695632 108.938364,35.3454545 C108.938364,44.0213459 101.862279,51.0545455 93.1334862,51.0545455 C88.7412102,51.0545455 84.7674068,49.2737101 81.9030728,46.3988482 C77.4852268,52.8939348 70.0061399,57.1636364 61.5237301,57.1636364 C47.9456074,57.1636364 36.9383642,46.2231037 36.9383642,32.7272727 C36.9383642,19.2314418 47.9456074,8.29090909 61.5237301,8.29090909 Z" id="形状结合备份-3" fill="url(#linearGradient-4)" transform="translate(72.938364, 32.727273) rotate(13.000000) translate(-72.938364, -32.727273) "></path>
                            <polygon id="星形备份-6" fill="#DDE3EE" points="105.678071 54.3722857 104.759876 56.0409622 103.841682 54.3722857 102.162831 53.4596562 103.841682 52.5470267 104.759876 50.8783502 105.678071 52.5470267 107.356922 53.4596562"></polygon>
                            <polygon id="星形备份-3" fill="#DDE3EE" points="26.1832681 17.975403 24.6966678 20.6770697 23.2100675 17.975403 20.4919272 16.4978124 23.2100675 15.0202218 24.6966678 12.318555 26.1832681 15.0202218 28.9014085 16.4978124"></polygon>
                            <polygon id="星形备份-4" fill="#DDE3EE" points="83.7268511 58.735922 82.8086568 60.4045986 81.8904625 58.735922 80.2116111 57.8232925 81.8904625 56.910663 82.8086568 55.2419865 83.7268511 56.910663 85.4057025 57.8232925"></polygon>
                            <polygon id="星形备份-5" fill="#DDE3EE" opacity="0.5" points="33.2328628 20.4219656 32.3146685 22.0906421 31.3964742 20.4219656 29.7176228 19.5093361 31.3964742 18.5967066 32.3146685 16.9280301 33.2328628 18.5967066 34.9117142 19.5093361"></polygon>
                        </g>
                        <g id="编组-2备份-5" transform="translate(0.507042, 3.089556)">
                            <g id="编组" transform="translate(39.833734, 21.771063)">
                                <polygon id="路径-32" fill="#DEE3EE" points="0.93885102 7.31726166 18.3029887 20.3816311 61.5870835 6.54482561 36.8116199 0.468698993"></polygon>
                                <polygon id="路径-33" fill="#C2CBDC" points="36.8116199 0.468698993 36.8116199 14.9731804 61.5870835 6.5063481"></polygon>
                                <g id="路径-30" transform="translate(18.302989, 6.368827)">
                                    <mask id="mask-7" fill="white">
                                        <use xlink:href="#path-6"></use>
                                    </mask>
                                    <use id="蒙版" fill="url(#linearGradient-5)" opacity="0.80279541" xlink:href="#path-6"></use>
                                    <path d="M-7.56728014e-13,8.16583512 L3.72271069,23.8045039 C4.15503203,25.6206349 5.9777628,26.7424343 7.7938938,26.3101129 C7.81051124,26.3061572 7.82709846,26.3020756 7.84365402,26.2978684 L46.5004443,16.4742679 C47.4051286,16.2443663 47.952148,15.3246027 47.7222465,14.4199185 C47.7179819,14.4031371 47.7134598,14.3864223 47.7086816,14.36978 L43.3324167,-0.872727273 L43.3324167,-0.872727273 L-7.56728014e-13,8.16583512 Z" fill="#98A2B8" opacity="0.296893892" filter="url(#filter-8)" mask="url(#mask-7)"></path>
                                </g>
                                <path d="M0.11898366,15.5549806 L16.8486189,7.93227979 C17.4148994,7.67425939 18.0831274,7.92415361 18.3411478,8.49043415 C18.4079821,8.6371162 18.4425667,8.7964307 18.4425667,8.95762141 L18.4425667,42.234427 C18.4425667,42.6413565 18.2231527,43.0166694 17.8685517,43.2162934 L7.95452593e-12,53.2754652 L7.95452593e-12,53.2754652 L0.11898366,15.5549806 Z" id="矩形" fill="#E6EFFB" transform="translate(9.221283, 30.240739) scale(-1, 1) translate(-9.221283, -30.240739) "></path>
                                <path d="M0.0658914903,15.4027402 L6.09920431,27.6692064 C6.92316296,29.3444156 8.94913876,30.0344904 10.6243479,29.2105318 C10.7042674,29.1712231 10.7826021,29.1287711 10.8591686,29.0832754 L17.1359407,25.3536224 C17.661754,25.0411846 17.9777394,24.4690436 17.9621689,23.8576071 L17.546267,7.52560439 L17.546267,7.52560439 L0.0658914903,15.4027402 Z" id="路径-30备份" fill="#98A2B8" opacity="0.19770159" filter="url(#filter-9)" transform="translate(9.026637, 19.238885) scale(-1, 1) translate(-9.026637, -19.238885) "></path>
                            </g>
                            <g id="编组-20" transform="translate(89.447301, 10.092431) rotate(-16.000000) translate(-89.447301, -10.092431) translate(79.447301, 3.092431)" stroke="#B3BCCF" stroke-dasharray="1.577464761868329" stroke-linecap="round" stroke-width="0.6">
                                <path d="M19.7710574,0.479067317 C15.5072941,6.77207353 11.5806736,9.96629654 7.99119609,10.0617363 C2.60697976,10.2048961 8.28594157,4.15341873 11.0205297,5.87074599 C13.7551178,7.58807326 5.93657446,13.8903894 0.419227438,13.4759182" id="路径-9" transform="translate(10.095142, 6.987256) rotate(-1.000000) translate(-10.095142, -6.987256) "></path>
                            </g>
                            <path d="M58.1367228,37.2730721 L45.3500092,46.858797 C44.6292709,47.3991077 43.6560124,47.4583132 42.8750946,47.0093514 L28.5795678,38.7906327 C28.1749509,38.5580123 28.0355203,38.0414293 28.2681407,37.6368124 C28.3298502,37.5294758 28.4143914,37.4370099 28.5157842,37.3659554 L40.2779098,29.1232444 L40.2779098,29.1232444 L58.1367228,37.2730721 Z" id="路径-31" fill="#FBFDFD"></path>
                            <path d="M58.1367228,37.1784522 L66.2990451,49.3417915 C67.0714574,50.4928257 68.4683169,51.0556211 69.8229525,50.7615755 L108.789164,42.3033288 C109.70136,42.1053218 110.280325,41.2053245 110.082318,40.2931284 C110.032868,40.0653205 109.936828,39.8502048 109.800234,39.6613033 L101.469139,28.1398898 L101.469139,28.1398898 L58.1367228,37.1784522 Z" id="路径-30" fill="url(#linearGradient-10)"></path>
                            <g id="编组-12" transform="translate(0.371007, 50.268886)">
                                <path d="M102.344463,20.108908 C119.325242,20.108908 134.062326,29.6676525 141.417634,43.6725443 L63.2712924,43.6725443 C70.6266,29.6676525 85.3636847,20.108908 102.344463,20.108908 Z" id="路径备份-2" fill="url(#linearGradient-11)"></path>
                                <path d="M26.3414634,3.49090909 C36.2828405,3.49090909 44.8460711,9.35569421 48.7200291,17.7942055 C51.3162914,15.9327025 54.504943,14.8363636 57.9512195,14.8363636 C61.406606,14.8363636 64.6030037,15.9385063 67.2039807,17.8083988 C70.7419634,13.8441414 75.9066709,11.3454545 81.6585366,11.3454545 C92.3270615,11.3454545 100.97561,19.9415873 100.97561,30.5454545 C100.97561,41.1493217 92.3270615,49.7454545 81.6585366,49.7454545 C75.9066709,49.7454545 70.7419634,47.2467677 67.2032166,43.2819008 C64.6030037,45.1524028 61.406606,46.2545455 57.9512195,46.2545455 C53.5589435,46.2545455 49.5851401,44.4737101 46.7208061,41.5988482 C42.3029602,48.0939348 34.8238733,52.3636364 26.3414634,52.3636364 C12.7633408,52.3636364 1.75609756,41.4231037 1.75609756,27.9272727 C1.75609756,14.4314418 12.7633408,3.49090909 26.3414634,3.49090909 Z" id="形状结合备份-4" fill="url(#linearGradient-12)" transform="translate(51.365854, 27.927273) rotate(-4.000000) translate(-51.365854, -27.927273) "></path>
                            </g>
                            <g id="叶子" transform="translate(72.612248, 20.277939) rotate(24.000000) translate(-72.612248, -20.277939) translate(63.612248, 11.777939)">
                                <g id="路径-10" transform="translate(0.855574, 0.031806)">
                                    <mask id="mask-14" fill="white">
                                        <use xlink:href="#path-13"></use>
                                    </mask>
                                    <use id="蒙版" fill="#008AFF" fill-rule="nonzero" transform="translate(8.247243, 7.682231) scale(-1, 1) rotate(102.000000) translate(-8.247243, -7.682231) " xlink:href="#path-13"></use>
                                    <path d="M13.5112059,2.77404727 C13.1897271,5.23201292 12.46811,7.13210919 11.3463548,8.47433607 C10.2245996,9.81656296 9.03641317,10.8658162 7.78179541,11.6220958 C10.4325041,10.3930704 12.0757294,9.10994266 12.7114713,7.77271268 C13.3472131,6.43548271 13.6137914,4.76926091 13.5112059,2.77404727 Z" fill="#A9D8FF" mask="url(#mask-14)"></path>
                                </g>
                            </g>
                        </g>
                    </g>
                </g>
            </g>
        </g>
    </g>
</svg>