<?xml version="1.0" encoding="UTF-8"?>
<svg width="160px" height="110px" viewBox="0 0 160 110" version="1.1" xmlns="http://www.w3.org/2000/svg" xmlns:xlink="http://www.w3.org/1999/xlink">
    <title>plan</title>
    <defs>
        <rect id="path-1" x="0" y="0" width="160" height="110"></rect>
        <rect id="path-3" x="0" y="0.486741342" width="160" height="110"></rect>
        <linearGradient x1="50%" y1="-32.8130387%" x2="50%" y2="78.8882452%" id="linearGradient-5">
            <stop stop-color="#E2E7EF" offset="0%"></stop>
            <stop stop-color="#E9EDF3" stop-opacity="0.991407274" offset="36.7797425%"></stop>
            <stop stop-color="#F6F7FA" stop-opacity="0" offset="100%"></stop>
        </linearGradient>
        <linearGradient x1="50%" y1="-15.38682%" x2="50%" y2="78.8882452%" id="linearGradient-6">
            <stop stop-color="#E2E7EF" offset="0%"></stop>
            <stop stop-color="#E9EDF3" stop-opacity="0.991407274" offset="36.7797425%"></stop>
            <stop stop-color="#F6F7FA" stop-opacity="0" offset="100%"></stop>
        </linearGradient>
        <linearGradient x1="35.6988383%" y1="5.04199562%" x2="75.9427611%" y2="100%" id="linearGradient-7">
            <stop stop-color="#D6E2F4" offset="0%"></stop>
            <stop stop-color="#E5EEFD" offset="46.4471564%"></stop>
            <stop stop-color="#FFFFFF" stop-opacity="0.386826308" offset="100%"></stop>
        </linearGradient>
        <rect id="path-8" x="39" y="23" width="60" height="63" rx="4"></rect>
        <filter x="-5.0%" y="-4.8%" width="110.0%" height="109.5%" filterUnits="objectBoundingBox" id="filter-9">
            <feGaussianBlur stdDeviation="2" in="SourceAlpha" result="shadowBlurInner1"></feGaussianBlur>
            <feOffset dx="0" dy="-2" in="shadowBlurInner1" result="shadowOffsetInner1"></feOffset>
            <feComposite in="shadowOffsetInner1" in2="SourceAlpha" operator="arithmetic" k2="-1" k3="1" result="shadowInnerInner1"></feComposite>
            <feColorMatrix values="0 0 0 0 0.631740127   0 0 0 0 0.789022581   0 0 0 0 0.884097777  0 0 0 1 0" type="matrix" in="shadowInnerInner1"></feColorMatrix>
        </filter>
        <path d="M47.0175901,27 L90.9958731,27 C92.1004303,27.0000223 92.9958508,27.8954428 92.9958508,29 C92.9958508,29.0013424 92.9958494,29.0026849 92.9958467,29.0040273 C92.9571561,48.2180578 92.9714728,57.8057017 93.0387969,57.766959 C93.5779179,68.8124877 94.540813,72.8463086 101.290802,80.1667983 C89.394106,84.991153 73.0927854,86.9708969 52.3868403,86.1060298 L52.3868401,86.1060323 C52.0798241,86.0932085 51.7798916,86.0098137 51.51032,85.8623199 C47.9937102,83.9382375 46.0337455,80.7387434 45.6304259,76.2638376 C45.4158588,66.431711 45.2116069,50.6830652 45.0176702,29.0179002 C45.0077852,27.9133761 45.8951637,27.0099673 46.9996878,27.0000801 C47.0056551,27.0000267 47.0116226,27 47.0175901,27 Z" id="path-10"></path>
        <filter x="-7.1%" y="-3.4%" width="111.7%" height="113.5%" filterUnits="objectBoundingBox" id="filter-11">
            <feMorphology radius="1" operator="erode" in="SourceAlpha" result="shadowSpreadOuter1"></feMorphology>
            <feOffset dx="0" dy="2" in="shadowSpreadOuter1" result="shadowOffsetOuter1"></feOffset>
            <feGaussianBlur stdDeviation="2" in="shadowOffsetOuter1" result="shadowBlurOuter1"></feGaussianBlur>
            <feColorMatrix values="0 0 0 0 0.155744094   0 0 0 0 0.280455527   0 0 0 0 0.453644241  0 0 0 1 0" type="matrix" in="shadowBlurOuter1"></feColorMatrix>
        </filter>
        <linearGradient x1="57.1325803%" y1="42.7776826%" x2="50%" y2="52.4938319%" id="linearGradient-12">
            <stop stop-color="#E2E7EF" offset="0%"></stop>
            <stop stop-color="#E9EDF3" stop-opacity="0.991407274" offset="36.7797425%"></stop>
            <stop stop-color="#F6F7FA" stop-opacity="0" offset="100%"></stop>
        </linearGradient>
        <linearGradient x1="50%" y1="0%" x2="50%" y2="93.6243589%" id="linearGradient-13">
            <stop stop-color="#E2E7EF" offset="0%"></stop>
            <stop stop-color="#E9EDF3" stop-opacity="0.991407274" offset="36.7797425%"></stop>
            <stop stop-color="#F6F7FA" stop-opacity="0" offset="100%"></stop>
        </linearGradient>
        <path d="M80,13 C82.209139,13 84,14.790861 84,17 L84,17 L92,17 C93.1045695,17 94,17.8954305 94,19 L94,24.1897621 C94,25.2943316 93.1045695,26.1897621 92,26.1897621 L67,26.1897621 C65.8954305,26.1897621 65,25.2943316 65,24.1897621 L65,19 C65,17.8954305 65.8954305,17 67,17 L76,17 C76,14.790861 77.790861,13 80,13 Z" id="path-14"></path>
        <filter x="-1.7%" y="-3.8%" width="103.4%" height="115.2%" filterUnits="objectBoundingBox" id="filter-15">
            <feMorphology radius="0.5" operator="erode" in="SourceAlpha" result="shadowSpreadOuter1"></feMorphology>
            <feOffset dx="0" dy="1" in="shadowSpreadOuter1" result="shadowOffsetOuter1"></feOffset>
            <feGaussianBlur stdDeviation="0.5" in="shadowOffsetOuter1" result="shadowBlurOuter1"></feGaussianBlur>
            <feColorMatrix values="0 0 0 0 0.150550984   0 0 0 0 0.212465706   0 0 0 0 0.318896529  0 0 0 0.5 0" type="matrix" in="shadowBlurOuter1"></feColorMatrix>
        </filter>
    </defs>
    <g id="Perfma-Design_PC组件库-" stroke="none" stroke-width="1" fill="none" fill-rule="evenodd">
        <g id="空页" transform="translate(-463.000000, -1310.000000)">
            <g id="暂无计划" transform="translate(463.000000, 1310.000000)">
                <mask id="mask-2" fill="white">
                    <use xlink:href="#path-1"></use>
                </mask>
                <g id="蒙版"></g>
                <g id="编组-10" mask="url(#mask-2)">
                    <g transform="translate(4.000000, -1.000000)">
                        <g id="编组-25" stroke-width="1" fill-rule="evenodd">
                            <mask id="mask-4" fill="white">
                                <use xlink:href="#path-3"></use>
                            </mask>
                            <g id="蒙版"></g>
                            <g mask="url(#mask-4)">
                                <g transform="translate(10.000000, -4.000000)">
                                    <g id="编组-22备份-2" stroke="none" stroke-width="1" fill="none" fill-rule="evenodd" transform="translate(7.213277, 0.000000)">
                                        <circle id="椭圆形备份-11" fill="url(#linearGradient-5)" cx="14.3209877" cy="50.5591203" r="14.3209877"></circle>
                                        <path d="M72.8027923,8.05555556 C82.9368133,8.05555556 91.6659793,14.070455 95.6149868,22.7249502 C98.2618141,20.8156553 101.512117,19.691358 105.025015,19.691358 C113.922935,19.691358 121.136126,26.9045482 121.136126,35.8024691 C121.136126,44.7003901 113.922935,51.9135802 105.025015,51.9135802 C100.547807,51.9135802 96.4971469,50.087311 93.5773392,47.1390767 C89.07297,53.8003794 81.4492234,58.1790123 72.8027923,58.1790123 C58.9615819,58.1790123 47.7410639,46.9584943 47.7410639,33.117284 C47.7410639,19.2760736 58.9615819,8.05555556 72.8027923,8.05555556 Z" id="形状结合备份-6" fill="url(#linearGradient-6)" transform="translate(84.438595, 33.117284) rotate(13.000000) translate(-84.438595, -33.117284) "></path>
                                        <polygon id="星形备份-7" fill="#DDE3EE" points="103.197582 61.9332901 102.261597 63.6446707 101.325612 61.9332901 99.6142309 60.997305 101.325612 60.0613199 102.261597 58.3499393 103.197582 60.0613199 104.908962 60.997305"></polygon>
                                        <polygon id="星形备份-8" fill="#DDE3EE" points="30.4834869 18.1296457 28.9680824 20.9004523 27.452678 18.1296457 24.6818713 16.6142412 27.452678 15.0988367 28.9680824 12.3280301 30.4834869 15.0988367 33.2542935 16.6142412"></polygon>
                                        <polygon id="星形备份-9" fill="#DDE3EE" opacity="0.5" points="34.6696735 23.5338813 33.7336884 25.2452619 32.7977033 23.5338813 31.0863227 22.5978962 32.7977033 21.6619111 33.7336884 19.9505305 34.6696735 21.6619111 36.3810541 22.5978962"></polygon>
                                    </g>
                                    <g id="矩形" stroke="none" fill="none" opacity="0.80279541">
                                        <use fill="url(#linearGradient-7)" fill-rule="evenodd" xlink:href="#path-8"></use>
                                        <use fill="black" fill-opacity="1" filter="url(#filter-9)" xlink:href="#path-8"></use>
                                    </g>
                                    <g id="矩形备份-8" stroke="none" fill="none">
                                        <use fill="black" fill-opacity="1" filter="url(#filter-11)" xlink:href="#path-10"></use>
                                        <use fill="#FFFFFF" fill-rule="evenodd" xlink:href="#path-10"></use>
                                    </g>
                                    <rect id="矩形" stroke="none" fill="#E1E6F0" fill-rule="evenodd" x="59" y="39" width="29" height="4" rx="2"></rect>
                                    <rect id="矩形" stroke="#C5CEE0" stroke-width="1" fill="none" x="50.5" y="38.5" width="5" height="5" rx="1"></rect>
                                    <rect id="矩形备份-35" stroke="#C5CEE0" stroke-width="1" fill="none" x="50.5" y="48.5" width="5" height="5" rx="1"></rect>
                                    <rect id="矩形备份-36" stroke="#C5CEE0" stroke-width="1" fill="none" x="50.5" y="58.5" width="5" height="5" rx="1"></rect>
                                    <rect id="矩形备份-26" stroke="none" fill="#E1E6F0" fill-rule="evenodd" x="59" y="49" width="23" height="4" rx="2"></rect>
                                    <rect id="矩形备份-37" stroke="none" fill="#E1E6F0" fill-rule="evenodd" x="59" y="59" width="23" height="4" rx="2"></rect>
                                    <g id="编组-23备份-2" stroke="none" stroke-width="1" fill="none" fill-rule="evenodd" transform="translate(0.000000, 66.670231)">
                                        <path d="M104.327475,20.6235264 C121.63727,20.6235264 136.659899,30.4268941 144.157722,44.790193 L64.4972279,44.790193 C71.9950509,30.4268941 87.0176793,20.6235264 104.327475,20.6235264 Z" id="路径备份-4" fill="url(#linearGradient-12)"></path>
                                        <path d="M26.8518519,3.58024691 C36.9858729,3.58024691 45.7150389,9.59514633 49.6640463,18.2496416 C52.3108736,16.3403466 55.561177,15.2160494 59.0740741,15.2160494 C62.5963903,15.2160494 65.8547028,16.3463839 68.5060673,18.2641087 C72.112867,14.1983288 77.3775488,11.6358025 83.2407407,11.6358025 C94.1159775,11.6358025 102.932099,20.4519238 102.932099,31.3271605 C102.932099,42.2023972 94.1159775,51.0185185 83.2407407,51.0185185 C77.3775488,51.0185185 72.112867,48.4559922 68.5055599,44.3898042 C65.8547028,46.3079371 62.5963903,47.4382716 59.0740741,47.4382716 C54.5968662,47.4382716 50.5462064,45.6120024 47.6263988,42.663768 C43.1220296,49.3250708 35.498283,53.7037037 26.8518519,53.7037037 C13.0106415,53.7037037 1.79012346,42.4831857 1.79012346,28.6419753 C1.79012346,14.8007649 13.0106415,3.58024691 26.8518519,3.58024691 Z" id="形状结合备份-7" fill="url(#linearGradient-13)" transform="translate(52.361111, 28.641975) rotate(-4.000000) translate(-52.361111, -28.641975) "></path>
                                    </g>
                                </g>
                            </g>
                        </g>
                        <g id="形状结合">
                            <use fill="black" fill-opacity="1" filter="url(#filter-15)" xlink:href="#path-14"></use>
                            <use fill="#008AFF" fill-rule="evenodd" xlink:href="#path-14"></use>
                        </g>
                    </g>
                </g>
            </g>
        </g>
    </g>
</svg>