<?xml version="1.0" encoding="UTF-8"?>
<svg width="160px" height="110px" viewBox="0 0 160 110" version="1.1" xmlns="http://www.w3.org/2000/svg" xmlns:xlink="http://www.w3.org/1999/xlink">
    <title>search</title>
    <defs>
        <rect id="path-1" x="0" y="0" width="160" height="110"></rect>
        <rect id="path-3" x="0" y="0.977851781" width="160" height="109.009009"></rect>
        <linearGradient x1="50%" y1="-32.8130387%" x2="50%" y2="78.8882452%" id="linearGradient-5">
            <stop stop-color="#E2E7EF" offset="0%"></stop>
            <stop stop-color="#E9EDF3" stop-opacity="0.991407274" offset="36.7797425%"></stop>
            <stop stop-color="#F6F7FA" stop-opacity="0" offset="100%"></stop>
        </linearGradient>
        <linearGradient x1="50%" y1="-15.38682%" x2="50%" y2="78.8882452%" id="linearGradient-6">
            <stop stop-color="#E2E7EF" offset="0%"></stop>
            <stop stop-color="#E9EDF3" stop-opacity="0.991407274" offset="36.7797425%"></stop>
            <stop stop-color="#F6F7FA" stop-opacity="0" offset="100%"></stop>
        </linearGradient>
        <linearGradient x1="-45.2591488%" y1="64.8727722%" x2="124.862464%" y2="64.8727722%" id="linearGradient-7">
            <stop stop-color="#A1BCD0" offset="0%"></stop>
            <stop stop-color="#B9C8D6" offset="100%"></stop>
        </linearGradient>
        <linearGradient x1="34.2329692%" y1="5.04199562%" x2="78.6018941%" y2="100%" id="linearGradient-8">
            <stop stop-color="#D6E2F4" offset="0%"></stop>
            <stop stop-color="#E5EEFD" offset="46.4471564%"></stop>
            <stop stop-color="#FFFFFF" offset="100%"></stop>
        </linearGradient>
        <circle id="path-9" cx="30" cy="30" r="30"></circle>
        <filter x="-10.0%" y="-10.0%" width="120.0%" height="120.0%" filterUnits="objectBoundingBox" id="filter-10">
            <feGaussianBlur stdDeviation="4" in="SourceAlpha" result="shadowBlurInner1"></feGaussianBlur>
            <feOffset dx="0" dy="-4" in="shadowBlurInner1" result="shadowOffsetInner1"></feOffset>
            <feComposite in="shadowOffsetInner1" in2="SourceAlpha" operator="arithmetic" k2="-1" k3="1" result="shadowInnerInner1"></feComposite>
            <feColorMatrix values="0 0 0 0 0.860706055   0 0 0 0 0.928934422   0 0 0 0 0.970177581  0 0 0 1 0" type="matrix" in="shadowInnerInner1"></feColorMatrix>
        </filter>
        <circle id="path-11" cx="30" cy="30" r="22"></circle>
        <filter x="-8.0%" y="-5.7%" width="115.9%" height="115.9%" filterUnits="objectBoundingBox" id="filter-12">
            <feOffset dx="0" dy="1" in="SourceAlpha" result="shadowOffsetOuter1"></feOffset>
            <feGaussianBlur stdDeviation="1" in="shadowOffsetOuter1" result="shadowBlurOuter1"></feGaussianBlur>
            <feColorMatrix values="0 0 0 0 0.664034099   0 0 0 0 0.752357947   0 0 0 0 0.804698004  0 0 0 0.758295659 0" type="matrix" in="shadowBlurOuter1"></feColorMatrix>
        </filter>
        <linearGradient x1="57.1325803%" y1="42.9072282%" x2="50%" y2="52.4491004%" id="linearGradient-13">
            <stop stop-color="#E2E7EF" offset="0%"></stop>
            <stop stop-color="#E9EDF3" stop-opacity="0.991407274" offset="36.7797425%"></stop>
            <stop stop-color="#F6F7FA" stop-opacity="0" offset="100%"></stop>
        </linearGradient>
        <linearGradient x1="50%" y1="0%" x2="50%" y2="93.6243589%" id="linearGradient-14">
            <stop stop-color="#E2E7EF" offset="0%"></stop>
            <stop stop-color="#E9EDF3" stop-opacity="0.991407274" offset="36.7797425%"></stop>
            <stop stop-color="#F6F7FA" stop-opacity="0" offset="100%"></stop>
        </linearGradient>
    </defs>
    <g id="Perfma-Design_PC组件库-" stroke="none" stroke-width="1" fill="none" fill-rule="evenodd">
        <g id="空页" transform="translate(-467.000000, -1041.000000)">
            <g id="搜索相关" transform="translate(467.000000, 1041.000000)">
                <mask id="mask-2" fill="white">
                    <use xlink:href="#path-1"></use>
                </mask>
                <g id="蒙版"></g>
                <g id="编组-8" mask="url(#mask-2)">
                    <g transform="translate(0.000000, -7.000000)">
                        <g id="编组-27" stroke-width="1" fill="none" transform="translate(0.000000, 7.000000)">
                            <mask id="mask-4" fill="white">
                                <use xlink:href="#path-3"></use>
                            </mask>
                            <g id="蒙版"></g>
                            <g mask="url(#mask-4)">
                                <g transform="translate(9.000000, 3.972973)">
                                    <g id="编组-22备份-4" transform="translate(12.583648, 0.000000)">
                                        <ellipse id="椭圆形备份-11" fill="url(#linearGradient-5)" cx="14.3209877" cy="39.6866602" rx="14.3209877" ry="14.1919697"></ellipse>
                                        <path d="M79.6422985,7.98298298 C89.7758733,7.98298298 98.5047168,13.9431692 102.453971,22.519088 C105.1005,20.628408 108.35118,19.5139584 111.864521,19.5139584 C120.762442,19.5139584 127.975632,26.6621648 127.975632,35.4799244 C127.975632,44.2976839 120.762442,51.4458903 111.864521,51.4458903 C107.387041,51.4458903 103.336162,49.6358544 100.416314,46.7138686 C95.9131958,53.3152817 88.2891376,57.6548771 79.6422985,57.6548771 C65.8010881,57.6548771 54.5805701,46.5354448 54.5805701,32.81893 C54.5805701,19.1024152 65.8010881,7.98298298 79.6422985,7.98298298 Z" id="形状结合备份-6" fill="url(#linearGradient-6)" transform="translate(91.278101, 32.818930) rotate(13.000000) translate(-91.278101, -32.818930) "></path>
                                        <polygon id="星形备份-7" fill="#DDE3EE" points="101.407458 51.8453581 100.471473 53.5413208 99.535488 51.8453581 97.8241075 50.9178053 99.535488 49.9902525 100.471473 48.2942898 101.407458 49.9902525 103.118839 50.9178053"></polygon>
                                        <polygon id="星形备份-8" fill="#DDE3EE" points="27.5328696 11.3053212 26.0174652 14.0511656 24.5020607 11.3053212 21.7312541 9.80356901 24.5020607 8.30181684 26.0174652 5.55597243 27.5328696 8.30181684 30.3036762 9.80356901"></polygon>
                                        <polygon id="星形备份-9" fill="#DDE3EE" opacity="0.5" points="34.7190562 14.6788881 33.7830711 16.3748508 32.847086 14.6788881 31.1357055 13.7513352 32.847086 12.8237824 33.7830711 11.1278197 34.7190562 12.8237824 36.4304368 13.7513352"></polygon>
                                    </g>
                                    <g id="编组-2备份-10" transform="translate(21.481481, 27.528725)"></g>
                                    <g id="编组-23备份-4" transform="translate(0.000000, 53.878630)"></g>
                                </g>
                            </g>
                        </g>
                        <g id="编组-65" stroke-width="1" fill="none" transform="translate(83.747503, 49.282168) rotate(21.000000) translate(-83.747503, -49.282168) translate(53.747503, 8.282168)">
                            <path d="M26.4197531,50.5864198 L34.4753086,50.5864198 L35.9691537,76.4944937 C34.4380681,78.3030067 32.8555761,79.3956127 31.2216775,79.7723117 C29.587779,80.1490107 27.1413379,80.7924442 23.8823542,81.7026124 L26.4197531,50.5864198 Z" id="矩形备份-32" fill="url(#linearGradient-7)"></path>
                            <path d="M25.5121518,64.505285 C27.7021074,64.9762851 29.3110911,65.2097656 30.3391029,65.2057265 C31.3609707,65.2017116 32.9535218,64.9763692 35.1167562,64.5296994 C35.6576424,64.4179822 36.1866612,64.765924 36.2983461,65.306817 C36.3113953,65.3700149 36.3182968,65.4343275 36.3189541,65.4988552 L36.4508173,78.4452866 L36.4508173,78.4452866 C34.1382182,79.3890507 31.9506965,80.1713523 29.888252,80.7921914 C27.8258076,81.4130305 25.7102928,81.7990933 23.5417077,81.9503797 L24.3029496,65.4368718 C24.3283903,64.8851781 24.7962435,64.4585584 25.3479376,64.4839905 C25.4031703,64.4865366 25.4580966,64.4936592 25.5121518,64.505285 Z" id="矩形备份-33" fill="#008AFF"></path>
                            <g id="椭圆形备份-12">
                                <use fill="url(#linearGradient-8)" fill-rule="evenodd" xlink:href="#path-9"></use>
                                <use fill="black" fill-opacity="1" filter="url(#filter-10)" xlink:href="#path-9"></use>
                            </g>
                            <g id="椭圆形备份-13" opacity="0.835732596">
                                <use fill="black" fill-opacity="1" filter="url(#filter-12)" xlink:href="#path-11"></use>
                                <use fill="#FFFFFF" fill-rule="evenodd" xlink:href="#path-11"></use>
                            </g>
                        </g>
                        <path d="M113.327475,86.2893318 C130.63727,86.2893318 145.659899,96.0043809 153.157722,110.238281 L73.4972279,110.238281 C80.9950509,96.0043809 96.0176793,86.2893318 113.327475,86.2893318 Z" id="路径备份-4" fill="url(#linearGradient-13)"></path>
                        <path d="M35.8518519,69.3995954 C45.9854267,69.3995954 54.7142701,75.3597816 58.6635246,83.9357004 C61.3100535,82.0450204 64.5607338,80.9305708 68.0740741,80.9305708 C71.5963903,80.9305708 74.8547028,82.0507221 77.5060673,83.9511701 C81.1124895,79.922201 86.3773386,77.3825784 92.2407407,77.3825784 C103.115977,77.3825784 111.932099,86.1192751 111.932099,96.8965368 C111.932099,107.673798 103.115977,116.410495 92.2407407,116.410495 C86.3773386,116.410495 81.1124895,113.870873 77.505172,109.841066 C74.8547028,111.742351 71.5963903,112.862503 68.0740741,112.862503 C63.5965946,112.862503 59.5457149,111.052467 56.6258674,108.130481 C52.1227492,114.731894 44.498691,119.07149 35.8518519,119.07149 C22.0106415,119.07149 10.7901235,107.952057 10.7901235,94.2355425 C10.7901235,80.5190276 22.0106415,69.3995954 35.8518519,69.3995954 Z" id="形状结合备份-7" fill="url(#linearGradient-14)" transform="translate(61.361111, 94.235542) rotate(-4.000000) translate(-61.361111, -94.235542) "></path>
                    </g>
                </g>
            </g>
        </g>
    </g>
</svg>