<?xml version="1.0" encoding="UTF-8"?>
<svg width="160px" height="110px" viewBox="0 0 160 110" version="1.1" xmlns="http://www.w3.org/2000/svg" xmlns:xlink="http://www.w3.org/1999/xlink">
    <title>message</title>
    <defs>
        <rect id="path-1" x="0" y="0" width="160" height="110"></rect>
        <rect id="path-3" x="0" y="0" width="160" height="110"></rect>
        <linearGradient x1="50%" y1="-32.8130387%" x2="50%" y2="78.8882452%" id="linearGradient-5">
            <stop stop-color="#E2E7EF" offset="0%"></stop>
            <stop stop-color="#E9EDF3" stop-opacity="0.991407274" offset="36.7797425%"></stop>
            <stop stop-color="#F6F7FA" stop-opacity="0" offset="100%"></stop>
        </linearGradient>
        <linearGradient x1="50%" y1="-15.38682%" x2="50%" y2="78.8882452%" id="linearGradient-6">
            <stop stop-color="#E2E7EF" offset="0%"></stop>
            <stop stop-color="#E9EDF3" stop-opacity="0.991407274" offset="36.7797425%"></stop>
            <stop stop-color="#F6F7FA" stop-opacity="0" offset="100%"></stop>
        </linearGradient>
        <linearGradient x1="34.2329692%" y1="20.4288189%" x2="78.6018941%" y2="82.8875597%" id="linearGradient-7">
            <stop stop-color="#D6E2F4" offset="0%"></stop>
            <stop stop-color="#E5EEFD" offset="46.4471564%"></stop>
            <stop stop-color="#FFFFFF" offset="100%"></stop>
        </linearGradient>
        <path d="M7.84615492,0.610734147 C3.51483214,0.615597701 0.00480576979,4.16861646 0,8.5529897 L0,39.874285 C0,44.2531152 3.5203081,47.8165405 7.84615476,47.8165405 L25.0710799,47.8165405 L32.1500523,54.9839877 C33.1710986,56.0182017 34.8270705,56.0187395 35.8487624,54.9851874 L42.9289201,47.8165405 L60.1538452,47.8165405 C64.4796919,47.8165405 68,44.2531152 68,39.874285 L68,8.55298967 C68,4.17415946 64.4796919,0.610734147 60.1538452,0.610734147 L7.84615492,0.610734147 Z" id="path-8"></path>
        <filter x="-5.9%" y="-7.3%" width="111.8%" height="114.5%" filterUnits="objectBoundingBox" id="filter-9">
            <feGaussianBlur stdDeviation="3" in="SourceAlpha" result="shadowBlurInner1"></feGaussianBlur>
            <feOffset dx="0" dy="-2" in="shadowBlurInner1" result="shadowOffsetInner1"></feOffset>
            <feComposite in="shadowOffsetInner1" in2="SourceAlpha" operator="arithmetic" k2="-1" k3="1" result="shadowInnerInner1"></feComposite>
            <feColorMatrix values="0 0 0 0 0.806853117   0 0 0 0 0.888052759   0 0 0 0 0.937136885  0 0 0 1 0" type="matrix" in="shadowInnerInner1"></feColorMatrix>
        </filter>
        <linearGradient x1="57.1325803%" y1="42.7776826%" x2="50%" y2="52.4938319%" id="linearGradient-10">
            <stop stop-color="#E2E7EF" offset="0%"></stop>
            <stop stop-color="#E9EDF3" stop-opacity="0.991407274" offset="36.7797425%"></stop>
            <stop stop-color="#F6F7FA" stop-opacity="0" offset="100%"></stop>
        </linearGradient>
        <linearGradient x1="50%" y1="0%" x2="50%" y2="93.6243589%" id="linearGradient-11">
            <stop stop-color="#E2E7EF" offset="0%"></stop>
            <stop stop-color="#E9EDF3" stop-opacity="0.991407274" offset="36.7797425%"></stop>
            <stop stop-color="#F6F7FA" stop-opacity="0" offset="100%"></stop>
        </linearGradient>
    </defs>
    <g id="Perfma-Design_PC组件库-" stroke="none" stroke-width="1" fill="none" fill-rule="evenodd">
        <g id="空页" transform="translate(-779.000000, -780.000000)">
            <g id="编组-11" transform="translate(779.000000, 780.000000)">
                <mask id="mask-2" fill="white">
                    <use xlink:href="#path-1"></use>
                </mask>
                <g id="蒙版"></g>
                <g mask="url(#mask-2)">
                    <g id="消息相关">
                        <mask id="mask-4" fill="white">
                            <use xlink:href="#path-3"></use>
                        </mask>
                        <g id="蒙版"></g>
                        <g id="编组-13" mask="url(#mask-4)">
                            <g transform="translate(16.000000, 0.000000)" id="编组-18备份-8">
                                <g transform="translate(0.185185, 0.000000)">
                                    <g id="编组-18" transform="translate(-0.000000, 0.443557)">
                                        <circle id="椭圆形备份-8" fill="url(#linearGradient-5)" cx="13.8781239" cy="34.1243444" r="13.8271605"></circle>
                                        <path d="M74.6643022,7.77777778 C84.4484113,7.77777778 92.876237,13.5847173 96.689328,21.9401452 C99.245334,20.0979061 102.383601,19.0123457 105.775413,19.0123457 C114.366509,19.0123457 121.330969,25.9768051 121.330969,34.5679012 C121.330969,43.1589973 114.366509,50.1234568 105.775413,50.1234568 C101.452715,50.1234568 97.5418331,48.3602629 94.7227266,45.5138347 C90.3735585,51.9451255 83.0126481,56.1728395 74.6643022,56.1728395 C61.3003749,56.1728395 50.4667714,45.3392359 50.4667714,31.9753086 C50.4667714,18.6113814 61.3003749,7.77777778 74.6643022,7.77777778 Z" id="形状结合备份-3" fill="url(#linearGradient-6)" transform="translate(85.898870, 31.975309) rotate(13.000000) translate(-85.898870, -31.975309) "></path>
                                        <polygon id="星形备份-6" fill="#DDE3EE" points="105.82581 57.698894 104.922101 59.3512614 104.018391 57.698894 102.366023 56.7951842 104.018391 55.8914745 104.922101 54.239107 105.82581 55.8914745 107.478178 56.7951842"></polygon>
                                        <polygon id="星形备份-3" fill="#DDE3EE" points="21.276399 11.8429273 19.8132499 14.5181889 18.3501007 11.8429273 15.6748392 10.3797782 18.3501007 8.91662907 19.8132499 6.2413675 21.276399 8.91662907 23.9516606 10.3797782"></polygon>
                                        <polygon id="星形备份-5" fill="#DDE3EE" opacity="0.5" points="28.2147861 16.1297756 27.3110763 17.782143 26.4073666 16.1297756 24.7549991 15.2260658 26.4073666 14.322356 27.3110763 12.6699886 28.2147861 14.322356 29.8671535 15.2260658"></polygon>
                                    </g>
                                </g>
                            </g>
                        </g>
                    </g>
                    <g id="interactive" transform="translate(45.000000, 15.000000)">
                        <g id="形状">
                            <use fill="url(#linearGradient-7)" fill-rule="evenodd" xlink:href="#path-8"></use>
                            <use fill="black" fill-opacity="1" filter="url(#filter-9)" xlink:href="#path-8"></use>
                        </g>
                        <path d="M18.778491,27.9077103 C16.6164422,27.9077103 14.8554136,26.1251124 14.8554136,23.9365826 C14.8554136,21.7480527 16.6164422,19.9654548 18.778491,19.9654548 C20.9405398,19.9654548 22.7015684,21.7480527 22.7015684,23.9365826 C22.7015684,26.1251124 20.9405398,27.9077103 18.778491,27.9077103 Z" id="路径" fill="#008AFF"></path>
                        <path d="M30.5477232,23.9365826 C30.5477232,21.7480527 32.3087517,19.9654548 34.4708006,19.9654548 C36.6328494,19.9654548 38.3938779,21.7480527 38.3938779,23.9365826 C38.3938779,26.1251124 36.6328494,27.9077103 34.4708006,27.9077103 C32.3087517,27.9077103 30.5477232,26.1251124 30.5477232,23.9365826 Z" id="路径" fill="#008AFF"></path>
                        <path d="M50.1631101,27.9077103 C48.0010613,27.9077103 46.2400327,26.1251124 46.2400327,23.9365826 C46.2400327,21.7480527 48.0010613,19.9654548 50.1631101,19.9654548 C52.3251589,19.9654548 54.0861875,21.7480527 54.0861875,23.9365826 C54.0861875,26.1251124 52.3251589,27.9077103 50.1631101,27.9077103 Z" id="路径" fill="#008AFF"></path>
                    </g>
                    <path d="M111.729976,82.99879 C128.442882,82.99879 142.947488,92.4641106 150.186766,106.332123 L73.2731856,106.332123 C80.512463,92.4641106 95.0170697,82.99879 111.729976,82.99879 Z" id="路径备份-3" fill="url(#linearGradient-10)"></path>
                    <path d="M36.9259259,66.5432099 C46.710035,66.5432099 55.1378607,72.3501494 58.9509518,80.7055773 C61.5069577,78.8633382 64.6452242,77.7777778 68.037037,77.7777778 C71.4381806,77.7777778 74.584381,78.8693191 77.144436,80.7211995 C80.6269697,76.7947844 85.7097769,74.3209877 91.3703704,74.3209877 C101.870599,74.3209877 110.382716,82.8331048 110.382716,93.3333333 C110.382716,103.833562 101.870599,112.345679 91.3703704,112.345679 C85.7093651,112.345679 80.6262302,109.871522 77.1433134,105.945557 C74.5835565,107.797634 71.437735,108.888889 68.037037,108.888889 C63.7143389,108.888889 59.8034568,107.125695 56.9843503,104.279267 C52.6351822,110.710558 45.2742718,114.938272 36.9259259,114.938272 C23.5619986,114.938272 12.7283951,104.104668 12.7283951,90.7407407 C12.7283951,77.3768135 23.5619986,66.5432099 36.9259259,66.5432099 Z" id="形状结合备份-5" fill="url(#linearGradient-11)" transform="translate(61.555556, 90.740741) rotate(-4.000000) translate(-61.555556, -90.740741) "></path>
                </g>
            </g>
        </g>
    </g>
</svg>