<?xml version="1.0" encoding="UTF-8"?>
<svg width="160px" height="110px" viewBox="0 0 160 110" version="1.1" xmlns="http://www.w3.org/2000/svg" xmlns:xlink="http://www.w3.org/1999/xlink">
    <title>network</title>
    <defs>
        <rect id="path-1" x="0" y="0.495495495" width="160" height="109.009009"></rect>
        <linearGradient x1="50%" y1="-32.8130387%" x2="50%" y2="78.8882452%" id="linearGradient-3">
            <stop stop-color="#E2E7EF" offset="0%"></stop>
            <stop stop-color="#E9EDF3" stop-opacity="0.991407274" offset="36.7797425%"></stop>
            <stop stop-color="#F6F7FA" stop-opacity="0" offset="100%"></stop>
        </linearGradient>
        <linearGradient x1="50%" y1="-15.38682%" x2="50%" y2="78.8882452%" id="linearGradient-4">
            <stop stop-color="#E2E7EF" offset="0%"></stop>
            <stop stop-color="#E9EDF3" stop-opacity="0.991407274" offset="36.7797425%"></stop>
            <stop stop-color="#F6F7FA" stop-opacity="0" offset="100%"></stop>
        </linearGradient>
        <linearGradient x1="57.1325803%" y1="42.9072282%" x2="50%" y2="52.4491004%" id="linearGradient-5">
            <stop stop-color="#E2E7EF" offset="0%"></stop>
            <stop stop-color="#E9EDF3" stop-opacity="0.991407274" offset="36.7797425%"></stop>
            <stop stop-color="#F6F7FA" stop-opacity="0" offset="100%"></stop>
        </linearGradient>
        <path d="M40.5493714,68.7117192 C44.8567564,68.7692154 49.4380104,67.3777214 49.4380104,65.4066763 C49.4380104,62.117441 45.5869728,61.2844225 40.3804261,61.2844225 C35.1738795,61.2844225 31.3687796,62.1251111 31.3687796,65.5048245 C31.3687796,67.4758696 36.2419864,68.654223 40.5493714,68.7117192 Z" id="path-6"></path>
        <filter x="-11.1%" y="-26.9%" width="122.1%" height="153.8%" filterUnits="objectBoundingBox" id="filter-7">
            <feGaussianBlur stdDeviation="1" in="SourceAlpha" result="shadowBlurInner1"></feGaussianBlur>
            <feOffset dx="0" dy="-2" in="shadowBlurInner1" result="shadowOffsetInner1"></feOffset>
            <feComposite in="shadowOffsetInner1" in2="SourceAlpha" operator="arithmetic" k2="-1" k3="1" result="shadowInnerInner1"></feComposite>
            <feColorMatrix values="0 0 0 0 0   0 0 0 0 0   0 0 0 0 0  0 0 0 0.5 0" type="matrix" in="shadowInnerInner1"></feColorMatrix>
        </filter>
        <linearGradient x1="0%" y1="64.8727722%" x2="100%" y2="64.8727722%" id="linearGradient-8">
            <stop stop-color="#E7E7E9" offset="0%"></stop>
            <stop stop-color="#B0B8C7" offset="100%"></stop>
        </linearGradient>
        <linearGradient x1="26.1770069%" y1="64.5158603%" x2="100%" y2="67.9351779%" id="linearGradient-9">
            <stop stop-color="#D6E2F4" offset="0%"></stop>
            <stop stop-color="#ECF3FF" offset="61.4463214%"></stop>
            <stop stop-color="#FFFFFF" offset="100%"></stop>
        </linearGradient>
        <path d="M36.2760888,48.4946605 C50.170998,48.758295 68.1812128,37.9588283 68.1521498,27.5508837 C68.1230164,17.1429391 53.3200419,10.8517639 36.170715,10.8038973 C19.021388,10.7565542 5.18384163,17.206486 5.21289402,27.6144306 C5.24203802,38.0223751 22.3811796,48.231026 36.2760888,48.4946605 Z" id="path-10"></path>
        <filter x="-6.4%" y="-10.6%" width="112.7%" height="121.2%" filterUnits="objectBoundingBox" id="filter-11">
            <feGaussianBlur stdDeviation="3" in="SourceAlpha" result="shadowBlurInner1"></feGaussianBlur>
            <feOffset dx="2" dy="-2" in="shadowBlurInner1" result="shadowOffsetInner1"></feOffset>
            <feComposite in="shadowOffsetInner1" in2="SourceAlpha" operator="arithmetic" k2="-1" k3="1" result="shadowInnerInner1"></feComposite>
            <feColorMatrix values="0 0 0 0 0.631740127   0 0 0 0 0.789022581   0 0 0 0 0.884097777  0 0 0 1 0" type="matrix" in="shadowInnerInner1"></feColorMatrix>
        </filter>
        <linearGradient x1="87.151227%" y1="57.3287264%" x2="-5.99362225%" y2="41.9753326%" id="linearGradient-12">
            <stop stop-color="#CED9EB" offset="0%"></stop>
            <stop stop-color="#E5EEFD" offset="46.4471564%"></stop>
            <stop stop-color="#FFFFFF" offset="100%"></stop>
        </linearGradient>
        <path d="M32.8972133,38.3709786 C47.5675862,38.7410154 63.4146588,31.0184062 62.9943604,23.5676609 C62.5740619,16.1169157 48.5227394,9.85665177 32.3015829,9.81141975 C16.0804264,9.76659513 2.89005283,17.1952437 3.2510603,23.7812165 C3.42175408,33.6540855 18.2268405,38.0009418 32.8972133,38.3709786 Z" id="path-13"></path>
        <linearGradient x1="54.6131083%" y1="53.029236%" x2="45.8511189%" y2="59.8586803%" id="linearGradient-15">
            <stop stop-color="#AFC3D0" offset="0%"></stop>
            <stop stop-color="#FBFBFB" offset="100%"></stop>
        </linearGradient>
        <linearGradient x1="50%" y1="0%" x2="50%" y2="93.6243589%" id="linearGradient-16">
            <stop stop-color="#E2E7EF" offset="0%"></stop>
            <stop stop-color="#E9EDF3" stop-opacity="0.991407274" offset="36.7797425%"></stop>
            <stop stop-color="#F6F7FA" stop-opacity="0" offset="100%"></stop>
        </linearGradient>
    </defs>
    <g id="Perfma-Design_PC组件库-" stroke="none" stroke-width="1" fill="none" fill-rule="evenodd">
        <g id="空页" transform="translate(-164.000000, -788.000000)">
            <g id="网络相关" transform="translate(164.000000, 788.000000)">
                <mask id="mask-2" fill="white">
                    <use xlink:href="#path-1"></use>
                </mask>
                <g id="蒙版"></g>
                <g id="编组-9" mask="url(#mask-2)">
                    <g transform="translate(5.000000, -1.981982)">
                        <g id="编组-5" stroke-width="1" fill="none" transform="translate(3.678443, 3.963964)">
                            <ellipse id="椭圆形" fill="url(#linearGradient-3)" cx="14.5" cy="44.0061937" rx="14.5" ry="14.3693694"></ellipse>
                            <path d="M83.6815772,7.64563489 C93.9422735,7.64563489 102.780554,13.6808549 106.778924,22.3645883 C109.458309,20.4490239 112.749484,19.3207475 116.306577,19.3207475 C125.315722,19.3207475 132.619077,26.5583065 132.619077,35.486288 C132.619077,44.4142696 125.315722,51.6518286 116.306577,51.6518286 C111.773469,51.6518286 107.672228,49.8194418 104.715933,46.8613216 C100.155541,53.5447693 92.4363206,57.9384277 83.6815772,57.9384277 C69.6673517,57.9384277 58.3065772,46.6800025 58.3065772,32.7920313 C58.3065772,18.90406 69.6673517,7.64563489 83.6815772,7.64563489 Z" id="形状结合" fill="url(#linearGradient-4)" transform="translate(95.462827, 32.792031) rotate(13.000000) translate(-95.462827, -32.792031) "></path>
                            <polygon id="星形" fill="#DDE3EE" points="32.4082805 23.3528582 30.8739335 26.1330256 29.3395864 23.3528582 26.5341447 21.8323341 29.3395864 20.31181 30.8739335 17.5316426 32.4082805 20.31181 35.2137222 21.8323341"></polygon>
                            <polygon id="星形备份" fill="#DDE3EE" points="109.925051 65.2977312 108.977367 67.0148934 108.029682 65.2977312 106.296909 64.3585839 108.029682 63.4194367 108.977367 61.7022745 109.925051 63.4194367 111.657824 64.3585839"></polygon>
                            <polygon id="星形备份-2" fill="#DDE3EE" opacity="0.5" points="37.8717945 27.6666802 36.9241095 29.3838425 35.9764246 27.6666802 34.2436518 26.727533 35.9764246 25.7883858 36.9241095 24.0712235 37.8717945 25.7883858 39.6045673 26.727533"></polygon>
                            <path d="M100.140625,77.2725923 C117.666793,77.2725923 132.877204,87.1090796 140.46875,101.520903 L59.8125,101.520903 C67.4040458,87.1090796 82.614457,77.2725923 100.140625,77.2725923 Z" id="路径" fill="url(#linearGradient-5)"></path>
                        </g>
                        <g id="编组-16" stroke-width="1" fill="none" transform="translate(28.000000, 0.000000)">
                            <g id="编组-14" transform="translate(0.000000, 13.828242)">
                                <g id="椭圆形备份-5">
                                    <use fill="#AAB2C3" fill-rule="evenodd" xlink:href="#path-6"></use>
                                    <use fill="black" fill-opacity="1" filter="url(#filter-7)" xlink:href="#path-6"></use>
                                </g>
                                <path d="M41.0329175,62.346286 C42.0307148,62.346286 42.8585053,62.5266181 43.0142676,62.7629076 L49.0883856,65.7206933 L40.66226,63.332629 C39.7305112,63.2895444 39.0252252,63.0870214 39.0252252,62.8436872 C39.0252252,62.5689801 39.9240997,62.346286 41.0329175,62.346286 Z" id="形状结合" fill="#606162" opacity="0.597516741"></path>
                                <path d="M39.0252252,48.9164523 L42.0367637,48.9164523 L42.0367637,62.7157334 C42.0367479,62.8222188 41.9688201,62.9168375 41.8679264,62.9508902 C41.8679264,62.9508902 41.8679264,62.9508902 41.8679264,62.9508902 C41.256922,63.1571102 40.8741997,63.182084 40.5522896,63.182084 C40.2287338,63.182084 39.821316,63.1468526 39.1794823,62.9385188 C39.1794823,62.9385188 39.1794823,62.9385188 39.1794823,62.9385188 C39.0875086,62.9086649 39.0252286,62.8229706 39.0252252,62.7262731 L39.0252252,48.9164523 L39.0252252,48.9164523 Z" id="矩形" fill="url(#linearGradient-8)"></path>
                                <path d="M41.4328541,51.3783928 C44.0383555,50.4363062 45.6139609,48.2081043 44.9520674,46.4015646 C44.2901738,44.5950248 41.6414269,43.8942471 39.0359255,44.8363337 C36.4304241,45.7784203 34.8548187,48.0066221 35.5167122,49.8131619 C36.1786058,51.6197016 38.8273527,52.3204793 41.4328541,51.3783928 Z" id="椭圆形" fill="#ABBECC" transform="translate(40.234390, 48.107363) rotate(6.000000) translate(-40.234390, -48.107363) "></path>
                                <g id="椭圆形" transform="translate(36.682522, 29.651645) rotate(-19.000000) translate(-36.682522, -29.651645) ">
                                    <use fill="url(#linearGradient-9)" fill-rule="evenodd" xlink:href="#path-10"></use>
                                    <use fill="black" fill-opacity="1" filter="url(#filter-11)" xlink:href="#path-10"></use>
                                </g>
                                <g id="椭圆形备份-4" transform="translate(1.796154, 0.891892)">
                                    <mask id="mask-14" fill="white">
                                        <use xlink:href="#path-13"></use>
                                    </mask>
                                    <use id="蒙版" fill="url(#linearGradient-12)" opacity="0.80279541" transform="translate(33.123183, 24.097595) rotate(-19.000000) translate(-33.123183, -24.097595) " xlink:href="#path-13"></use>
                                </g>
                                <path d="M35.9085445,21.5621498 L45.3206457,33.889653 C45.6808261,34.0790133 45.9663963,34.3441804 46.1317344,34.6728234 C46.6209179,35.6451744 45.3688498,36.6409969 44.4040257,36.9933722 C43.4392016,37.3457475 41.2765524,38.6041283 40.7873689,37.6317773 C40.7579597,37.5733205 40.7338517,37.5094905 40.7148208,37.4410452 L40.4719886,37.5721329 L35.9085445,21.5621498 Z" id="形状结合备份" fill-opacity="0.397828002" fill="#A2ABBE" transform="translate(41.074902, 29.777709) scale(-1, 1) rotate(-91.000000) translate(-41.074902, -29.777709) "></path>
                                <path d="M24.5478732,2.33629781 L38.1266387,25.9123205 C38.2665203,26.0939482 38.3833097,26.2949797 38.4725807,26.5139388 C39.0956273,28.0421666 37.5009124,29.6072804 36.2720501,30.1611014 C35.0431877,30.7149224 32.5803777,30.6507836 31.95731,29.1225644 C31.9540671,29.11461 31.9508669,29.1066477 31.9477093,29.0986776 L31.9304658,29.1061969 L24.5478732,2.33629781 Z" id="形状结合" fill="url(#linearGradient-15)"></path>
                            </g>
                            <g id="编组-6" transform="translate(21.132478, 9.894467) rotate(10.000000) translate(-21.132478, -9.894467) translate(11.132478, 1.966539)" stroke="#008AFF" stroke-linecap="round" stroke-width="1.77230769">
                                <g id="编组-21" transform="translate(0.003846, 0.003812)">
                                    <path d="M17.1668133,6.72467181 C16.205528,6.30604343 15.145628,6.07373202 14.0321187,6.07303234 C9.66490499,6.07029597 6.12683279,9.63134002 6.12961165,14.0268484" id="路径" transform="translate(11.648212, 10.049940) rotate(-4.000000) translate(-11.648212, -10.049940) "></path>
                                    <path d="M15.1501141,10.3577806 C12.9058938,10.1924079 11.4581335,11.4182917 11.1338275,13.342685" id="路径备份" transform="translate(13.141971, 11.842787) rotate(2.000000) translate(-13.141971, -11.842787) "></path>
                                    <path d="M19.175914,1.89694077 C17.7599227,1.38008906 16.2356152,1.09865084 14.6474969,1.09840118 C7.16906945,1.09722553 1.10759536,7.33172522 1.10881536,15.023546" id="路径" transform="translate(10.142365, 8.060974) rotate(-1.000000) translate(-10.142365, -8.060974) "></path>
                                </g>
                            </g>
                        </g>
                        <path d="M27.1875,64.1356982 C37.4481963,64.1356982 46.2864769,70.1709182 50.2848469,78.8546516 C52.964232,76.9390872 56.2554066,75.8108108 59.8125,75.8108108 C63.3789063,75.8108108 66.6779996,76.9450029 69.3625311,78.8692665 C73.0135992,74.7899793 78.3443903,72.2184685 84.28125,72.2184685 C95.2924272,72.2184685 104.21875,81.0643739 104.21875,91.9763514 C104.21875,102.888329 95.2924272,111.734234 84.28125,111.734234 C78.3448732,111.734234 73.0144665,109.163142 69.3620734,105.083342 C66.6788201,107.007418 63.3793498,108.141892 59.8125,108.141892 C55.2793918,108.141892 51.1781511,106.309505 48.2218554,103.351385 C43.6614639,110.034833 35.9422434,114.428491 27.1875,114.428491 C13.1732745,114.428491 1.8125,103.170066 1.8125,89.2820946 C1.8125,75.3941234 13.1732745,64.1356982 27.1875,64.1356982 Z" id="形状结合备份-2" fill="url(#linearGradient-16)" transform="translate(53.015625, 89.282095) rotate(-4.000000) translate(-53.015625, -89.282095) "></path>
                    </g>
                </g>
            </g>
        </g>
    </g>
</svg>