<svg height="220" viewBox="0 0 280 220" width="280" xmlns="http://www.w3.org/2000/svg" xmlns:xlink="http://www.w3.org/1999/xlink"><defs><linearGradient id="a" x1="55.204467%" x2="43.466041%" y1="32.029741%" y2="71.233699%"><stop offset="0" stop-color="#f7f8f9"/><stop offset="1" stop-color="#ebedf2"/></linearGradient><path id="b" d="m.38340806 2.98702851c1.07157425 1.48080264 4.57956828 4.57544026 13.29666614 7.74508539 8.7172606 3.1693159 14.9255091 4.2112352 16.8535291 3.1572105.3511704-.1919102 1.9664242-1.2791817.7186138-2.1906728-5.602942-4.09298654-26.458527-13.15243074-30.42603675-11.49946855 0 0-1.5141838 1.30671365-.44277229 2.78784546z"/><filter id="c" height="184%" width="137.8%" x="-18.9%" y="-42%"><feGaussianBlur in="SourceAlpha" result="shadowBlurInner1" stdDeviation="4"/><feOffset dx="0" dy="-4" in="shadowBlurInner1" result="shadowOffsetInner1"/><feComposite in="shadowOffsetInner1" in2="SourceAlpha" k2="-1" k3="1" operator="arithmetic" result="shadowInnerInner1"/><feColorMatrix in="shadowInnerInner1" type="matrix" values="0 0 0 0 0.631740127   0 0 0 0 0.734414341   0 0 0 0 0.884097777  0 0 0 1 0"/></filter><linearGradient id="d" x1="67.91135%" x2="31.497682%" y1="65.06764%" y2="42.087429%"><stop offset="0" stop-color="#e3edfe"/><stop offset="1" stop-color="#b5c2d6"/></linearGradient><linearGradient id="e" x1="78.601894%" x2="34.232969%" y1="59.674709%" y2="41.300888%"><stop offset="0" stop-color="#e0e9f6"/><stop offset="1" stop-color="#e5edfb"/></linearGradient><linearGradient id="f" x1="61.53279%" x2="50%" y1="62.454734%" y2="33.515716%"><stop offset="0" stop-color="#b5c1e2"/><stop offset="1" stop-color="#ecf1fa"/></linearGradient><linearGradient id="g" x1="56.628346%" x2="45.556958%" y1="13.148903%" y2="23.632044%"><stop offset="0" stop-color="#9ca7bb"/><stop offset="1" stop-color="#f5f6ff"/></linearGradient><linearGradient id="h"><stop offset="0" stop-color="#cad2dd"/><stop offset="1" stop-color="#797f9e"/></linearGradient><radialGradient id="i" cx="78.069872%" cy="28.134946%" gradientTransform="matrix(-.72783982 .23352906 -.1684543 -.93702338 1.396317 .362664)" r="93.628831%" xlink:href="#h"/><filter id="j" height="166.6%" width="173.7%" x="-36.8%" y="-33.3%"><feGaussianBlur in="SourceGraphic" stdDeviation=".608258929"/></filter><radialGradient id="k" cx="78.069872%" cy="28.134946%" gradientTransform="matrix(-.72784994 .23353224 -.16845906 -.93702265 1.396327 .362661)" r="93.627561%" xlink:href="#h"/><filter id="l" height="179.8%" width="188.2%" x="-44.1%" y="-39.9%"><feGaussianBlur in="SourceGraphic" stdDeviation=".728236607"/></filter><radialGradient id="m" cx="78.069872%" cy="28.134946%" gradientTransform="matrix(-.72784626 .23353108 -.16845733 -.93702291 1.396323 .362662)" r="93.628021%" xlink:href="#h"/><filter id="n" height="178.2%" width="186.5%" x="-43.3%" y="-39.1%"><feGaussianBlur in="SourceGraphic" stdDeviation=".714285714"/></filter><filter id="o" height="260.4%" width="233.8%" x="-66.9%" y="-80.2%"><feGaussianBlur in="SourceGraphic" stdDeviation="3.10825893"/></filter><linearGradient id="p" x1="85.27604%" x2="16.901096%" y1="51.22235%" y2="50%"><stop offset="0" stop-color="#b2c6ea"/><stop offset="1" stop-color="#d9e5f6" stop-opacity="0"/></linearGradient><linearGradient id="q" x1="6.748964%" x2="6.748964%" y1="188.429024%" y2="-9.932348%"><stop offset="0" stop-color="#b5c2d6"/><stop offset=".497608256" stop-color="#cedef9"/><stop offset="1" stop-color="#fff"/></linearGradient><path id="r" d="m41.9999275 64.2628373c-.0015797-1.7010347.5110438-3.3609371 1.4675972-4.7516566l38.3500945-55.98255891c1.5117207-2.211183 3.9818008-3.52861108 6.6176273-3.52861108h12.0403085c4.465272-.0072765 8.091351 3.69323623 8.099071 8.26597115.000012.00716131.000015.01432259.000009.02148388v55.23116326h7.197863c4.465283-.0000002 8.085106 3.7069302 8.085106 8.2796652v7.4924887c0 4.5727349-3.619823 8.2796652-8.085106 8.2796652h-7.197863v15.1495689c0 4.572747-3.619823 8.279963-8.085106 8.279963h-8.6721087c-4.4652499.015504-8.097564-3.678592-8.1129921-8.251305-.0000323-.009554-.0000484-.019108-.0000483-.028662v-15.1495686h-33.6192247c-4.4652829-.0000002-8.0852277-3.7069302-8.0852277-8.2796652zm41.0000725-35.2626169-22 35h22z"/><filter id="s" height="111.7%" width="115.9%" x="-7.9%" y="-5.9%"><feGaussianBlur in="SourceAlpha" result="shadowBlurInner1" stdDeviation="4"/><feOffset dx="0" dy="-5" in="shadowBlurInner1" result="shadowOffsetInner1"/><feComposite in="shadowOffsetInner1" in2="SourceAlpha" k2="-1" k3="1" operator="arithmetic" result="shadowInnerInner1"/><feColorMatrix in="shadowInnerInner1" type="matrix" values="0 0 0 0 0.547098852   0 0 0 0 0.650176872   0 0 0 0 0.846813699  0 0 0 1 0"/></filter><path id="t" d="m38.9883539 0c2.9779229 0 5.3920041 2.43791221 5.3920041 5.44523242v36.32821868h2.2276388c2.9779229-.0000001 5.3920041 2.4379122 5.3920041 5.4452324v4.9275353c0 3.0073202-2.4140812 5.4452324-5.3920043 5.4452324h-2.2276388v9.9633164c0 3.0073202-2.4140812 5.4452324-5.3920044 5.4452324h-5.7648309c-2.9779234 0-5.3920046-2.4379122-5.3920046-5.4452324v-9.9633164h-22.43949948c-2.97792338-.0000001-5.39201752-2.4379122-5.39201752-5.4452324v-9.8832905c-.00064088-1.1180602.33944706-2.2091142.9740962-3.1250998l25.5618493-36.81760425c1.0081754-1.45421404 2.6554863-2.32022425 4.4133345-2.32022425zm-11.988353 19-14 24h14z"/><filter id="u" height="116.4%" width="123.1%" x="-11.5%" y="-8.2%"><feGaussianBlur in="SourceAlpha" result="shadowBlurInner1" stdDeviation="4"/><feOffset dx="0" dy="-4" in="shadowBlurInner1" result="shadowOffsetInner1"/><feComposite in="shadowOffsetInner1" in2="SourceAlpha" k2="-1" k3="1" operator="arithmetic" result="shadowInnerInner1"/><feColorMatrix in="shadowInnerInner1" type="matrix" values="0 0 0 0 0.547098852   0 0 0 0 0.650176872   0 0 0 0 0.846813699  0 0 0 1 0"/></filter><filter id="v" height="109.7%" width="109.7%" x="-4.8%" y="-4.8%"><feGaussianBlur in="SourceGraphic" stdDeviation="1"/></filter><linearGradient id="w" x1="-25.241629%" x2="114.254569%" y1="50%" y2="50%"><stop offset="0" stop-color="#b7c5e0" stop-opacity=".846495"/><stop offset="1" stop-color="#c2c8d9" stop-opacity=".230431"/></linearGradient><path id="x" d="m155 82c15.463973 0 28 12.536027 28 28s-12.536027 28-28 28-28-12.536027-28-28 12.536027-28 28-28zm0 13c-8.284271 0-15 6.715729-15 15s6.715729 15 15 15 15-6.715729 15-15-6.715729-15-15-15z"/><filter id="y" height="121.4%" width="121.4%" x="-10.7%" y="-10.7%"><feGaussianBlur in="SourceAlpha" result="shadowBlurInner1" stdDeviation="4"/><feOffset dx="0" dy="-4" in="shadowBlurInner1" result="shadowOffsetInner1"/><feComposite in="shadowOffsetInner1" in2="SourceAlpha" k2="-1" k3="1" operator="arithmetic" result="shadowInnerInner1"/><feColorMatrix in="shadowInnerInner1" type="matrix" values="0 0 0 0 0.547098852   0 0 0 0 0.650176872   0 0 0 0 0.846813699  0 0 0 1 0"/></filter><linearGradient id="z"><stop offset="0" stop-color="#3c4c66"/><stop offset="1" stop-color="#4c617f"/></linearGradient><linearGradient id="A" x1="55.69748%" x2="54.875592%" xlink:href="#z" y1="14.613592%" y2="42.034026%"/><path id="B" d="m4.79043053 26.0201158c-.51821232-4.9423531-.75126327-8.6454049-.69915286-11.1091551.06752655-3.1926165.4496817-6.89617523 1.14646545-11.11067621.86919617-4.02689098 8.08502958-2.18761482 8.07361598-.03137029-.0140819 2.65541112-.1300073 3.63997992-1.5008585 9.5517476-1.1563606 4.9867812-3.51380634 11.926956-3.51734299 12.5943065z"/><linearGradient id="C"><stop offset="0" stop-color="#445572"/><stop offset="1" stop-color="#445572"/></linearGradient><linearGradient id="D" x1="50%" x2="54.607088%" xlink:href="#C" y1="50%" y2="76.303631%"/><linearGradient id="E" x1="50%" x2="54.495203%" xlink:href="#C" y1="50%" y2="76.303631%"/><linearGradient id="F" x1="90.501726%" x2="84.659162%" xlink:href="#z" y1="26.656828%" y2="44.745127%"/><path id="G" d="m34.9313771 5.03254421c.7691595 2.83421172-.5385569 16.85047709-1.1158712 23.13355989l-4.2234659.3967665c-.6618448-4.2090852-1.1514253-7.658764-1.4687415-10.3490364-.5480265-4.6462826-1.0575193-7.8864787-1.2194172-7.9689351-.1971859-.1004289-5.0345553 2.9115024-9.8805185 3.7329545-4.8459633.8214522-6.4269693.6331687-8.85410357.3216926-7.29666052-.9363862-7.93609753-6.28326529-8.16925923-14.2995462l11.5213219 3.72101286c2.8016285.29617028 6.760567-3.07503499 17.5038693-1.96184303 2.3649461.24504932 5.1370264.43916266 5.9061859 3.27337438z"/><linearGradient id="H" x1="70.483718%" x2="58.264466%" xlink:href="#C" y1="83.336678%" y2="66.460039%"/><path id="I" d="m7.17693911 1.78090905c1.09033457 2.10597293.96077448 7.44794792-.44838581 7.82434403-.56202789.15012139-1.7593785-.21766817-2.97794112-.97885074l.76515735 5.60693626h-4.51576953l1.55453525-7.50863389c-.86697234-1.05456776-1.45374914-2.3469436-1.35569532-3.79508315.28252797-4.17260549 5.88776461-3.25468545 6.97809918-1.14871251z"/><path id="J" d="m5.73112583 23.9550119c-1.08956374 6.5914997-1.79431956 10.2254027-2.11426745 10.9017091-.23462118.4959426-1.971067 2.0026447-3.17604467 2.8635287-.48366169.3455472-.28348107.787736-.10080736.9051776 1.48582709.9552436 2.46411036-.1743098 3.7501449-.7977067 1.4089613-.6829849 1.28995256 1.2455429 2.40687.7247988-.3429318-.800862-1.14484941-2.2911359-.76589542-3.2696591.168424-.4348992 1.30921101-4.2061744 3.42236103-11.3138255z"/><filter id="K" height="112.9%" width="111.1%" x="-5.5%" y="-3.3%"><feMorphology in="SourceAlpha" operator="erode" radius="0.5" result="shadowSpreadOuter1"/><feOffset dx="0" dy="1" in="shadowSpreadOuter1" result="shadowOffsetOuter1"/><feGaussianBlur in="shadowOffsetOuter1" result="shadowBlurOuter1" stdDeviation=".5"/><feColorMatrix in="shadowBlurOuter1" type="matrix" values="0 0 0 0 0.401954889   0 0 0 0 0.391806781   0 0 0 0 0.396267414  0 0 0 0.761963851 0"/></filter><linearGradient id="L" x1="40.775413%" x2="50%" y1="34.813071%" y2="100%"><stop offset="0" stop-color="#d4d9dc"/><stop offset="1" stop-color="#c0c7cb"/></linearGradient><linearGradient id="M" x1="47.92432%" x2="58.577916%" y1="91.260134%" y2="14.426197%"><stop offset="0" stop-color="#dce8f2"/><stop offset="1" stop-color="#b7cee0" stop-opacity=".386751"/></linearGradient><mask id="N" fill="#fff"><path d="m0 0h280v220h-280z" fill="#fff" fill-rule="evenodd"/></mask><mask id="O" fill="#fff"><path d="m0 0h130v90h-130z" fill="#fff" fill-rule="evenodd"/></mask><mask id="P" fill="#fff"><use fill="#fff" fill-rule="evenodd" xlink:href="#t"/></mask><mask id="Q" fill="#fff"><use fill="#fff" fill-rule="evenodd" xlink:href="#B"/></mask><mask id="R" fill="#fff"><use fill="#fff" fill-rule="evenodd" xlink:href="#G"/></mask><mask id="S" fill="#fff"><use fill="#fff" fill-rule="evenodd" xlink:href="#I"/></mask></defs><g fill="none" fill-rule="evenodd" mask="url(#N)"><g transform="translate(-13 29)"><path d="m270.933337 93.4283842c-3.938953 30.6043028-42.35035 31.7759448-70.074833 40.7582818-22.586087 7.317611-40.41403 28.615232-85.120619 24.600127-44.7060907-4.015604-81.3784785-44.34031-68.9743698-89.0239442 12.4036096-44.6831355 67.5679858-68.78418961 129.7089418-42.3442347 62.140955 26.4399549 98.399833 35.4054672 94.46088 66.0097701z" fill="url(#a)" fill-rule="nonzero"/><g fill-rule="evenodd"><g fill="none" mask="url(#O)" transform="translate(96)"><g opacity=".903023" transform="matrix(.9945219 -.10452846 .10452846 .9945219 74.25858009505 23.24521593556)"><path d="m.01846106 5.57682816c0-1.6019903 1.29323591-2.90050995 2.88854736-2.90050995.53814729 0 1.0419573.14776102 1.47335926.40508762.90912637-1.81395867 2.78055728-3.05812258 4.94155555-3.05812258 1.85631207 0 3.49902807.91825196 4.50218757 2.32709128.5296038-.29709903 1.1409863-.46684522 1.791865-.46684522 2.0313579 0 3.6781103 1.65364146 3.6781103 3.69329885z" fill="#bac1fa" transform="translate(.8444 1.325905)"/><path d="m.06159953 6.09819756c0-1.6019903 1.29323591-2.90050996 2.88854736-2.90050996.53814729 0 1.04195731.14776102 1.47335926.40508763.90912637-1.81395868 2.78055728-3.05812259 4.94155555-3.05812259 1.8563121 0 3.499028.91825196 4.5021876 2.32709128.5296038-.29709902 1.1409863-.46684521 1.7918649-.46684521 2.0313579 0 3.6781104 1.65364145 3.6781104 3.69329885z" fill="#d0d5ff"/></g><g transform="matrix(.9945219 -.10452846 .10452846 .9945219 52.63093289018 9.83616332718)"><g transform="translate(12.11567 19.408979)"><use fill="#8f9aae" fill-rule="evenodd" xlink:href="#b"/><use fill="#000" filter="url(#c)" xlink:href="#b"/></g><path d="m46.878192 32.7804091c.2123621-.008394.4157741-.0217257.6084459-.0409825 9.6803895-.4260296 16.5765004-5.1055731 16.5765004-5.1055731l-20.9485559-3.7881305s-.1080524.1499401-.2756639.4099899c-3.2889274-2.0295407-7.5137127-4.1637596-12.239705-6.0993202-4.6454411-1.902643-9.0751029-3.326498-12.7937991-4.1881187.0538635-.2858902.0777847-.4565685.0777847-.4565685l-17.86516337-11.84595392s3.01725859 9.16751062 6.90682088 14.06796822c3.88956229 4.9004577 10.12044799 7.9182825 19.87462139 11.9131743 6.4279809 2.6327575 12.4429542 4.3494154 16.7325057 4.927121.9179576.2248279 2.0684557.2758504 3.3462083.206394z" fill="url(#d)"/><path d="m64.1458828 27.2391481c-1.1519627 2.8773359-16.4184377-.6603291-34.0988432-7.9015642-17.6802429-7.2412352-31.07923329-15.44383172-29.92743336-18.32116769 1.15212538-2.87733596 16.41876316.66016443 34.09916866 7.90156419 17.6802428 7.2412352 31.0790705 15.4438317 29.9271079 18.3211677" fill="url(#e)" transform="translate(0 .197896)"/><path d="m31.6269973 15.5892402c-9.4955962-3.8890614-16.7583798-8.12787338-16.2221859-9.4674591.5365194-1.33991489 8.0752924-8.73849665 21.4183039-3.51100165 13.3535889 5.23160972 13.5046019 16.25459465 12.9682453 17.59434495-.5363567 1.3395857-8.6687672-.7269874-18.1643633-4.6158842z" fill="url(#f)"/><path d="m36.1954836 2.37378849c.3186245 1.14043364.8802043 4.46479194-1.1146976 10.01981801-.5034853 1.4029523-1.0686451 2.714558-1.6494269 3.9183582.1060996.0416409.213013.0841047.3187872.1254164.5298475-.9788077 4.200864-8.04936463 2.9751848-13.86394677-.1777007-.06896258-.3542623-.13529174-.5298475-.19964584" fill="url(#g)"/><path d="m16.7993713 8.59544734c-.3925037.98045363-3.4350585.65950608-6.795587-.71678287-3.36069115-1.37645353-5.76664791-3.2871613-5.37414418-4.26761493.39250374-.98028904 3.43489586-.65950608 6.79574978.71694746 3.3603657 1.37628894 5.7664852 3.28699671 5.3739814 4.26745034" fill="#8f9aae"/><path d="m16.3723527 8.2369407c-.3358739.83907211-3.1084604.49508217-6.192674-.76796989-3.08405088-1.26321666-5.31181875-2.96720129-4.97610764-3.8062734.33603657-.83907212 2.61343696-4.95987412 7.66781754-3.25243314 5.2117401 1.76060307 3.8368379 6.98760431 3.5009641 7.82667643" fill="url(#i)"/><path d="m15.8678096 4.46605382c-.1583358-.51022432.1490603-.43698244.1490603-.43698244.2982833.09611968.5371703.53458342.4035694 1.5800495-.0906578.70942341-.2397613.16458387-.3757707-.41833557l-.0424316-.18392715c-.0488011-.21274862-.0948027-.41328941-.1344274-.54080434zm-4.1242834-3.99448034c.9851648-.06797504 2.3906602.69094248 2.3906602.69094248 1.7646395 1.22042365 1.8386814 2.71768513 1.6162301 2.6266677-.2227768-.09118202-.4824932-.80022923-1.5791278-1.87795466-1.0966346-1.07789002-3.4134155-1.37200965-2.4277625-1.43965552z" fill="#feeeff" filter="url(#j)"/><path d="m60.1380324 26.3453613c-.3925038.9804536-3.4350586.6595061-6.7959125-.7167829-3.3605285-1.3766181-5.7663225-3.2869967-5.3738188-4.2674503.3925038-.9804537 3.4348959-.6598353 6.7954243.7166182 3.3606912 1.3764536 5.7668107 3.2871614 5.374307 4.267615" fill="#8f9aae"/><path d="m59.71103 25.9869369c-.3358739.8390721-3.1084604.4950822-6.1925113-.7679699-3.0843763-1.2633812-5.3121442-2.9673658-4.9762704-3.806438.3360366-.8390721 2.613437-4.9597095 7.6676549-3.2524331 5.21174 1.7606031 3.8370006 6.9877689 3.5011268 7.826841" fill="url(#k)"/><path d="m59.2064706 22.2159019c-.1583358-.5100597.1492231-.4368178.1492231-.4368178.2979578.0959551.5371703.5345834.4034066 1.5798849-.0907683.7094234-.2398323.1645839-.3758049-.4183356l-.0424203-.1839271c-.0487884-.2127487-.0947798-.4132894-.1344045-.5408044zm-4.1244298-3.994398c.9853275-.0679751 2.3906601.6909425 2.3906601.6909425 1.7648023 1.2204236 1.8388442 2.7178497 1.6162302 2.6265031-.2226141-.0910175-.4826559-.8002293-1.5791278-1.8777901-1.0964719-1.07789-3.4132528-1.3720096-2.4277625-1.4396555z" fill="#feeeff" filter="url(#l)"/><path d="m37.4324887 20.05869c-.3925037.980289-3.4350585.6593415-6.7959124-.7169475-3.3605285-1.3764535-5.7663225-3.2871613-5.3739815-4.2674503.3926665-.9806182 3.4350586-.6598353 6.7957497.7166183 3.3606912 1.3764535 5.7668107 3.2871613 5.3741442 4.2677795" fill="#8f9aae"/><path d="m30.8131378 18.9320488c-3.084539-1.2633812-5.3123069-2.9673658-4.9764331-3.8064379.3358739-.8389076 2.6135997-4.9597096 7.6676548-3.2524332 5.2119029 1.7607677 3.8370007 6.9879335 3.5011268 7.826841-.3358738.8390722-3.108623.4950822-6.1923485-.7679699z" fill="url(#m)"/><g fill="#feeeff"><path d="m36.5010898 15.929066c-.1583359-.5100597.1487348-.4368178.1487348-.4368178.298446.0959551.5374958.5344188.4037321 1.5800495-.0906579.7094234-.2397613.1645838-.3757199-.418387l-.0424138-.1839452c-.0487782-.2127717-.0947493-.4133434-.1343332-.5408995zm-4.1245927-3.9945626c.9853276-.0676459 2.3908229.6911071 2.3908229.6911071 1.7646396 1.2204236 1.8388442 2.7178497 1.6160675 2.6265031-.2224514-.0910175-.4824932-.8000647-1.5789651-1.8779547-1.0967973-1.0777254-3.4135783-1.371845-2.4279253-1.4396555z" filter="url(#n)"/><path d="m.11967133 1.21436134c-.76271352 1.90527635 4.85617596 6.14606336 13.87253347 10.89625176-2.6869907-1.6427577-5.60635928-3.5449069-6.76287836-4.56239294-2.10995166-1.8558998-4.00835488-2.90383471-5.76436972-4.97567461-.64961646-.7664886-.67060857-1.48541112-.44034623-2.08731122-.46752206.16524684-.77589461.40669816-.90493916.72912701" filter="url(#o)"/></g></g></g><g fill="none" transform="translate(0 29.99978)"><path d="m.86190322 104.842239c-.89440059-.260518-1.09873035-.514737-.58480983-.72773l20.48558831-8.5739013c.8052079-.3386495 3.3250815-.5405178 6.7513329-.5405178h15.6509248c5.8003794-.0010143 12.4548879.5657306 14.8634836 1.266059.0037721.0010968.0075323.0021936.0112808.0032903l28.9706991 8.4588228h4.341928c5.8043194 0 2.9710129.139877 5.3695741.840205l3.930075 1.147498c2.398562.700328 9.1207 1.695907 3.31638 1.695907l3.469546-.895216c1.075069.802993 1.477574 1.744153 1.207515 2.82348-.405087 1.61899-1.43457 1.659954-7.23889 1.659954h-11.2726783c-5.7962712.002461-12.4555184-.563301-14.8741226-1.263626-.0050533-.001464-.0100856-.002927-.0150969-.00439l-7.9464848-2.320203h-43.7008701c-5.8043205 0-12.4541266-.567728-14.85268788-1.268056z" fill="url(#p)" opacity=".402566"/><use fill="url(#q)" fill-rule="evenodd" xlink:href="#r"/><use fill="#000" filter="url(#s)" xlink:href="#r"/><g transform="translate(170.999999 39.00022)"><use fill="url(#q)" fill-rule="evenodd" xlink:href="#t"/><use fill="#000" filter="url(#u)" xlink:href="#t"/><circle cx="-17.847304" cy="46.5" fill="#3c568a" fill-opacity=".308474" filter="url(#v)" mask="url(#P)" r="31"/></g></g><ellipse cx="151" cy="145.5" fill="url(#w)" rx="38" ry="7.5"/><ellipse cx="153" cy="144" fill="#8f9aae" fill-opacity=".296402" rx="10" ry="2"/></g><g fill="none"><use fill="url(#q)" fill-rule="evenodd" xlink:href="#x"/><use fill="#000" filter="url(#y)" xlink:href="#x"/></g><g fill="none" fill-rule="evenodd" transform="translate(94.27704 46.793457)"><g transform="translate(8.72296 35.206543)"><path d="m37.1701999 7.27574379c-.0066195 4.84462061-1.4891378 24.08302881-1.722798 25.52640311s-2.3052969 1.6402566-2.4510599-.1796372c-.2319334-2.8957583-1.7958532-7.6368099-1.3647166-12.2767851.4921403-5.2965094 1.0890019-9.8953365 1.4380812-11.5651594.8324243-3.98190697 4.1033488-3.63872451 4.1004933-1.50482141zm-4.434849.68189058c-1.1222684 3.03348413-5.2213904 10.08795923-12.2973659 21.16342523-.5591357.0075211-.9994449-.0612704-1.3209274-.2063746-.3214826-.1451042-.5633711-.5346319-.7256658-1.1685831 2.0913369-6.8783755 3.8074996-11.7223891 5.1484882-14.5320408 2.296098-4.81080572 2.2833169-5.96488232 3.1894276-7.41605509 2.1607373-3.4605076 6.747506.15538829 6.0060433 2.15962836z" fill="#e6baaa"/><path d="m16.9482069 29.9161516c-.1182603.3640969-.1778206.6495451-.1786809.8563445-.0012774.3147902.0459947.7646578.1418162 1.3496028.0115433.0705382.072734.1221605.1442087.1216703.6952372-.0047676 3.538517-.0306071 8.5298394-.0775186.0926609-.0008709.1755117-.0579168.2094009-.1441625.284974-.7256458.153253-1.3361498-.3951631-1.831512-.8760225-.7912757-3.0329612-.7150798-3.5377053-.8710685-.2602075-.0804159-.5975944-.299359-1.0121606-.6568293-.1560566-.1345504-.3916409-.1171277-.526199.0389222-.0258281.0299535-.0467291.0638233-.0619201.1003409l-.1880951.4521614c-.5468466.2566804-.9908894.3857186-1.3321284.3871147-.2108972.0008628-.4826518-.0627613-.8152637-.1908724l.0000154-.00004c-.3845971-.148134-.8164609.0435572-.964595.4281542-.0047924.0124424-.0092504.0250111-.0133694.0376923z" fill="#566282" transform="matrix(.8571673 .51503807 -.51503807 .8571673 18.644819 -6.674)"/><path d="m31.9777311 32.8057143c-.1115355.3532718-.1666905.631243-.1654652.8339137.0019191.3132558.0539545.7613881.1561063 1.344397.0124848.0710573.0740782.1229784.1462236.1232272.6984052.0024086 3.5545767.0059453 8.5685145.0106101.0929141.0000865.1762986-.0570227.2098011-.1436865.2777016-.7184493.1388522-1.3267984-.4165483-1.8250475-.888136-.7967456-3.054278-.7430884-3.5629463-.9035726-.2629923-.0829737-.6053914-.3054551-1.0271974-.6674442-.1563744-.1341728-.3919111-.1161973-.5260988.0401642-.0258898.030168-.0467915.06428-.0619143.1010453l-.1821048.4427187c-.546762.2499026-.9915447.373793-1.3343483.3716711-.211881-.0013115-.4855675-.0674575-.8210596-.1984381l.0000025-.0000064c-.3838989-.1498792-.8166116.0398312-.9664909.4237301-.0060069.015386-.0115013.0309672-.0164741.0467179z" fill="#566282" transform="matrix(.95105652 .30901699 -.30901699 .95105652 12.033754 -9.631401)"/><g transform="translate(17.944853 2.136526)"><use fill="url(#A)" transform="matrix(.93969262 .34202014 -.34202014 .93969262 5.216791 -2.147434)" xlink:href="#B"/><path d="m9.50261671 26.6925636.97584649.9481694c-1.44726084-2.5180425-3.12816155-5.6604489-5.04270213-9.4272193-1.2559513-2.4710262-2.77361339-3.7403804-3.3346993-6.7975153-.26836092-1.46219243.54045452-4.09657676 2.42644634-7.90315305l-8.18010295-.18479035c2.14788329 4.65468944 4.31070459 8.9362831 6.48846391 12.8447809 2.17775931 3.9084978 4.40000853 7.4150737 6.66674764 10.5197277z" fill="url(#D)" mask="url(#Q)" transform="matrix(.57357644 .81915204 -.81915204 .57357644 14.139428 3.807199)"/><path d="m12.8482419 32.4926878 4.9140297-.2645318c-1.8357885-1.4216218-3.7306462-4.0127604-5.6845733-7.7734158-1.2817891-2.4670148-1.9263721-4.8411731-2.0719525-8.0373907-.09058999-1.9889024.21965-4.9882591.9307201-8.99806999l-7.56935884.52219149c1.95017468 5.7046669 4.03510871 10.5088031 6.25480208 14.4124085 2.21969336 3.9036054 3.29513766 7.2832082 3.22633276 10.1388083z" fill="url(#E)" mask="url(#Q)" transform="matrix(-.94551858 -.32556815 -.32556815 .94551858 27.050832 4.526757)"/></g><g transform="translate(2.419053 .131864)"><use fill="url(#F)" xlink:href="#G"/><path d="m20.8299124 25.2049812c-2.2485461.0464042-4.2643057.1311359-6.047279.254195 4.8639397.0788453 9.3490386.7563605 13.4552969 2.0325458-.6063607-3.2656419-1.1454955-6.2586602-1.6174045-8.9790549s-.9181548-5.9042594-1.3387373-9.551594c.58268 7.6757361 2.0724008 16.3861179 1.919566 16.6751136-.1528348.2889956-2.9986229-.5008119-6.3714421-.4312055z" fill="url(#H)" mask="url(#R)" transform="matrix(-.2923717 -.95630476 .95630476 -.2923717 10.369289 44.125666)"/><path d="m17.5469665 2.19051237c-.6686849.90767581-2.5456734 1.90309455-5.6309655 2.98625622-2.30175596.80808355-2.07405218 1.98854588-3.61358138 2.86663555-1.55586675.88740798-4.86949439 1.46800377-5.38886218 1.42860438-1.03328189-.07838507-1.39943104 1.03807278 3.43584086 2.48464678 3.2235146.9643827 7.6054514 1.5228305 13.1458106 1.6753433l-10.76816501 2.1500366c-5.78393191-1.5499079-8.73110658-2.2665867-8.84152401-2.1500366-.11041742.1165502-1.04390288-1.6395089-2.80045636-5.26817725l.91493648-2.79418804 9.76537923-3.37912094z" fill="#445572" mask="url(#R)"/></g></g><g transform="matrix(.98162718627 -.19080900355 .19080900355 .98162718627 17.86640294377 4.62561059139)"><g transform="translate(.564471 1.169863)"><use fill="#e6baaa" xlink:href="#I"/><path d="m6.60169511 9.68818757c-.87044945-.47915839-1.56315175-.91396799-2.0781069-1.30442878-.77243272-.5856912-1.12781221-1.03057287-1.84244952-1.97061801-.03458282-.04549079-.09949531-.05433344-.1449861-.01975062-.02396219.01821644-.03880379.04596471-.04063565.07600918l-.26567019 4.31366346 2.16639655.0127461.04316818-1.37427909z" fill="#e2a893" mask="url(#S)"/></g><path d="m1.02431991 2.42171687c.40070966-2.53934108 2.04046633-2.42027562 3.88463716-2.0417033l.33222112.07005898c.05566103.01196877.11144914.02404114.16733681.03615334l.33630085.07264088c1.34822217.28839308 2.72210628.52624844 3.74136224-.16817448.00789178-.00537671.01662507-.01148771.02619986-.01833302.00826565-.00594095.01721693-.01086155.02665263-.0146803.06613544-.02676592.14144687.00514938.16821279.07128482l.05519308.147191c.65919435 1.91207584-1.27978665 2.92841295-4.01010241 2.68048093-.56557874.32545574-.98000832.91508532-1.45168691 1.68748982-.20623847-.21449986-.44558244-.3584427-.68125512-.3584427-.62349766 0-.68381748.78819435-.98055354 1.64364837-.16309418.47018069.03771634.70232199.35520047.81605284-.26447173.39032657-.56425074.8003554-.909186 1.22383283-1.31152998-.81538632-2.88309485-3.87088901-1.11561881-5.78789119z" fill="#495369"/></g><g transform="matrix(.99756405 .06975647 -.06975647 .99756405 4.65547917353 12.83172586075)"><use fill="#000" filter="url(#K)" xlink:href="#J"/><use fill="#f0d2c7" fill-rule="evenodd" xlink:href="#J"/><path d="m4.36942076 33.3429587 1.55033987.114068c.2564954.018872.44912727.2421013.43025532.4985967-.00227263.0308882-.00762106.0614726-.01596582.0912989l-.04363036.155946c-.06722894.2403026-.27176657.4170221-.51928242.4486603-.43017864.0549867-.72640842.0766129-.88868935.0648785-.14298247-.0103388-.38860824-.0615166-.73687731-.1535331-.31034999-.0819897-.50144419-.3934372-.43395923-.7072608l.00513921-.0238987c.06514424-.3029385.34364172-.511493.65267009-.4887558z" fill="#dd8e3c"/><path d="m33.9103894 8.39170351 6.4558867 5.39245349c1.800087.5931816 3.2923395 1.2951774 4.4767577 2.1059876.2745405.2842662.5938784.8485462-.6026967.6960105s-2.4624752-.2578534-2.6520239.1537599.5094371.9484742.142212 1.4984753c-.2448168.3666675-1.2472123-.6306404-3.0071864-2.9919236l-6.5164349-3.1555693z" fill="#e6baaa" transform="matrix(.98162718 .190809 .190809 -.98162718 -1.837523 19.083407)"/><path d="m37.9876923 11.5827023.0245104.0046249c.3359169.0633131.5574528.3862267.4956874.7224316-.0737936.4016781-.1118218.6880308-.1140846.8590582-.0023122.1747578.0293001.487455.0948369.9380915.0416267.2864998-.1568463.5525255-.4433405.5941908-.0339895.0049432-.0683826.0065337-.1026832.0047488l-.0472218-.0024573c-.3337072-.0173656-.5938375-.2956913-.5886358-.6298096l.0305169-1.9602024c.0047175-.3030206.2541886-.5448431.5572092-.5401256.0312809.000487.0624629.0036482.0932051.0094491z" fill="#ffc440" transform="matrix(.91354546 -.40673664 .40673664 .91354546 -2.046468 16.573433)"/><path d="m17.8848428 2.03842463 1.6645574-.48719414c8.0361158 5.01716989 6.653826 11.22477261 17.8825721 9.34375471.1924775.7186832.3685913 1.2292339.5283415 1.5316519.1756109.3324433.5025387.7741847.9807833 1.3252242-15.9359223 12.3257467-20.4741306-1.7480892-21.0562543-11.71343667z" fill="#b8c0c5" fill-rule="nonzero" transform="matrix(.9961947 .08715574 -.08715574 .9961947 .984795 -2.438077)"/><path d="m10.9433694 27.5836621c7.6230841.0844024 12.9705621-1.0507798 16.0424341-3.4055465.9373414-.7185261 1.139499-.6833777.3011231-2.7916433-.5575617-1.4021014-2.8962305-5.8314242-4.663655-11.1994151-.890158-2.70357208-1.8515514-5.62170938-1.9304673-8.55872104-.0017707-.06590033-.0145858-.16016018-.0384454-.28277956l-.0000231.00000451c-.0749945-.38541251-.382802-.68290818-.7705453-.74473118-.8038717-.12817181-2.0096791-.32042952-3.6174224-.57677314-3.860497 6.36514926-4.5606353 17.04538431-5.3229987 27.55960531z" fill="#fff"/><path d="m16.3090451.01014397.0719337.00197547.0576455.00838106c.0345521.00469353.0613483.00759722.0803883.00871106.3976755.02326383.9425703.05064528 1.6346846.08214434 3.3263288 14.4190997 4.6779559 23.4081913 4.0548811 26.9672747-.142395.8133785-.8727586 2.7506882-8.5101672 2.8186639-1.1793844.0104969-2.8651923-.2018386-5.05742358-.6370065-.79299966 1.8817202-1.5438603 3.4567698-2.25406835 4.7251561-.66801275.1388708-1.15732298.1986027-1.4679307.1791956-.29383201-.0183589-.71647152-.1754021-1.26791852-.4711295-.8081444-15.6957025 2.92638776-26.89829736 12.47172645-33.58630973l-.0036771.0019435c.0531901-.05913535.1191293-.09206795.1899258-.099z" fill="url(#L)" fill-rule="nonzero"/><path d="m12.9060727 29.8731653c-.8873745-.0731239-1.5611457-.1433654-2.0213133-.2107243-.4426687-.0647975-1.11165186-.188607-2.00694958-.3714286 1.41588688-3.3865356 2.94904808-7.7846928 4.59714908-13.1945596-1.8491796 6.8430519-2.0385761 11.435162-.5688862 13.7767125z" fill="#000" fill-opacity=".1"/></g></g><path d="m163.143028 28.7093438-50.275794 116.9184472s4.604922 6.310537 36.048746 7.103079c31.443825.792542 39.764764-6.731411 39.764764-6.731411l6.454753-108.4359123s-10.936343-.2391143-16.272461-2.2487998c-5.336119-2.0096854-15.720008-6.6054031-15.720008-6.6054031z" fill="url(#M)" fill-rule="evenodd" opacity=".561481"/></g></g></svg>