<svg height="220" viewBox="0 0 280 220" width="280" xmlns="http://www.w3.org/2000/svg" xmlns:xlink="http://www.w3.org/1999/xlink"><defs><linearGradient id="a" x1="55.204467%" x2="43.466041%" y1="32.029741%" y2="71.233699%"><stop offset="0" stop-color="#f7f8f9"/><stop offset="1" stop-color="#ebeff2"/></linearGradient><linearGradient id="b" x1="6.748964%" x2="6.748964%" y1="188.429024%" y2="-9.932348%"><stop offset="0" stop-color="#b5c2d6"/><stop offset=".497608256" stop-color="#cedef9"/><stop offset="1" stop-color="#fff"/></linearGradient><path id="c" d="m31.5 0c17.3969696 0 31.5 14.1030304 31.5 31.5s-14.1030304 31.5-31.5 31.5-31.5-14.1030304-31.5-31.5 14.1030304-31.5 31.5-31.5zm.5 15c-9.3888407 0-17 7.6111593-17 17s7.6111593 17 17 17 17-7.6111593 17-17-7.6111593-17-17-17z"/><filter id="d" height="119%" width="119%" x="-9.5%" y="-9.5%"><feGaussianBlur in="SourceAlpha" result="shadowBlurInner1" stdDeviation="4"/><feOffset dx="0" dy="-4" in="shadowBlurInner1" result="shadowOffsetInner1"/><feComposite in="shadowOffsetInner1" in2="SourceAlpha" k2="-1" k3="1" operator="arithmetic" result="shadowInnerInner1"/><feColorMatrix in="shadowInnerInner1" type="matrix" values="0 0 0 0 0.547098852   0 0 0 0 0.661320274   0 0 0 0 0.846813699  0 0 0 1 0"/></filter><filter id="e" height="106%" width="106.2%" x="-3.1%" y="-3%"><feGaussianBlur in="SourceGraphic" stdDeviation="1"/></filter><linearGradient id="f" x1="85.27604%" x2="16.901096%" y1="51.300649%" y2="50%"><stop offset="0" stop-color="#b2baea"/><stop offset="1" stop-color="#d9e5f6" stop-opacity="0"/></linearGradient><linearGradient id="g" x1="-25.241629%" x2="114.254569%" y1="50%" y2="50%"><stop offset="0" stop-color="#b7c5e0" stop-opacity=".846495"/><stop offset="1" stop-color="#c2cfd9" stop-opacity=".230431"/></linearGradient><linearGradient id="h" x1="12.163118%" x2="6.748964%" y1="194.107005%" y2="-9.932348%"><stop offset="0" stop-color="#8192aa"/><stop offset=".497608256" stop-color="#afc0dc"/><stop offset="1" stop-color="#fff"/></linearGradient><path id="i" d="m60 0c33.137085 0 60 26.862915 60 60s-26.862915 60-60 60-60-26.862915-60-60 26.862915-60 60-60zm0 27.7894737c-17.7893825 0-32.2105263 14.4211438-32.2105263 32.2105263s14.4211438 32.2105263 32.2105263 32.2105263 32.2105263-14.4211438 32.2105263-32.2105263-14.4211438-32.2105263-32.2105263-32.2105263z"/><filter id="j" height="110%" width="110%" x="-5%" y="-5%"><feGaussianBlur in="SourceAlpha" result="shadowBlurInner1" stdDeviation="4"/><feOffset dx="0" dy="-4" in="shadowBlurInner1" result="shadowOffsetInner1"/><feComposite in="shadowOffsetInner1" in2="SourceAlpha" k2="-1" k3="1" operator="arithmetic" result="shadowInnerInner1"/><feColorMatrix in="shadowInnerInner1" type="matrix" values="0 0 0 0 0.528831818   0 0 0 0 0.670119462   0 0 0 0 0.755526004  0 0 0 1 0"/></filter><path id="k" d="m60 0c33.137085 0 60 26.862915 60 60s-26.862915 60-60 60-60-26.862915-60-60 26.862915-60 60-60zm0 27.7894737c-17.7893825 0-32.2105263 14.4211438-32.2105263 32.2105263s14.4211438 32.2105263 32.2105263 32.2105263 32.2105263-14.4211438 32.2105263-32.2105263-14.4211438-32.2105263-32.2105263-32.2105263z"/><filter id="l" height="110%" width="110%" x="-5%" y="-5%"><feGaussianBlur in="SourceAlpha" result="shadowBlurInner1" stdDeviation="4"/><feOffset dx="0" dy="-4" in="shadowBlurInner1" result="shadowOffsetInner1"/><feComposite in="shadowOffsetInner1" in2="SourceAlpha" k2="-1" k3="1" operator="arithmetic" result="shadowInnerInner1"/><feColorMatrix in="shadowInnerInner1" type="matrix" values="0 0 0 0 0.547098852   0 0 0 0 0.661320274   0 0 0 0 0.846813699  0 0 0 1 0"/></filter><filter id="m" height="108.6%" width="108.6%" x="-4.3%" y="-4.3%"><feGaussianBlur in="SourceGraphic" stdDeviation="1"/></filter><filter id="n" height="140%" width="126.1%" x="-13%" y="-20%"><feGaussianBlur in="SourceGraphic" stdDeviation="1"/></filter><linearGradient id="o"><stop offset="0" stop-color="#485c79"/><stop offset="1" stop-color="#42546f"/></linearGradient><linearGradient id="p" x1="19.586404%" x2="50%" xlink:href="#o" y1="44.647934%" y2="67.620635%"/><path id="q" d="m4.26390907 0c2.4763685 0 4.43182583 1.83415557 4.25202746 3.98845086-.09953265.98499282-.22292342 1.88563701-.37017233 2.70193256.40496958.06254341.75773125.37374223.61636461 1.20449911-.15240625.89563238-.70404494 1.07258228-1.1595426 1.08833324-.55147395 1.78647643-1.28936243 2.91365653-2.21356555 3.38213523.31879375.8753443.62624169 1.8106403.92163138 2.8047976-.56237649.5438186-1.19737898.815728-1.90500746.815728-.70754745 0-1.38135038-.2879254-2.02140879-.863776.22845783-.7731346.53288435-1.5850021.91327954-2.4356026l.11592483-.251658c-1.0143117-.4208476-1.82558058-1.5780107-2.43380664-3.47148917-.40143443-.06578225-.8184917-.30818727-.94786575-1.0684683-.11438454-.67219359.0947356-1.0042337.3934912-1.13969092-.15829435-.81047433-.29373745-1.7062594-.40593577-2.68633941-.23669052-2.18235201 1.73124947-4.0688522 4.24458587-4.0688522z"/><linearGradient id="r" x1="19.976793%" x2="50%" y1="34.813071%" y2="100%"><stop offset="0" stop-color="#d4d9dc"/><stop offset="1" stop-color="#c0c7cb"/></linearGradient><path id="s" d="m8.11460879 1.21259471c-3.44389994 1.40223602-5.96851119 4.97750554-7.05009143 8.67022494-.69053673 2.35762295-1.01207984 6.54001465-1.05797463 8.86731155-.20301712 10.2948752 4.38616708 7.4009162 4.36580443 8.3860736s-.70760696 2.1415202.03173961 2.2733038c.94618243.147286 6.91142163.5556732 7.56126413-.0086656.5122032-.4457355.4299017-3.2599922.4163813-4.5016081-.0135203-1.2416159-1.8705595-8.359298-.9861013-11.8758312.142985-.5684966.2290201-3.03149649.09138-3.68963201-.1812639-.86588618-.6302859-1.63952715-1.0048497-2.43564622-.74386023-1.57906141 2.2658681-1.3511213 2.3801908-3.10693606.113572-1.73177508.5112879-3.1960336.5067708-3.63637292-1.2070761-.22963854-2.9585807.12295421-5.25451401 1.05777822zm19.81129771 7.05063137c1.0179232 2.63491952 1.7509614 8.14692952 1.5357961 9.85046292-.8373067 6.6292298-5.3738061 6.8121499-6.3465089 5.2620368-.6539705-1.0421768-.2591372 5.8934314-.7143545 6.1435112-.4552172.2500798-1.413393.1685783-2.6792094-.0210768-1.2658164-.1896552-3.1181622.349833-3.8748064.0371042-.7566443-.3127287 1.1173505-8.5345805 1.6291245-11.5809325s-.2764936-9.72679146.0845291-11.79500482c.1579477-.90542178.4648188-1.81162027.3369551-2.7209174-.1233498-.87441357-1.5825181-1.77021805-1.1841781-1.75969594.1633406.00431463-.3795287-.46264868-.5149093-1.67871374 2.023918.07371799 3.8174824.4093051 5.3806931 1.00676131 2.3448161.89618432 4.8137184 3.2878674 6.3468687 7.25646477z"/><linearGradient id="t" x1="19.586404%" x2="50%" xlink:href="#o" y1="44.765361%" y2="67.234028%"/><linearGradient id="u" x1="19.586404%" x2="50%" xlink:href="#o" y1="43.129408%" y2="72.620083%"/><path id="v" d="m62.12088 173.009766c10.4877606 0 19.1042611-2.922078 25.8495013-8.766234 6.7452403-5.844156 10.1178604-13.419914 10.1178604-22.727273 0-8.831169-2.8939256-15.887446-8.6817769-21.168831-5.7878514-5.281385-12.5548505-7.922078-20.3009973-7.922078-5.8748867 0-11.2275612 1.666667-16.0580236 5l1.0444243-12.532467h30.1512665c4.0876459 0 7.5178183-3.08154 7.9542676-7.1458183l.6317682-5.8831169c.4717518-4.3930207-2.7070647-8.336698-7.1000854-8.8084498-.2837081-.0304664-.568843-.0457324-.8541822-.0457324h-43.1536443c-4.18026 0-7.6557772 3.2184052-7.9764298 7.386349l-2.7716904 36.0273094c-.3241085 4.212865 2.6838954 7.951386 6.8684923 8.536559l9.4038392 1.31503c2.1487017.30047 4.3272962-.284657 6.0363162-1.62124 2.9512843-2.308126 5.614784-3.462189 7.9904991-3.462189 3.0462376 0 5.6790572.952381 7.8984588 2.857143s3.3291024 4.545454 3.3291024 7.922078c0 2.987013-.9682683 5.51948-2.904805 7.597402-1.9365368 2.077922-4.6237534 3.116883-8.0616501 3.116883-3.575304 0-6.9197673-2.012668-10.0333898-6.038003-1.7244981-2.229457-4.4949634-3.386925-7.2929555-3.046912l-7.4206803.901761c-4.3860135.532987-7.509507 4.520626-6.9765183 8.90664.1220062 1.004.4332842 1.97576.9173397 2.863787 2.4275531 4.453483 4.9827792 7.640843 7.6656784 9.562078 6.6799637 4.78355 14.5893019 7.175325 23.7280145 7.175325z"/><filter id="w" height="114.4%" width="113%" x="-3.9%" y="-7.2%"><feGaussianBlur in="SourceAlpha" result="shadowBlurInner1" stdDeviation="4"/><feOffset dx="0" dy="-5" in="shadowBlurInner1" result="shadowOffsetInner1"/><feComposite in="shadowOffsetInner1" in2="SourceAlpha" k2="-1" k3="1" operator="arithmetic" result="shadowInnerInner1"/><feColorMatrix in="shadowInnerInner1" type="matrix" values="0 0 0 0 0.547098852   0 0 0 0 0.661320274   0 0 0 0 0.846813699  0 0 0 1 0"/></filter><mask id="x" fill="#fff"><path d="m0 0h280v220h-280z" fill="#fff" fill-rule="evenodd"/></mask><mask id="y" fill="#fff"><use fill="#fff" fill-rule="evenodd" xlink:href="#c"/></mask><mask id="z" fill="#fff"><use fill="#fff" fill-rule="evenodd" xlink:href="#k"/></mask><mask id="A" fill="#fff"><use fill="#fff" fill-rule="evenodd" xlink:href="#q"/></mask><mask id="B" fill="#fff"><use fill="#fff" fill-rule="evenodd" xlink:href="#s"/></mask></defs><g fill="none" fill-rule="evenodd"><g mask="url(#x)"><g transform="translate(-14 41)"><path d="m271.933337 81.4283842c-3.938953 30.6043028-42.35035 31.7759448-70.074833 40.7582818-22.586087 7.317611-40.41403 28.615232-85.120619 24.600127-44.7060907-4.015604-81.3784785-44.34031-68.9743698-89.0239442 12.4036096-44.6831355 67.5679858-68.7841896 129.7089418-42.3442347 62.140955 26.4399549 98.399833 35.4054672 94.46088 66.0097701z" fill="url(#a)" fill-rule="nonzero"/><g fill-rule="evenodd"><g fill="none" transform="translate(179 67)"><use fill="url(#b)" fill-rule="evenodd" xlink:href="#c"/><use fill="#000" filter="url(#d)" xlink:href="#c"/><path d="m-20.6958587 57.6288809c27.06195273 0 47.2194975-25.9848537 47.2194975-53.04680647 0-27.06195273-21.34778361-46.54876403-48.4097363-46.54876403-27.0619528 0-49 21.9380473-49 49.00000002 0 27.06195278 23.128286 50.59557048 50.1902388 50.59557048z" fill="#7486aa" fill-opacity=".598158" filter="url(#e)" mask="url(#y)" transform="matrix(.99026807 -.1391731 .1391731 .99026807 -1.305744 -3.010819)"/></g><path d="m.86190322 9.8421468c-.89440059-.26051869-1.09873035-.51473785-.58480983-.7277308l20.48558831-8.57390091c.8052079-.33864947 3.3250815-.54051372 6.7513329-.54051372h15.6509248c5.8003794-.00101833 12.4548879.56572657 14.8634836 1.26605497.0037721.00109678.0075323.00219355.0112808.00329032l28.9706991 8.45882235 1.9188992-2.60842506c5.8043193-.00000003 14.8611229 1.40318732 15.1823659 3.99143435.321243 2.588247-6.9635923 4.4267019-25.9832195 5.4739533-12.6797515.6981676-30.8568082-.3596168-54.5311702-3.1733532-5.8043205 0-12.4541266-.5677277-14.85268788-1.2680561z" fill="url(#f)" opacity=".402566" transform="translate(0 118.999872)"/><ellipse cx="152" cy="133.5" fill="url(#g)" rx="38" ry="7.5"/><ellipse cx="154" cy="132" fill="#8f93ae" fill-opacity=".296402" rx="10" ry="2"/><g fill="none" transform="translate(93)"><use fill="url(#h)" fill-rule="evenodd" xlink:href="#i"/><use fill="#000" filter="url(#j)" xlink:href="#i"/><use fill="url(#b)" fill-rule="evenodd" xlink:href="#k"/><use fill="#000" filter="url(#l)" xlink:href="#k"/><g fill="#85a0c3" fill-opacity=".644196"><circle cx="-10.5" cy="106.5" filter="url(#m)" mask="url(#z)" r="35"/><path d="m-9.5 53h23v3c0 6.627417-5.372583 12-12 12h-11z" filter="url(#n)" mask="url(#z)"/></g></g><g fill="none" transform="translate(128.5 33)"><path d="m14.4397442 45.4717615.0000002-.0000008c-.0794807.4807252-.1945537.9547165-.3442453 1.4179634-.1679978.454174-.4289935.874171-.582741 1.3336612-.4919944 1.4627725.1897472 3.0941601 1.2779814 4.2227464l.0000006.0000006c.9618037.985732 2.1781685 1.6774143 3.5099514 1.9959326.981737.2369601 2.0024732.2703769 3.0149671.3037955 2.8027142.0911384 5.6774098.1724037 8.3323906-.6903739l-.0000009.0000003c.8363925-.2779786 1.6468032-.6304949 2.4217162-1.0534077.2437465-.1108852.4582448-.2734154.6284927-.4731609.2024972-.276454.2279969-.6349326.2265565-.972144-.0060597-1.1377126-.2475563-2.2701064-.1898069-3.4062917.0314996-.6296138.154498-1.2584693.0944987-1.8865665-.1724976-1.4604949-1.2832311-2.6597233-2.7772175-2.9969428-.752989-.1549355-1.5344779-.0706322-2.3017181 0-1.9912225.1830364-3.9899331.2688576-5.990173.2567066-2.0437215-.0129114-4.0747025-.3113892-6.1079273-.3425275-.6014905-.0091138-.5894909.1686062-.78074.7253092l.0000004-.0000013c-.1761222.5121226-.3204017 1.0349121-.431994 1.565298z" fill="url(#p)" fill-rule="nonzero"/><path d="m21.5476123 22.8823472c.3387886.3329475.6980633.6628495 1.1424291.858656.4514568.1752358.9375788.2620919 1.4260635.2552348 1.1715794.0304759 2.4416424-.1706646 3.2563154-.9637966 1.0510337-1.0209405 1.0163657-2.6689186 1.8397029-3.8605221.0661819-.1081891.1575762-.2011402.265516-.2735215.1378792-.0708562.2938802-.1043797.4514567-.0975226 1.0400039-.0091427 1.9460668.6255161 2.7630998 1.2304611.3663656.271234.7421849.5516126.9730334.9325595.1615156.2971381.2726069.6156109.3277588.9447495.4057591 1.863595.5373346 3.7691037.6681235 5.6677312.071697 1.0483688.1433943 2.098259.138667 3.1489152-.0181212 3.4612861-.872971 6.8646623-1.7230959 10.2330033-.1103033.4342792-.2600008.9196061-.6791531 1.1276052l-.0000002.0000001c-.1875301.0790747-.3881979.1250065-.5924859.1356172-2.4361276.2689493-4.8769806.5386592-7.3288634.5744686h.0000022c-.9569929.0138168-1.9141826-.0080398-2.8694443-.0655211h-.0000001c-.1642647-.0020405-.327202-.0287723-.4829698-.0792373h-.0000002c-.2103615-.0944206-.3921256-.2394961-.5278809-.4213286-1.3260038-1.5725504-1.404004-3.7470057-1.395337-5.7545961.020485-4.9081249.2072127-9.8131962.5593968-14.713714.0283637-.4038055.0346669-.895226-.2749705-1.2136987.5578207.8403696 1.3338814 1.6167409 2.0634605 2.3344469z" fill="#fcfbff" fill-rule="nonzero"/><g transform="translate(20.5 .5)"><g transform="translate(.239554 2.072638)"><use fill="#f1d3c7" fill-rule="nonzero" xlink:href="#q"/><path d="m.98940732 8.94695217c.44796787 1.02519007.96134122 1.80812893 1.54012003 2.34881673.38508582.3597422.84561157.7658994 1.53307818.9682078.23052431.067839.63981141.1079718 1.22786131.1203985-.26762874.1153927-.48619098.1949287-.65568671.238608-.10984889.0283082-1.1345919.6330792-1.63429518 1.4890647-.44880985.7688057-.36924379 1.7888959-.58844438 1.9569248-.36335341.2785297-.8454591.3505484-1.44631707.2160562l2.44989039-3.8587773c-.57533445.0292815-1.09279212-.2905167-1.55237299-.9593948s-.75085873-1.5088463-.87383358-2.51990463z" fill="#edbaa8" mask="url(#A)"/></g><path d="m4.74510115 6.94378853c1.83685762.00192706 2.33132119-.66907266 3.09426998-.30262373.64379299.30921768.52310019 2.09636874.52310019 1.80698583 0-.73586893.98687855-4.70372356-3.0506165-4.40022452-4.03749504.30349903-4.80588531.5366837-4.80588531 1.27255263 0 .13019597.06250295 1.105531.18750883 2.9260051.18739592-.83573018.48174974-1.34368175.88306146-1.52385472.60799599-.27296597 1.33170372.21923236 3.16856135.22115941z" fill="#edbaa8"/><path d="m5.6431006 0c1.09694078.45058251 3.27530893 2.83730164 3.39034989 5.31653862.11504095 2.47923697-.48530082 3.01772588-.62045875 3.64753637-.04361612.18337831-.18162308.16074068-.14728613.00107044.08133577-1.05856488.25241209-2.42407936-.33802257-3.22380267-.70129899.38700889-1.97245275.64506284-3.4244217.64506284-1.2834234 0-2.42557347-.201621-3.15693582-.51502486-.68310213.9307462-.71124128 2.31761492-.51170302 3.0780739.02521324.09609004-.07091993.14617139-.13001091.01962464-.47860403-1.02495806-.96756466-3.19178809-.5412448-4.58324902.76673776-2.50254736 5.35769608-2.54783127 5.47973381-4.38583026z" fill="#495369" fill-rule="nonzero"/></g><g transform="translate(10.318909 16.127474)"><use fill="url(#r)" fill-rule="nonzero" xlink:href="#s"/><g fill="#a9b6be"><path d="m7.49986818 13.3384414c-.05351041 3.7712677.15193469 6.841049.61633529 9.2093439.6966009 3.5524422-2.89920281 4.7530237-3.76706117 4.4888531-.57857223-.1761137-.83135371-.888415-.75834444-2.1369039z" mask="url(#B)"/><path d="m26.4766709 11.7146524c-.9148618 3.2526807-1.0835203 5.7602157-.5059754 7.5226048.8663173 2.6435837-1.6118987 4.4402383-3.3691958 3.7693782s-2.5254181-2.1680422-1.6714874-4.1890927c.5692871-1.347367 2.4181733-3.7149971 5.5466586-7.1028903z" mask="url(#B)" transform="matrix(-.95630476 -.2923717 -.2923717 .95630476 51.125298 7.640727)"/></g></g><g fill-rule="nonzero"><path d="m5.15283764 43.26163c-1.22215273.0637179-2.89731431.9422877-3.66738321 1.8998963-.75964785.9465541-1.02247701 2.575232-.80117762 3.7715958.14000242.6392549.36930413 1.2564136.68109313 1.8331892.45406297.9112628 1.58681956 1.8730007 2.42986121 2.4566363.49265647.3421052 1.06401911.5546821 1.62705698.7642108l4.4407272 1.6495657c.65309377.2422918 1.30694317.4853455 1.96608967.7101129 3.3183077 1.1303142 6.772248 1.8073539 10.2693686 2.0130039 1.0670468.0624776 2.1492266.0800021 3.1890323-.159242.2474638-.0563824.5108199-.141718.6530912-.3474384.0847583-.1455276.134705-.3085794.1460567-.4754399l.2731928-1.8865263c.0385954-.2651498.0756769-.5447765-.022703-.7946883-.1256239-.3169609-.4389273-.5165839-.7386083-.685732-2.9188565-1.6533747-5.1046621-2.7044945-7.7968026-4.6447824-.6807866-.4906587-1.9885406-1.4877056-2.6915804-1.8511436-.7968789-.4114391-.8611993-.7004918-2.6623128-1.5294667-1.8011136-.8289749-3.62540628-2.1012556-5.57713718-2.5439331-.56170112-.1390857-1.13975762-.1995927-1.71786468-.1798182z" fill="url(#t)"/><path d="m11.7074634 46.8767207c1.6643103.5333285 8.6886234 4.231642 9.8925366 5.5224538-.1615684.0591664-5.6368461-3.0816594-5.80157-3.1324891-1.4933299-.458329-2.9952793-.920827-4.4133281-1.5916565-.2854903-.1358323-1.85411513-.7708279-1.78274118-1.1391605.07999975-.4158312 1.81019328.2466652 2.10509438.3416638z" fill="#000" opacity=".208919" transform="matrix(.99939083 .0348995 -.0348995 .99939083 1.733538 -.514339)"/><path d="m30.8485883 59.5973017h-.0000001c.0947538.005901.1888544-.0170791.2647985-.064666.0673334-.0717478.0973058-.1630093.0831995-.2533312l-.0079998-2.3093128c-.7975952-.3166634-1.6895915-.4179969-2.5655847-.5153295l-4.0847676-.4546622c.0935995.0106665-.6391961 1.4646519-.5263958 1.6593173.197599.3419968 1.7111913.6453268 2.1375892.8066596 1.484792.5619956 3.0271892 1.1799898 4.699183 1.1313223z" fill="#e6baaa"/><path d="m19.0336886 56.7001914c-.7348854.0498023-2.5152422.3955235-3.5132615.4187255-1.4158798.0329164-.8280578 1.8933877-.5575754 2.7689682.0396198.1777842.1355555.5381799.2498437.676703.1843848.1888955.3543883.3696876.5605627.2872021.7946436-.3179185 3.3516319.0326164 3.9017387-.2881356.2491479-.1703763.7129496-.3917047.9422882-.59023.4015772-.2782626.8477373-.4900201 1.3204077-.626689.8597571-.2812629 1.7482173-.471504 2.6499582-.5674267.3553012-.0169529.7065254-.0812594 1.0438314-.1911177.3321979-.1296343.6392516-.38742.7352535-.7407658.1272407-.4689047-.1340979-.9459606-.385532-1.356345-.3123868-.5111301-.6445847-1.050407-1.1116407-1.4267172-.6803953-.5489075-1.0171629-.1274118-1.7028913.2237116-1.2888587.6624818-3.3980979 1.3623143-4.1329832 1.4121166z" fill="#e6baaa"/><path d="m15.6655881 57.0857085-4.4442772-1.3113275c-.5408012-.1600068-1.0900769-.3200147-1.65398844-.3200147-.56314237 0-1.15324626.1847352-1.51840357.6131178-.34512644.4036543-.44373438.9556768-.52924479 1.4793354l-.18411889 1.1200463c-.0932151.5687525-.18720044 1.149139-.10245947 1.7193464.08397044.5709336.37517005 1.1404122.88284562 1.4167878.6147579.3345585 1.36818009.1716437 2.05458174.0312741 1.3866699-.2829214 2.796442-.4341994 4.2116307-.4509294.5315577-.0065457 1.0900769 0 1.5600037-.2480103.5592911-.2960128.8936329-.9207672.9506381-1.5491574.0878225-.9571317-.2318821-2.2066378-1.2272029-2.5004696zm16.4197157-1.390605c.6132168-.1018224 1.1555592-.4305634 1.742581-.6247543.8273788-.2727397 1.7240938-.2727397 2.6000061-.2698299.3220161.0007272.6648324.0072729.9321509.1760076.3867266.2429193.4853345.7280311.5508167 1.1615043l.396742 2.6146619c.0739558.4916561.1479114.9964061.0323555 1.4807903-.1163262.4843841-.4668447.9520409-.9760613 1.0764098-.6186092.1527337-1.2248927-.2211003-1.8096043-.4654731-1.4598546-.6131178-3.1569761-.4560202-4.6792526-.9142214-.2827263-.0850945-.5854835-.2145545-.7010375-.4727476l-.0000001-.0000001c-.0517588-.1449739-.0701435-.2987079-.053926-.4509294.0261926-.8407634-.1617781-1.9884475.1063113-2.7921126.2411264-.7222115 1.1740463-.5192938 1.8589096-.5192938z" fill="#566282"/><path d="m42.1656406 42.9255774c1.3046742-.2531985 2.0517934-.3353157 3.0025906-.2318715.7590901.0832242 1.3662709.4470965 1.920811.9697728.6750925.6362374.891307 1.619368.9099741 2.5433883.0290295 1.8421463-.472075 4.1888455-1.6241465 5.6265021-.2818157.3645821-.6165839.6849486-.9931951.9504649-.4069533.253004-.8404187.4606209-1.2926305.6191251l-9.9231122 3.6044144c-2.6389249 1.0344668-5.5097079 1.8487913-8.2621882 2.5309234-.3139355.1500081-.6900272.0171067-.840028-.2968448-.0010318-.0021596-.0020514-.0043251-.0030585-.0064964-.8785185-1.2471837-1.6159366-2.5880084-2.1987138-3.997853-.0947007-.1139912-.0790671-.2831726.0349184-.3778798.0251505-.0208964.0539083-.0370196.0848559-.0475751l7.0954738-4.0523233c.5078739-.2901181 1.021971-.5849011 1.4442914-.9893541.3064354-.2955624.5576517-.6424583.7411996-1.0259108.1477734-.304895.0237015-1.7689.2111403-1.9952401.184328-.220116.8135327-.2380052 1.1044127-.3251189.4098766-.1244471.8112003-.2753384 1.2016333-.4511216 1.5866225-.7062389 3.0897863-1.2110167 4.6110672-2.0378141.9800202-.5039927 1.9049217-.8403885 2.7747045-1.0091875z" fill="url(#u)"/><path d="m38.1570174 45.884002c-1.129626.8064683-2.592584 1.5474883-3.7125901 2.3750431-.38222.2821536-6.754037 3.6840212-6.8444273 4.13633 1.0444414.1672566 7.7007001-4.2548527 8.6533006-4.6962705.951848-.4414127 1.7962901-1.0638972 2.6325942-1.6812942.2133326-.1578029 1.1170323-.630484.5044434-.8071943-.344444-.0981724-.9785145.5126772-1.2333286.6741171z" fill="#000" opacity=".225947"/><path d="m20.4 17.6h9.6c.6627417 0 1.2.5372583 1.2 1.2v10.8c0 .6627417-.5372583 1.2-1.2 1.2h-9.6c-.6627417 0-1.2-.5372583-1.2-1.2v-10.8c0-.6627417.5372583-1.2 1.2-1.2z" fill="#485379"/><path d="m14.0685471 42.6273077c.5522457.2449582 1.185367.2286087 1.7242315-.0445261.5254295-.2727249.9582133-.6950908 1.2436582-1.2137187.5842116-1.003371.705506-2.2032712.6325761-3.3547989-.0729305-1.1500001.0664442-2.3335957-.0456389-3.4812855-.0806075-.8344786.2141179-3.4313841.3039376-3.5856916.1305075-.1719627.6510364-1.0324431 1.0040959-1.4266667 1.1352341-1.2675938 1.579193-2.6051688 1.185617-4.0814319-.393576-1.4762632-1.498904-.6004299-2.2604184.087845-.7615144.688275-1.6528528 1.5652663-1.8808001 3.2265965-.1059412.8091439-.5737787 2.8834265-.7994805 3.6695406-.4836448 1.6758665-1.8712705 2.6535586-2.6243691 4.1620602-.8291054 1.6620481-.493982 3.6008142.5139937 5.0717201.2656158.3853764.5757616.7623115 1.002597.970357zm19.7138744-4.201942c-.4805734.1972963-1.0102805.2303069-1.5108151.0944257-2.1808827-1.2460398-1.2759011-4.0618485-.8743995-5.1166445.1550734-.4068769.363886-.7922569.4859469-1.2106473.120338-.4831751.1819425-.9791024.1834779-1.4770351l.1320429-3.0807516c.0219395-.2235654.006896-.4492182-.0445263-.667892-.1320426-.4452608-.5404541-.7354475-.9143181-1.0010689-.9043401-.6417899-1.7979306-1.3910532-2.2362822-2.422061-.1507472-.3117349-.2044995-.6615272-.1543057-1.0041376.1228304-.6110817.7277694-1.0072088 1.3258021-1.1407887.7913152-.175876 1.620129-.0145634 2.2877181.4452608.6750326.4659884 1.132552 1.1855042 1.2682235 1.9944593.0591121.3477626.0583445.7032036.0921227 1.0540376.0736984.7446589.305541 1.4624502.4506345 2.1955929.3569768 1.8079106.8781082 3.3933191 1.2312456 5.2004552.2947939 1.5108146.7010314 2.7789068.0154838 4.4317381-.3255843.7801731-.9524252 1.394831-1.7380511 1.7050571z" fill="#e6baaa"/></g></g></g></g></g><g mask="url(#x)"><use fill="url(#b)" fill-rule="evenodd" xlink:href="#v"/><use fill="#000" filter="url(#w)" xlink:href="#v"/></g></g></svg>