<?xml version="1.0" encoding="UTF-8"?>
<svg width="90px" height="60px" viewBox="0 0 90 60" version="1.1" xmlns="http://www.w3.org/2000/svg" xmlns:xlink="http://www.w3.org/1999/xlink">
    <title>编组 70</title>
    <g id="Perfma-Design_PC组件库-" stroke="none" stroke-width="1" fill="none" fill-rule="evenodd">
        <g id="空页" transform="translate(-1193.000000, -474.000000)">
            <g id="编组-70" transform="translate(1193.000000, 474.000000)">
                <rect id="矩形" x="0" y="0" width="90" height="60"></rect>
                <g id="暂无数据" transform="translate(10.000000, 8.000000)" fill-rule="nonzero">
                    <path d="M34.2305242,44.9275904 C53.1354312,44.9275904 68.4610483,41.5751366 68.4610483,37.439644 C68.4610483,33.3041646 53.1353873,29.9516977 34.2305242,29.9516977 C22.3674905,29.9516977 11.9132701,31.2717133 5.77157201,33.2774099 C2.12601833,34.4674558 0,35.8992551 0,37.4396309 C0,41.5751103 15.325661,44.9275904 34.2305242,44.9275904 L34.2305242,44.9275904 Z" id="路径" fill="#F1F3F4"></path>
                    <path d="M22.5632589,0 L22.439708,0.00320911987 C21.5347374,0.0486715416 20.6944861,0.594221919 20.1045439,1.47512298 L20.052663,1.55588558 L9.09248084,13.982664 L9.09248084,24.603213 L59.368385,24.603213 L59.368385,13.982664 L48.4082028,1.55645595 L48.4349454,1.59763955 C47.817191,0.602813707 46.8908271,0 45.8976071,0 L22.5630766,0 L22.5632589,0 Z" id="路径" fill="#E6EBF1"></path>
                    <path d="M22.5632589,1.06965441 L45.8977894,1.06965441 C46.4893375,1.06965441 47.0910469,1.46121854 47.5264146,2.16240792 L47.5798999,2.23354313 L58.2988596,14.3875093 L58.2988596,23.5334768 L10.1622809,23.5334768 L10.1622809,14.385886 L20.8812406,2.23402575 L20.9347259,2.16235571 C21.3700958,1.46170029 21.971803,1.06965441 22.5633511,1.06965441 L22.5632589,1.06965441 Z" id="路径" fill="#FFFFFF"></path>
                    <path d="M10.162191,33.8353018 L10.162191,14.9758927 L21.5652434,14.9758927 C22.5172783,14.9758927 23.3660895,16.0530843 23.4104818,17.4592126 L23.4120864,17.5961347 C23.4120864,19.5226728 24.6176419,21.1454144 26.21097,21.231527 L26.3264979,21.2347362 L42.1206958,21.2347362 C43.7241808,21.2347362 44.9848297,19.6569222 45.0463375,17.7319899 L45.0490117,17.5768827 C45.0490117,16.1611283 45.8710813,15.0309844 46.8241868,14.9775013 L46.9102982,14.9758927 L58.2989159,14.9758927 L58.2989159,33.8422818 C58.2989159,35.8025156 57.1366821,37.3765871 55.7637142,37.4375596 L55.6669058,37.439699 L12.7824678,37.439699 C11.408969,37.439699 10.214641,35.9207165 10.1638298,33.9701132 L10.162191,33.8347956 L10.162191,33.8353018 Z" id="路径" fill="#FAFAFA"></path>
                    <path d="M10.162191,33.8353018 L10.162191,14.9758927 L21.5652434,14.9758927 C22.5172783,14.9758927 23.3660895,16.0530843 23.4104818,17.4592126 L23.4120864,17.5961347 C23.4120864,19.5226728 24.6176419,21.1454144 26.21097,21.231527 L26.3264979,21.2347362 L42.1206958,21.2347362 C43.7241808,21.2347362 44.9848297,19.6569222 45.0463375,17.7319899 L45.0490117,17.5768827 C45.0490117,16.1611283 45.8710813,15.0309844 46.8241868,14.9775013 L46.9102982,14.9758927 L58.2989159,14.9758927 L58.2989159,33.8422818 C58.2989159,35.8025156 57.1366821,37.3765871 55.7637142,37.4375596 L55.6669058,37.439699 L12.7824678,37.439699 C11.408969,37.439699 10.214641,35.9207165 10.1638298,33.9701132 L10.162191,33.8347956 L10.162191,33.8353018 Z M9.09248435,13.9061776 L9.09248435,33.8422778 L9.09462377,33.9904318 C9.15880617,36.4758884 10.7580152,38.509384 12.7824287,38.509384 L55.678669,38.509384 L55.7990109,38.5067097 C57.8239597,38.4168545 59.3686132,36.3245144 59.3686132,33.8427959 L59.3686132,13.9061776 L46.8958542,13.9061776 L46.7797914,13.9093867 C45.2137446,13.9954981 44.0349306,15.5674298 43.9809078,17.4426214 L43.9771639,17.7063034 C43.9322363,19.0963824 43.078612,20.1650184 42.1201582,20.1650184 L26.341492,20.1650184 L26.2548458,20.162879 C25.3365065,20.113138 24.5342244,19.0701777 24.4844837,17.7271631 L24.4802049,17.4335292 C24.4186971,15.4946887 23.1676787,13.9061776 21.5657951,13.9061776 L9.09248435,13.9061776 L9.09248435,13.9061776 Z" id="形状" fill="#E6EBF1"></path>
                </g>
            </g>
        </g>
    </g>
</svg>