<?xml version="1.0" encoding="UTF-8"?>
<svg width="161px" height="110px" viewBox="0 0 161 110" version="1.1" xmlns="http://www.w3.org/2000/svg" xmlns:xlink="http://www.w3.org/1999/xlink">
    <title>staff</title>
    <defs>
        <rect id="path-1" x="0" y="0" width="160" height="110"></rect>
        <rect id="path-3" x="0" y="0.977851781" width="160" height="109.009009"></rect>
        <linearGradient x1="50%" y1="-32.8130387%" x2="50%" y2="78.8882452%" id="linearGradient-5">
            <stop stop-color="#E2E7EF" offset="0%"></stop>
            <stop stop-color="#E9EDF3" stop-opacity="0.991407274" offset="36.7797425%"></stop>
            <stop stop-color="#F6F7FA" stop-opacity="0" offset="100%"></stop>
        </linearGradient>
        <linearGradient x1="50%" y1="-15.38682%" x2="50%" y2="78.8882452%" id="linearGradient-6">
            <stop stop-color="#E2E7EF" offset="0%"></stop>
            <stop stop-color="#E9EDF3" stop-opacity="0.991407274" offset="36.7797425%"></stop>
            <stop stop-color="#F6F7FA" stop-opacity="0" offset="100%"></stop>
        </linearGradient>
        <linearGradient x1="39.859765%" y1="-29.0884882%" x2="79.4541386%" y2="106.799494%" id="linearGradient-7">
            <stop stop-color="#ECF2FC" offset="0%"></stop>
            <stop stop-color="#EFF5FF" offset="47.1032629%"></stop>
            <stop stop-color="#FAFBFE" offset="84.9315726%"></stop>
            <stop stop-color="#FFFFFF" stop-opacity="0" offset="100%"></stop>
        </linearGradient>
        <path d="M77.3666006,9.8268037 C77.7761226,9.89628553 78.0554859,10.3075456 77.9906542,10.7454957 C71.8593512,45.3514031 68.278284,64.224855 67.2474528,67.3658514 C63.1614386,79.8187524 55.1774627,82.3747154 42.9261701,80.7806244 L2.33523563,71.6454833 C1.92286502,71.5903854 1.6303408,71.1882411 1.68186535,70.7472692 C1.69515368,70.6335409 1.73100851,70.5241595 1.78702918,70.4264493 C9.06464708,57.786368 9.8681993,54.5295176 11.5503946,43.1759833 L17.7443672,1.35544412 C17.8739451,0.479306664 18.6431691,-0.118612516 19.4624858,0.0199517221 L77.3666006,9.8268037 Z" id="path-8"></path>
        <filter x="-6.6%" y="-6.2%" width="113.1%" height="112.3%" filterUnits="objectBoundingBox" id="filter-9">
            <feGaussianBlur stdDeviation="5" in="SourceAlpha" result="shadowBlurInner1"></feGaussianBlur>
            <feOffset dx="0" dy="0" in="shadowBlurInner1" result="shadowOffsetInner1"></feOffset>
            <feComposite in="shadowOffsetInner1" in2="SourceAlpha" operator="arithmetic" k2="-1" k3="1" result="shadowInnerInner1"></feComposite>
            <feColorMatrix values="0 0 0 0 0.750914869   0 0 0 0 0.857617477   0 0 0 0 0.922117814  0 0 0 1 0" type="matrix" in="shadowInnerInner1"></feColorMatrix>
        </filter>
        <linearGradient x1="50%" y1="98.8339591%" x2="50%" y2="25.2835813%" id="linearGradient-10">
            <stop stop-color="#C4D0E1" offset="0%"></stop>
            <stop stop-color="#D2DDED" offset="42.6450085%"></stop>
            <stop stop-color="#E5EEFD" offset="100%"></stop>
        </linearGradient>
        <path d="M57.1834332,68.5196095 C60.4303148,69.5728267 64.6099682,72.1291464 66.9234913,70.7250512 C61.3527619,83.664462 49.4297145,81.6961603 42.8804024,80.5216956 C38.5141943,79.7387191 32.813925,78.0744963 25.7795946,75.5290272 C30.7254,74.6088454 36.2969292,71.1323548 38.990549,69.158537 C41.6841687,67.1847193 44.6584421,63.8873588 46.3585381,61.9199439 C50.9620255,65.418118 53.9365515,67.4663923 57.1834332,68.5196095 Z" id="path-11"></path>
        <filter x="-3.6%" y="-14.3%" width="107.3%" height="122.0%" filterUnits="objectBoundingBox" id="filter-12">
            <feMorphology radius="1" operator="erode" in="SourceAlpha" result="shadowSpreadOuter1"></feMorphology>
            <feOffset dx="-3" dy="-2" in="shadowSpreadOuter1" result="shadowOffsetOuter1"></feOffset>
            <feGaussianBlur stdDeviation="1" in="shadowOffsetOuter1" result="shadowBlurOuter1"></feGaussianBlur>
            <feColorMatrix values="0 0 0 0 0.796078431   0 0 0 0 0.839215686   0 0 0 0 0.905882353  0 0 0 0.819274476 0" type="matrix" in="shadowBlurOuter1"></feColorMatrix>
        </filter>
        <filter x="-14.6%" y="-37.5%" width="129.2%" height="168.3%" filterUnits="objectBoundingBox" id="filter-13">
            <feGaussianBlur stdDeviation="4" in="SourceAlpha" result="shadowBlurInner1"></feGaussianBlur>
            <feOffset dx="0" dy="-4" in="shadowBlurInner1" result="shadowOffsetInner1"></feOffset>
            <feComposite in="shadowOffsetInner1" in2="SourceAlpha" operator="arithmetic" k2="-1" k3="1" result="shadowInnerInner1"></feComposite>
            <feColorMatrix values="0 0 0 0 0.774556672   0 0 0 0 0.866311394   0 0 0 0 0.921775928  0 0 0 1 0" type="matrix" in="shadowInnerInner1"></feColorMatrix>
        </filter>
        <linearGradient x1="54.0414224%" y1="-7.98351017%" x2="50%" y2="114.942761%" id="linearGradient-14">
            <stop stop-color="#C4D0E1" offset="0%"></stop>
            <stop stop-color="#E5EEFD" offset="100%"></stop>
        </linearGradient>
        <circle id="path-15" cx="20.5344828" cy="20.6724138" r="20.5"></circle>
        <filter x="-7.3%" y="-7.3%" width="129.3%" height="126.8%" filterUnits="objectBoundingBox" id="filter-17">
            <feOffset dx="4" dy="3" in="SourceAlpha" result="shadowOffsetOuter1"></feOffset>
            <feGaussianBlur stdDeviation="1" in="shadowOffsetOuter1" result="shadowBlurOuter1"></feGaussianBlur>
            <feColorMatrix values="0 0 0 0 0.664034099   0 0 0 0 0.752357947   0 0 0 0 0.804698004  0 0 0 0.758295659 0" type="matrix" in="shadowBlurOuter1"></feColorMatrix>
        </filter>
        <linearGradient x1="57.1325803%" y1="42.9072282%" x2="50%" y2="52.4491004%" id="linearGradient-18">
            <stop stop-color="#E2E7EF" offset="0%"></stop>
            <stop stop-color="#E9EDF3" stop-opacity="0.991407274" offset="36.7797425%"></stop>
            <stop stop-color="#F6F7FA" stop-opacity="0" offset="100%"></stop>
        </linearGradient>
        <linearGradient x1="50%" y1="0%" x2="50%" y2="93.6243589%" id="linearGradient-19">
            <stop stop-color="#E2E7EF" offset="0%"></stop>
            <stop stop-color="#E9EDF3" stop-opacity="0.991407274" offset="50.8374139%"></stop>
            <stop stop-color="#F6F7FA" stop-opacity="0" offset="100%"></stop>
        </linearGradient>
    </defs>
    <g id="Perfma-Design_PC组件库-" stroke="none" stroke-width="1" fill="none" fill-rule="evenodd">
        <g id="空页" transform="translate(-161.000000, -1297.000000)">
            <g id="编组-68" transform="translate(161.500000, 1297.000000)">
                <mask id="mask-2" fill="white">
                    <use xlink:href="#path-1"></use>
                </mask>
                <g id="蒙版"></g>
                <g id="编组-8" mask="url(#mask-2)">
                    <g transform="translate(2.500000, 6.000000)">
                        <g id="编组-27" stroke-width="1" fill="none">
                            <mask id="mask-4" fill="white">
                                <use xlink:href="#path-3"></use>
                            </mask>
                            <g id="蒙版"></g>
                            <g mask="url(#mask-4)">
                                <g transform="translate(9.000000, 3.972973)">
                                    <g id="编组-22备份-4" transform="translate(12.583648, 0.000000)">
                                        <ellipse id="椭圆形备份-11" fill="url(#linearGradient-5)" cx="14.3209877" cy="39.6866602" rx="14.3209877" ry="14.1919697"></ellipse>
                                        <path d="M82.6422985,7.98298298 C92.7758733,7.98298298 101.504717,13.9431692 105.453971,22.519088 C108.1005,20.628408 111.35118,19.5139584 114.864521,19.5139584 C123.762442,19.5139584 130.975632,26.6621648 130.975632,35.4799244 C130.975632,44.2976839 123.762442,51.4458903 114.864521,51.4458903 C110.387041,51.4458903 106.336162,49.6358544 103.416314,46.7138686 C98.9131958,53.3152817 91.2891376,57.6548771 82.6422985,57.6548771 C68.8010881,57.6548771 57.5805701,46.5354448 57.5805701,32.81893 C57.5805701,19.1024152 68.8010881,7.98298298 82.6422985,7.98298298 Z" id="形状结合备份-6" fill="url(#linearGradient-6)" transform="translate(94.278101, 32.818930) rotate(13.000000) translate(-94.278101, -32.818930) "></path>
                                        <polygon id="星形备份-7" fill="#DDE3EE" points="101.407458 51.8453581 100.471473 53.5413208 99.535488 51.8453581 97.8241075 50.9178053 99.535488 49.9902525 100.471473 48.2942898 101.407458 49.9902525 103.118839 50.9178053"></polygon>
                                        <polygon id="星形备份-8" fill="#DDE3EE" points="21.5328696 7.30532118 20.0174652 10.0511656 18.5020607 7.30532118 15.7312541 5.80356901 18.5020607 4.30181684 20.0174652 1.55597243 21.5328696 4.30181684 24.3036762 5.80356901"></polygon>
                                        <polygon id="星形备份-9" fill="#DDE3EE" opacity="0.5" points="34.7190562 14.6788881 33.7830711 16.3748508 32.847086 14.6788881 31.1357055 13.7513352 32.847086 12.8237824 33.7830711 11.1278197 34.7190562 12.8237824 36.4304368 13.7513352"></polygon>
                                    </g>
                                    <g id="暂无人员" transform="translate(26.000000, 0.027027)">
                                        <g id="路径">
                                            <use fill="url(#linearGradient-7)" fill-rule="evenodd" xlink:href="#path-8"></use>
                                            <use fill="black" fill-opacity="1" filter="url(#filter-9)" xlink:href="#path-8"></use>
                                        </g>
                                        <g id="路径" transform="translate(46.351543, 71.649731) rotate(-6.000000) translate(-46.351543, -71.649731) ">
                                            <use fill="black" fill-opacity="1" filter="url(#filter-12)" xlink:href="#path-11"></use>
                                            <use fill="url(#linearGradient-10)" fill-rule="evenodd" xlink:href="#path-11"></use>
                                            <use fill="black" fill-opacity="1" filter="url(#filter-13)" xlink:href="#path-11"></use>
                                        </g>
                                        <path d="M52.2340354,49.8113943 L59.6538695,51.2734069 L59.6538696,51.2734069 C60.0622319,51.3541949 60.3281227,51.752457 60.2477543,52.1629467 C60.2248321,52.2800245 60.1747203,52.3900023 60.1015012,52.4839222 L59.1391656,53.7156514 L59.1391657,53.7156512 C58.0752721,55.0760465 56.3607725,55.748956 54.6613388,55.473097 L49.7999412,54.6852749 L49.7999411,54.6852748 C49.3890345,54.6187875 49.1095482,54.230045 49.1756906,53.8169951 C49.1922794,53.7134 49.2300973,53.6143997 49.2867472,53.5262677 L51.4555725,50.1439394 L51.4555725,50.1439395 C51.6226669,49.8830661 51.9311255,49.7509947 52.2340293,49.8106299 L52.2340354,49.8113943 Z M46.5572519,40.6711636 L63.2447078,43.8277537 L63.2447078,43.8277537 C63.653729,43.9050973 63.9229332,44.3011046 63.8459904,44.71226 C63.8280106,44.808338 63.7916998,44.9000093 63.7390614,44.9822157 L62.8106372,46.4298383 L62.8106373,46.4298382 C61.8829196,47.8763334 60.1739571,48.6111525 58.4925742,48.2865222 L44.3642878,45.5579286 L44.3642877,45.5579286 C43.9555633,45.4790148 43.6878666,45.0819766 43.7663708,44.6711194 C43.7817831,44.5904577 43.8101433,44.5128523 43.8503404,44.4413429 L45.7621978,41.0431066 L45.7621978,41.0431066 C45.9209963,40.7612271 46.2405291,40.612044 46.5572342,40.6719216 L46.5572519,40.6711636 Z M47.2430158,19.3262664 L65.8506216,22.2881705 L65.8506217,22.2881705 C66.2615733,22.3537129 66.5419118,22.7416552 66.4768538,23.1547743 L65.8875472,26.8961676 L65.8875472,26.8961676 C65.8219778,27.3089565 65.436165,27.5903335 65.025442,27.5249103 L46.4178363,24.5630061 L46.4178362,24.5630061 C46.0068846,24.4974638 45.7265461,24.1095215 45.7916041,23.6964024 L46.3809107,19.9550091 L46.3809107,19.9550091 C46.4464802,19.5422202 46.832293,19.2608431 47.2430159,19.3262663 L47.2430158,19.3262664 Z" id="形状" fill="url(#linearGradient-14)"></path>
                                        <g id="空状态_暂无人员" transform="translate(0.965517, 14.827586)">
                                            <mask id="mask-16" fill="white">
                                                <use xlink:href="#path-15"></use>
                                            </mask>
                                            <g id="蒙版">
                                                <use fill="black" fill-opacity="1" filter="url(#filter-17)" xlink:href="#path-15"></use>
                                                <use fill="#FFFFFF" fill-rule="evenodd" xlink:href="#path-15"></use>
                                            </g>
                                            <g mask="url(#mask-16)" id="路径">
                                                <g transform="translate(4.034483, 5.172414)">
                                                    <path d="M1.58484592,32.2173913 L1.58484585,32.2173913 C1.45931116,32.2173913 1.33422208,32.2030504 1.21221025,32.1747205 C0.37207085,31.9797806 -0.148114475,31.1757963 0.0375598987,30.3697219 L0.0447888209,30.3399869 L0.330578816,29.2068278 L0.33057857,29.2068288 C0.783954294,27.4090264 2.06574768,25.9069826 3.81333468,25.125632 L3.86799722,25.101502 L11.1813889,21.9123545 L11.1813891,21.9123545 C12.2981982,21.4253421 13.0216598,20.3636799 13.038628,19.1869016 L13.038925,19.1449116 L13.038925,13.2173913 L20.9610316,13.2173913 L20.9610316,19.1449116 L20.9610316,19.1449503 C20.9610314,20.3370664 21.6873403,21.4191678 22.8186022,21.9124644 L30.131994,25.1015169 L30.1319941,25.1015169 C31.9064568,25.8752961 33.2110694,27.3893574 33.6694127,29.2068437 L33.9552027,30.3400028 C34.1609795,31.1558621 33.6383185,31.9773265 32.7876823,32.1747363 L32.7876823,32.1747363 C32.6657027,32.2030589 32.5406473,32.2173913 32.4151457,32.2173913 L1.58483203,32.2173913 L1.58484592,32.2173913 Z" fill="#D7DEEA" fill-rule="nonzero"></path>
                                                    <path d="M30.1319899,25.1545628 C31.9064547,25.9674881 33.2110685,27.5581469 33.6694124,29.4675812 L33.9552027,30.6580677 C34.1609796,31.515202 33.6383181,32.3782249 32.787681,32.5856219 C32.6657013,32.6153772 32.5406457,32.6304203 32.4151441,32.6304348 C25.5067219,36.0951021 20.326524,37.8274358 16.8745504,37.8274358 C13.475347,37.8274358 8.37877942,36.0951021 1.58484758,32.6304348 C1.45931269,32.6304282 1.33422348,32.6153851 1.21221152,32.585622 C0.37207124,32.38082 -0.14811463,31.5361614 0.037559938,30.6893071 L0.0447888679,30.6580678 L0.330579163,29.4675813 C0.783955116,27.5788278 2.06574984,26.0007945 3.81333868,25.1799147 L3.86800127,25.154564 L10.9910719,21.8913043 C11.83448,24.4207899 14.2061632,26.2428491 17,26.2428491 C19.7659034,26.2428491 22.1179793,24.4570195 22.9831733,21.9670583 L23.0089202,21.8913043 L30.1319899,25.1545628 Z" fill="#008AFF" fill-rule="nonzero"></path>
                                                    <path d="M22.5560976,4.95652174 L22.5560976,10.5326087 C23.380525,10.5326087 24.0487805,11.233337 24.0487805,12.0978261 C24.0487805,12.9519457 23.3962915,13.646413 22.5854848,13.66275 L22.5552579,13.6630435 L22.5560976,13.5652174 C22.5560976,17.0229783 19.882889,19.826087 16.5853659,19.826087 C13.3190024,19.826087 10.6651988,17.0757065 10.6153805,13.6630435 C9.79020671,13.6630435 9.12195122,12.9623152 9.12195122,12.0978261 C9.12195122,11.2437065 9.77444024,10.5492391 10.585247,10.5329022 L10.6146341,10.5326087 L10.6146341,4.95652174 L22.5560976,4.95652174 Z" fill="#E8ECF2" fill-rule="nonzero"></path>
                                                    <path d="M10.0106865,11.1636274 C9.58875958,10.1596006 9.33438621,9.09070025 9.25807775,8.00112957 L9.12987186,6.17147332 C9.04497958,4.95939344 9.64783224,3.80471452 10.6813169,3.19989787 L10.7187983,3.1783356 C11.4380152,1.95587763 12.7152544,1.18792775 14.1123142,1.1379572 C17.5612638,1.22768869 20.4792785,0.99086117 22.8663583,0.42747464 C22.7357372,1.4623387 22.5092491,1.83544227 23.2479877,2.77601302 C23.9867264,3.71658377 24.1242767,4.86468949 24.0381798,6.09404246 L23.8828719,8.31064336 C23.82075,9.19745169 23.6405962,10.0715222 23.3473675,10.9087948 L22.8282009,12.3913043 L22.3399806,6.91350792 C22.3015479,6.4822484 21.9275785,6.16441521 21.5046961,6.20360953 C21.4528938,6.20841073 21.4017027,6.21856061 21.3519105,6.23390314 C19.9041642,6.67985 18.3459917,6.90272541 16.6773929,6.90272541 C15.0087942,6.90272541 13.4506216,6.67975199 12.0028753,6.23390314 C11.5963838,6.10870869 11.1673361,6.3432738 11.0445746,6.75781717 C11.0295487,6.80855711 11.0196064,6.86072015 11.0149003,6.91350555 L10.5265839,12.3913043 L10.0106865,11.1636274 Z" fill="#AFBED6" fill-rule="evenodd"></path>
                                                </g>
                                            </g>
                                        </g>
                                        <path d="M21.4655172,55.8275862 C32.7873546,55.8275862 41.9655172,46.6494236 41.9655172,35.3275862 C41.9655172,24.0057488 32.7873546,14.8275862 21.4655172,14.8275862 C10.1436799,14.8275862 0.965517241,24.0057488 0.965517241,35.3275862 C0.965517241,46.6494236 10.1436799,55.8275862 21.4655172,55.8275862 Z" id="椭圆形" stroke="#B0C3D4" stroke-width="2" stroke-linecap="round" stroke-dasharray="2,5"></path>
                                    </g>
                                    <g id="编组-23备份-4" transform="translate(0.000000, 53.878630)"></g>
                                </g>
                            </g>
                        </g>
                        <path d="M113.327475,79.2893318 C130.63727,79.2893318 145.659899,89.0043809 153.157722,103.238281 L73.4972279,103.238281 C80.9950509,89.0043809 96.0176793,79.2893318 113.327475,79.2893318 Z" id="路径备份-4" fill="url(#linearGradient-18)"></path>
                        <path d="M35.898554,62.4077083 C47.2013456,62.4077083 56.7565481,69.8226188 59.8811566,80.0116244 C62.228393,78.6861015 64.9458455,77.9289399 67.8417503,77.9289399 C71.3640666,77.9289399 74.6223791,79.0490913 77.2737435,80.9495392 C80.8801658,76.9205701 86.1450149,74.3809475 92.008417,74.3809475 C102.883654,74.3809475 111.699775,83.1176443 111.699775,93.8949059 C111.699775,104.672168 102.883654,113.408864 92.008417,113.408864 C86.1450149,113.408864 80.8801658,110.869242 77.2728482,106.839435 C74.6223791,108.740721 71.3640666,109.860872 67.8417503,109.860872 C62.5476419,109.860872 57.8499355,107.330376 54.9130708,103.423333 C50.3164864,108.72319 43.5030496,112.079602 35.898554,112.079602 C22.0573436,112.079602 10.8368256,100.96017 10.8368256,87.2436554 C10.8368256,73.5271406 22.0573436,62.4077083 35.898554,62.4077083 Z" id="形状结合备份-7" fill="url(#linearGradient-19)" transform="translate(61.268300, 87.908286) rotate(-4.000000) translate(-61.268300, -87.908286) "></path>
                    </g>
                </g>
            </g>
        </g>
    </g>
</svg>