<svg height="220" viewBox="0 0 280 220" width="280" xmlns="http://www.w3.org/2000/svg" xmlns:xlink="http://www.w3.org/1999/xlink"><defs><linearGradient id="a" x1="88.284201%" x2="0%" y1="50%" y2="50%"><stop offset="0" stop-color="#a6b5cc" stop-opacity=".712636"/><stop offset="1" stop-color="#8f9baf" stop-opacity="0"/></linearGradient><linearGradient id="b" x1="60.237336%" x2="65.001078%" y1="87.612799%" y2="58.6578%"><stop offset="0" stop-color="#d4e1f6" stop-opacity="0"/><stop offset="1" stop-color="#fff"/></linearGradient><path id="c" d="m0 0h132.188552v110.30303h-132.188552z"/><linearGradient id="d" x1="57.591578%" x2="50%" y1="88.885829%" y2="-9.542246%"><stop offset="0" stop-color="#d4e1f6" stop-opacity="0"/><stop offset=".663972018" stop-color="#fff" stop-opacity=".555872"/><stop offset="1" stop-color="#fff"/></linearGradient><path id="e" d="m56.4525538 21.2691668c18.3015667 6.5420976 30.7707669 15.4015623 37.3640731 26.6705201 5.0212577 8.5820889 4.2261899 17.3631984-1.1815868 27.4104338-.2885639.5361297-.5742392 1.0539195-.8638442 1.5638228l-.4877392.8447659-.4877159.8172965-.3785401.6165366-.259945.4150396-.403311.6316733-.5669828.8657342-.4506912.6723369-.6400351.9350973-.8719768 1.2448935-.9636626 1.347392-1.0679487 1.469208-1.4369371 1.951046-2.2153742 2.9752296-1.25603 1.6819873-1.1840392 1.5979008-1.3509615 1.8454958-.985868 1.3683811-.6885483.97054-.6481792.9279461-.6107068.89002-.5761314.856765-.5444529.828179-.3468001.538543-.3348666.529296-.3237914.521433-.3135747.514954-.4530833.763308-.291788.504807-.2845755.50317-.4152173.75471-.2702993.505128-.266091.508333c-.0440455.085067-.0879514.170324-.1317356.255801-2.9815085 5.820617-4.2232881 10.977754-3.6309527 15.939006.1941077 1.625798-1.0040225 3.096767-2.6760986 3.285502s-3.184917-.976234-3.3790247-2.602031c-.7447278-6.237654.76208-12.495459 4.2295997-19.264886l.286401-.553327.2896107-.547807.2937233-.543759.298739-.541181.3046577-.540076.4700596-.811257.3234054-.543747.3324847-.547791.5177262-.832486.5432343-.8498612.5717902-.8722008.3985629-.5963306.413512-.6099378.4293641-.6250165.6757443-.9690155.9649031-1.3585281 1.0445663-1.4453264 1.1314538-1.5438954 1.8758976-2.5264082 2.5692397-3.4452877 1.2155768-1.6458815 1.091749-1.4942293.7928065-1.099237.7282366-1.0245393.6701913-.9597793.468476-.6833139.4422479-.6566689.28162-.4250467.5352016-.8251255.3800786-.6018884.3648606-.5920131.4675655-.7812355.4519288-.7810705.2303338-.4082191c.1911766-.3416621.3807488-.6875043.571085-1.0411345 4.5313774-8.4189524 5.1400106-15.1409898 1.284068-21.7313792-5.7816686-9.8817462-17.084774-17.8978886-33.9507804-23.9606682m-35.2757599-14.6155974c10.4337031 1.6377714 19.853076 3.6710825 28.2549413 6.1066582l.0060268-.027599.0218617.035686c.0043155.0012518.0086307.0025037.0129456.0037557l-.003881.0121759.0706244.121624c.4473091.8213252.5222969 1.8227512.2249633 3.004278-.3155733 1.254007-.9025407 2.1227424-1.7609019 2.6062061l-.0039427.0134659-.0134245-.0037571c-.0023888.0013254-.0047797.0026479-.0071727.0039673l.0008541-.0057842-.9679876-.279484c-7.9431477-2.2658679-16.8775825-4.1813574-26.8064172-5.7398799-1.6617896-.26085-2.7914563-1.7821717-2.5231811-3.3979672.2682752-1.6157954 1.8329019-2.7141957 3.4946915-2.4533457zm37.1744499 8.9720598-1.8756613 5.6588727"/><filter id="f" height="110.4%" width="114.7%" x="-7.4%" y="-5.2%"><feGaussianBlur in="SourceAlpha" result="shadowBlurInner1" stdDeviation="4"/><feOffset dx="0" dy="-4" in="shadowBlurInner1" result="shadowOffsetInner1"/><feComposite in="shadowOffsetInner1" in2="SourceAlpha" k2="-1" k3="1" operator="arithmetic" result="shadowInnerInner1"/><feColorMatrix in="shadowInnerInner1" type="matrix" values="0 0 0 0 0.631740127   0 0 0 0 0.685269155   0 0 0 0 0.884097777  0 0 0 1 0"/></filter><linearGradient id="g" x1="30.021169%" x2="59.707328%" y1="35.119661%" y2="50%"><stop offset="0" stop-color="#d4dcea"/><stop offset="1" stop-color="#64728f"/></linearGradient><linearGradient id="h" x1="57.445358%" x2="45.895685%" y1="100%" y2="5.041996%"><stop offset="0" stop-color="#b5c2d6"/><stop offset=".447883659" stop-color="#d4e1f6"/><stop offset="1" stop-color="#fff"/></linearGradient><path id="i" d="m141.004055 40.4130896 4.853829 1.8361386c1.671552.632333 2.931657 2.0374018 3.378951 3.7676785.85152 3.2939518 1.272503 6.6845476 1.262949 10.1717872-.009116 3.2699942-.383622 6.5092896-1.123518 9.7178864-.494821 2.1458401-2.22189 3.7896652-4.389538 4.1779704l-5.486653.9828608c-2.989971.5356134-5.848022-1.4540365-6.383635-4.4440074-.065847-.3675803-.094087-.7409111-.084283-1.1142139l.5278-20.0962699c.07975-3.036519 2.605985-5.433454 5.642504-5.3537041.616117.0161814 1.225132.1358056 1.801594.3538734z"/><filter id="j" height="124.6%" width="167%" x="-33%" y="-10.5%"><feGaussianBlur in="SourceAlpha" result="shadowBlurInner1" stdDeviation="4"/><feOffset dx="0" dy="-4" in="shadowBlurInner1" result="shadowOffsetInner1"/><feComposite in="shadowOffsetInner1" in2="SourceAlpha" k2="-1" k3="1" operator="arithmetic" result="shadowInnerInner1"/><feColorMatrix in="shadowInnerInner1" type="matrix" values="0 0 0 0 0.631740127   0 0 0 0 0.692011817   0 0 0 0 0.884097777  0 0 0 1 0"/></filter><linearGradient id="k" x1="50%" x2="51.695959%" y1="100%" y2="0%"><stop offset=".00018438593" stop-color="#b5c0d6"/><stop offset=".464471564" stop-color="#d4e1f6"/><stop offset=".806121288" stop-color="#f6faff"/><stop offset="1" stop-color="#e8f2fc"/></linearGradient><path id="l" d="m10.3234175 5.43245477h9.8491553c21.5149312 0 38.956229 17.44129783 38.956229 38.95622893 0 21.5149312-17.4412978 38.956229-38.956229 38.956229h-9.2501159z"/><filter id="m" height="119.3%" width="130.7%" x="-15.4%" y="-9.6%"><feGaussianBlur in="SourceAlpha" result="shadowBlurInner1" stdDeviation="4"/><feOffset dx="0" dy="-7" in="shadowBlurInner1" result="shadowOffsetInner1"/><feComposite in="shadowOffsetInner1" in2="SourceAlpha" k2="-1" k3="1" operator="arithmetic" result="shadowInnerInner1"/><feColorMatrix in="shadowInnerInner1" type="matrix" values="0 0 0 0 0.631740127   0 0 0 0 0.704717419   0 0 0 0 0.884097777  0 0 0 1 0"/></filter><linearGradient id="n" x1="62.765103%" x2="66.547672%" y1="51.470191%" y2="49.664282%"><stop offset="0" stop-color="#5c7087"/><stop offset="1" stop-color="#6e819d" stop-opacity="0"/></linearGradient><filter id="o" height="203.6%" width="122.1%" x="-11%" y="-51.8%"><feGaussianBlur in="SourceGraphic" stdDeviation="1"/></filter><linearGradient id="p" x1="53.04603%" x2="50%" y1="100%" y2="0%"><stop offset="0" stop-color="#c5cfeb"/><stop offset=".317866441" stop-color="#e8eefd"/><stop offset="1" stop-color="#f1f9ff"/></linearGradient><linearGradient id="q"><stop offset="0" stop-color="#fff"/><stop offset=".535528436" stop-color="#e5eefd"/><stop offset="1" stop-color="#d6e2f4"/></linearGradient><linearGradient id="r" x1="14.65549%" x2="78.601894%" xlink:href="#q" y1="44.205523%" y2="55.794477%"/><path id="s" d="m59.3143888 40.658475h27.1380471c3.8678528 0 7.003367 3.1355143 7.003367 7.0033671 0 3.8678527-3.1355142 7.003367-7.003367 7.003367h-27.1380471c-3.8678528 0-7.003367-3.1355143-7.003367-7.003367 0-3.8678528 3.1355142-7.0033671 7.003367-7.0033671z"/><filter id="t" height="178.5%" width="126.7%" x="-13.4%" y="-39.3%"><feGaussianBlur in="SourceAlpha" result="shadowBlurInner1" stdDeviation="4"/><feOffset dx="-3" dy="-2" in="shadowBlurInner1" result="shadowOffsetInner1"/><feComposite in="shadowOffsetInner1" in2="SourceAlpha" k2="-1" k3="1" operator="arithmetic" result="shadowInnerInner1"/><feColorMatrix in="shadowInnerInner1" type="matrix" values="0 0 0 0 0.631740127   0 0 0 0 0.714558283   0 0 0 0 0.884097777  0 0 0 0.555946403 0"/></filter><linearGradient id="u" x1="14.65549%" x2="78.601894%" xlink:href="#q" y1="44.444444%" y2="55.555556%"/><path id="v" d="m66.3391789 17.7622723h28.013468c3.8678528 0 7.0033671 3.1355142 7.0033671 7.003367s-3.1355143 7.003367-7.0033671 7.003367h-28.013468c-3.8678528 0-7.003367-3.1355142-7.003367-7.003367s3.1355142-7.003367 7.003367-7.003367z"/><filter id="w" height="178.5%" width="126.2%" x="-13.1%" y="-39.3%"><feGaussianBlur in="SourceAlpha" result="shadowBlurInner1" stdDeviation="4"/><feOffset dx="-3" dy="-2" in="shadowBlurInner1" result="shadowOffsetInner1"/><feComposite in="shadowOffsetInner1" in2="SourceAlpha" k2="-1" k3="1" operator="arithmetic" result="shadowInnerInner1"/><feColorMatrix in="shadowInnerInner1" type="matrix" values="0 0 0 0 0.631740127   0 0 0 0 0.714558283   0 0 0 0 0.884097777  0 0 0 0.555946403 0"/></filter><linearGradient id="x" x1="100%" x2="0%" y1="50%" y2="50%"><stop offset="0" stop-color="#d9e5f6" stop-opacity=".712636"/><stop offset="1" stop-color="#b2c6ea"/></linearGradient><path id="y" d="m11.159092 2.6943027c1.695311 3.18608554 1.493864 11.2678557-.6971744 11.8372981-.87379875.2270969-2.73526755-.3292136-4.62979169-1.4805975l1.18923612 8.4823382h-7.02136203l2.41752293-11.3591366c-1.34826103-1.59553199-2.26083213-3.55093264-2.10835588-5.74203736.43928973-6.31265378 9.15461398-4.92395038 10.84992495-1.73786484z"/><linearGradient id="z"><stop offset="0" stop-color="#3c4c66"/><stop offset="1" stop-color="#4c617f"/></linearGradient><linearGradient id="A" x1="69.737715%" x2="66.890456%" xlink:href="#z" y1="14.613592%" y2="42.034026%"/><path id="B" d="m38.964198 62.2947311c.8605967.1309708 1.6917735.0773616 2.4935304-.1608278.8017568-.2381893 1.4945173-.6413965 2.0782814-1.2096216-2.5879043-9.1267563-6.0597322-19.0655224-10.4154835-29.8162983-4.3557514-10.7507759-8.9466692-21.12010369-13.7727535-31.1079834h-19.3477728c6.33839496 13.2426979 12.9198786 24.7745726 19.7444508 34.595624 6.8245723 9.8210515 13.2311546 19.0540872 19.2197472 27.6991071z"/><linearGradient id="C" x1="75.086773%" x2="71.467888%" xlink:href="#z" y1="14.613592%" y2="42.034026%"/><linearGradient id="D" x1="62.217773%" x2="50%" y1="75.703798%" y2="50%"><stop offset="0" stop-color="#4c6280"/><stop offset="1" stop-color="#445572"/></linearGradient><linearGradient id="E" x1="90.501726%" x2="84.659162%" y1="16.868423%" y2="42.54162%"><stop offset="0" stop-color="#435470"/><stop offset="1" stop-color="#5f7696"/></linearGradient><path id="F" d="m.3876377 36.2715309c-.41009978.4876095-.44939071 1.3393924-.11787279 2.5553488.33151792 1.2159565.82132182 2.0420169 1.4694117 2.4781815 15.95408539 1.3961181 25.72950589.3873351 29.32626149-3.0263492 3.5967556-3.4136842 7.6959953-16.1732548 12.2977191-38.278712h-18.4492568c-2.9155439 18.101395-4.5455226 27.5320307-4.8899363 28.2919072-.3444137.7598766-6.8898558 3.4197511-19.6363264 7.9796237z"/><linearGradient id="G" x1="83.643747%" x2="63.57408%" y1="83.336678%" y2="66.460039%"><stop offset="0" stop-color="#52637f"/><stop offset="1" stop-color="#627692"/></linearGradient><path id="H" d="m13.2285617 0 .0196333.0577687c4.946966.5687417 7.9994318 5.02150703 11.2437735 9.52464646l.4394275.60799844c3.821775 5.2659139 8.0349077 10.3645194 15.9829114 9.1522183.2989935-.0456052.6791026-.2492831 1.0862533.1192563.262386.2375032.5208831 3.2691982.4429318 3.739693-.0519676.3136632-.1727271.5121912-.3622788.5955841-13.2124506 5.6422387-19.2164458 3.4976627-23.2115081-.0236656 1.1459596 10.1177182-.389388 17.2907289-6.3260296 17.2907289h-12.12392271c-1.92555879-12.9829722 3.13518651-30.9841898 7.82686537-40.06385868.17916108-.3467252.56061301-1.00036992 1.45908879-1.00036992z"/><linearGradient id="I" x1="53.734893%" x2="43.137198%" y1="30.345119%" y2="84.681844%"><stop offset="0" stop-opacity=".1"/><stop offset="1" stop-opacity="0"/></linearGradient><linearGradient id="J" x1="19.586404%" x2="50%" y1="40.405356%" y2="81.588494%"><stop offset="0" stop-color="#d4d9dc"/><stop offset="1" stop-color="#c0c7cb"/></linearGradient><mask id="K" fill="#fff"><path d="m0 0h280v220h-280z" fill="#fff" fill-rule="evenodd"/></mask><mask id="L" fill="#fff"><use fill="#fff" fill-rule="evenodd" xlink:href="#c"/></mask><mask id="M" fill="#fff"><use fill="#fff" fill-rule="evenodd" xlink:href="#l"/></mask><mask id="N" fill="#fff"><use fill="#fff" fill-rule="evenodd" xlink:href="#y"/></mask><mask id="O" fill="#fff"><use fill="#fff" fill-rule="evenodd" xlink:href="#B"/></mask><mask id="P" fill="#fff"><use fill="#fff" fill-rule="evenodd" xlink:href="#F"/></mask><mask id="Q" fill="#fff"><use fill="#fff" fill-rule="evenodd" xlink:href="#H"/></mask></defs><g fill="none" fill-rule="evenodd" mask="url(#K)"><g transform="translate(28 20.060408)"><path d="m.06293155 104.535928c2.10283173-25.8477246 114.92870645-75.7365559 135.87443645-51.2541021s.809008 70.4296151-43.0855056 82.1955141c-43.894514 11.765899-94.89176257-5.093688-92.78893085-30.941412z" fill="#f2f3f5" fill-opacity=".603772" transform="matrix(-1 0 0 1 144.25969 0)"/><path d="m93.5471721 121.330631c1.8493384-21.9586533 95.8850009-59.5691087 119.4949679-43.5423649 23.609967 16.0267437 13.7581 64.5466729-24.844993 74.5422639-38.603093 9.995592-96.4993132-9.041246-94.6499749-30.999899z" fill="#dde1e9" fill-opacity=".601057"/><path d="m133.295572 2.90681189c8.626014 3.39133602 13.810279 9.77604681 14.578878 19.33678241.077486.9638536-.641058 1.8080257-1.604911 1.885511-.963854.0774854-1.808026-.6410581-1.885511-1.6049118-1.210467-15.05720876-15.069629-20.5059683-36.200495-18.70717545-3.057176.26024612-6.458457.91428439-10.2018127 1.96264829l-.9842859.2824316c-.1653405.04856288-.3313273.09787127-.4979603.1479252l-1.0075501.30927056c-.5076506.15910891-1.0211135.32492856-1.5403841.49746012l-1.0462837.35401268c-.5270124.18148129-1.0598295.36967529-1.5984469.56458317l-1.0849673.39876796c-.1821163.06795341-.3648768.13665291-.5482813.20609852l-1.1081533.42562744-1.1236007.44353639c-.1885536.07541526-.3777505.15157682-.5675906.22848471l-1.1467567.47040381-1.1621841.4883179c-.1949825.0828793-.3906075.1665051-.5868748.2508775l-1.1853101.5151933-1.2007174.5331127-1.2161167.5510343c-.203969.0933326-.4085793.1874121-.6138307.2822384l-1.2392007.5779206-1.25458.5958475-1.2699513.6137764c-.212939.1037902-.4265182.2083276-.6407374.3136122l-1.2929932.6406738-1.3083445.6586079c-.2193362.1112627-.4393117.2232727-.6599264.33603l-1.3313564.6855133-1.3466876.7034527c-.2257251.1187372-.4520887.2382219-.6790905.3584543l-1.3696695.7303658-1.3849807.7483106-1.4002839.7662575c-.2346554.1292052-.4699482.2591584-.7058781.3898594-.2787078.1543993-.58127.2247187-.8784698.2193441-.7095741 3.0286648-14.5345711 5.4448765-31.4851241 5.4448765l-.5211606-.0007623c-17.1649623-.0502493-30.9939909-2.5782693-30.9939909-5.6894734 0-3.1426304 14.1098139-5.6902357 31.5151515-5.6902357 13.8078719 0 25.5417233 1.603322 29.8023357 3.835107.096283-.4844193.3983756-.9237669.8643735-1.1819216l1.4375162-.7914871 1.4222918-.7733051 1.4070753-.755121 1.3918667-.7369347 1.3766663-.7187464 1.3614738-.7005559 1.3462893-.6823634 1.3311129-.6641687c.4411758-.2183569.8798234-.433681 1.3159444-.6459719l1.300784-.6277731c.2155344-.1031122.4304374-.205466.6447093-.3070613l1.2780583-.60047084c.6352434-.29568455 1.2648092-.58454256 1.8887017-.86657283l1.2402223-.55495655 1.225102-.53674715 1.2099895-.51853565 1.1948851-.50032206 1.1797888-.48210634c.1953739-.07883297.3901191-.15690686.5842357-.23422163l1.1571593-.45477883c1.5328263-.59422494 3.025449-1.13986063 4.4779536-1.63688462l1.0818576-.36365294 1.0668214-.34542145c.7062038-.22420334 1.4023889-.43625094 2.0885657-.63614001l1.0217605-.29071435c3.8879848-1.0794465 7.4452518-1.75685496 10.6738288-2.03169189 9.788187-.83323228 18.555023-.11581729 25.409051 2.57885843z" fill="url(#a)" opacity=".154585" transform="translate(70.989884 92.576551)"/><g transform="translate(127.811448 42.807559)"><use fill="url(#b)" xlink:href="#c"/><g fill="#8f9aae" mask="url(#L)"><g transform="translate(46.964212 4.45484)"><path d="m8.35434114.18644494c.48022345.10419106.79278088.56862686.70847425 1.0527371l-.70050371 4.02247192c-.07995251.45910783-.51694727.76647395-.9760551.68652144-.01142616-.00198984-.02281008-.00421505-.0341445-.00667421-.48022345-.10419106-.79278088-.56862686-.70847426-1.0527371l.70050372-4.02247192c.07995251-.45910783.51694727-.76647395.9760551-.68652144.01142616.00198984.02281008.00421505.0341445.00667421z"/><path d="m14.0903927 5.96209351c.3313676.4013991.3006581.98956819-.0707094 1.35427612l-2.5904263 2.54397301c-.332573.32660906-.8669457.32177436-1.1935547-.01079865-.0170018-.0173122-.033249-.03534954-.0486966-.05406174-.33136754-.40139911-.30065807-.9895682.0707095-1.35427612l2.5904263-2.54397301c.332573-.32660906.8669456-.32177435 1.1935547.01079865.0170017.0173122.033249.03534954.0486965.05406174z"/><path d="m.77295076 2.21213207c.3878925-.23149089.89000194-.10470233 1.12149283.28319017.0133664.02239712.02565382.04542079.03682012.06899207l1.69518683 3.57842037c.21853697.4613162.05074794 1.01316745-.38758855 1.27476288-.3878925.23149089-.89000194.10470233-1.12149283-.28319017-.01336641-.02239712-.02565382-.04542079-.03682013-.06899207l-1.69518682-3.57842037c-.21853698-.4613162-.05074794-1.01316746.38758855-1.27476288z"/></g></g><g mask="url(#L)"><use fill="url(#d)" fill-rule="evenodd" xlink:href="#e"/><use fill="#000" filter="url(#f)" xlink:href="#e"/></g><path d="m55.4517085 27.0445337c.7252224 0 1.3115878-1.3002991 1.3115878-2.9924847s-.5510009-2.9678865-1.2762233-2.9678865-1.3500393 1.2757009-1.3500393 2.9678865.5894524 2.9924847 1.3146748 2.9924847z" fill="url(#g)" mask="url(#L)" transform="matrix(.95105652 .30901699 -.30901699 .95105652 10.150217 -15.95725)"/></g><g transform="matrix(.9612617 .27563736 -.27563736 .9612617 20.638993 -36.922285)"><use fill="url(#h)" fill-rule="evenodd" xlink:href="#i"/><use fill="#000" filter="url(#j)" xlink:href="#i"/></g><g transform="translate(85.436019 4.513758)"><g transform="matrix(.95630476 .2923717 -.2923717 .95630476 14.495361 -8.213358)"><use fill="url(#k)" fill-rule="evenodd" xlink:href="#l"/><use fill="#000" filter="url(#m)" xlink:href="#l"/></g><path d="m15.0422953 75.4838511c4.5842692.9395749 7.8962508 1.5334279 9.935945 1.781559 2.0396942.2481312.0282165 1.2506452-6.0344331 3.0075422l-6.5379035-1.7826975-13.83682798-3.8260389c1.05819617-.2024905 1.79733766-.2370099 2.21742446-.1035581 1.48210596.4708305 3.92605168.9807877 6.39892154 1.2180948 3.33308408.3198568 5.95204188.2215563 7.85687358-.2949015z" fill="url(#n)" filter="url(#o)" mask="url(#M)" opacity=".622648"/></g><path d="m96.7300275 80.6601543c7.7357055 0 13.9410455-17.8451353 13.9410455-39.3600665 0-21.5149311-6.271029-38.95622891-14.0067341-38.95622891-7.7357056 0-14.006734 17.44129781-14.006734 38.95622891 0 21.5149312 6.336717 39.3600665 14.0724226 39.3600665z" fill="url(#p)" transform="matrix(.9612617 .27563736 -.27563736 .9612617 15.184116 -25.036585)"/><g transform="matrix(.95105652 .30901699 -.30901699 .95105652 18.295487 -20.189476)"><use fill="url(#r)" fill-rule="evenodd" xlink:href="#s"/><use fill="#000" filter="url(#t)" xlink:href="#s"/></g><g transform="matrix(.95105652 .30901699 -.30901699 .95105652 11.585412 -23.616136)"><use fill="url(#u)" fill-rule="evenodd" xlink:href="#v"/><use fill="#000" filter="url(#w)" xlink:href="#v"/></g><ellipse cx="58.592788" cy="128.728093" fill="url(#x)" opacity=".402566" rx="32.291441" ry="5.120428" transform="matrix(-1 0 0 1 125.845222 34.520614)"/><g transform="matrix(.99026807153 .13917310165 -.13917310165 .99026807153 65.89567560373 40.35171747656)"><g transform="translate(.87767 1.769864)"><use fill="#e6baaa" xlink:href="#y"/><path d="m9.60546343 14.5523848c-1.35342176-.7249095-2.43047266-1.3827245-3.23115269-1.973445-1.20102006-.8860808-1.75358326-1.5591337-2.8647399-2.9813097-.05499204-.07038466-.15662994-.08286283-.22701459-.02787078-.03641095.02844814-.05891499.07111186-.06186854.11722403l-.41280992 6.52181695 3.36843021.0192833.06712022-2.0791202z" fill="#e2a893" mask="url(#N)"/></g><path d="m1.59237394 3.66558183c.70845917-4.37408182 3.91306898-3.53712793 7.24174356-2.84058583l.38726247.0800054c2.00231693.40688055 4.01623373.6883973 5.52824143-.31393063.013027-.00863576.0275287-.01852363.0435051-.0296636.01178-.00825648.0244299-.0151924.037712-.02071698.1023902-.04258841.2199187.00589055.2625071.1082808l.0669501.17051826c1.0800765 2.92683919-1.9464662 4.48521416-6.21815842 4.10724349-.87755639.49284863-1.52167141 1.38434986-2.25460721 2.55209998-.32197902-.32385785-.69379072-.54124223-1.05990415-.54124223-.96944779 0-1.06323631 1.19244391-1.52461754 2.48664368-.25362378.71142863.05873246 1.06262943.55249603 1.23466403-.41253335.5919174-.87817564 1.2115295-1.4138626 1.8514394-2.03421481-1.2305438-4.47075663-5.83344189-1.75483656-8.73492689z" fill="#495369"/></g><g transform="matrix(.99026807153 .13917310165 -.13917310165 .99026807153 20.24153619042 82.54151061537)"><path d="m38.4848106 0 21.997448 36.6928556 16.4917571 31.0207166h3.5521782l-27.6321705-67.7135722z" fill="#e6baaa"/><path d="m.40093532 1.78865723c-.16861121.50045238-.25291682.88734876-.25291682 1.16068912 0 .37986218.05911272.92301784.17733814 1.62946699.01423363.08492245.08784938.14706713.17395606.14682824.83626226-.00232008 4.25625452-.01945883 10.2599768-.05141624.1112972-.00059243.2109146-.06917826.2511926-.17293335.3391742-.87395885.1777052-1.61107762-.4844072-2.21135632-1.05765954-.9588863-3.65181803-.87761228-4.25973479-1.06828184-.32610001-.10227938-.75345823-.38590838-1.28207464-.85088699-.16073741-.14144589-.40570212-.12575639-.54711477.03501025-.02832823.03220528-.05111578.06888826-.06743407.10855413l-.25489732.61959447c-.65652128.30694972-1.19001298.46042457-1.6004751.46042457-.27508444 0-.63662245-.09182975-1.08461403-.27548925l.0000072-.00001755c-.39618266-.16241981-.84901944.02708242-1.01143926.42326508-.00628338.01532676-.01207396.03085096-.0173628.04654869z" fill="#566282" transform="translate(75.489436 65.867426)"/><g transform="translate(34.826999)"><use fill="url(#A)" xlink:href="#B"/><path d="m29.9048518 53.1566964 11.9305183-3.8716828c-2.3601057-7.0598331-5.7180343-14.873636-10.0737856-23.4414086-4.3557514-8.5677727-8.4936886-17.18230768-12.4138117-25.843605h-19.3477728c4.8907884 10.5852671 9.81165627 20.3239087 14.7626036 29.2159249 4.9509474 8.8920162 9.9983635 16.8722733 15.1422482 23.9407715z" fill="url(#C)" mask="url(#O)"/><path d="m29.9048518 53.1566964 2.2107079 2.1615185c-2.3601057-7.0598331-5.7180343-14.8736359-10.0737856-23.4414086-4.3557514-8.5677726-8.4936886-17.1823076-12.41381165-25.84360494l-9.62796245-6.03320136c4.8907884 10.5852671 9.81165627 20.3239087 14.7626036 29.2159249 4.9509474 8.8920162 9.9983635 16.8722733 15.1422482 23.9407715z" fill="url(#D)" mask="url(#O)"/></g><path d="m37.0391518 0c-2.0761459 12.8941214-6.080463 29.3678541-6.4583626 29.8762384-.251933.3389229-9.321587 3.3712162-27.20896195 9.0968799l.76731336 3.1253054c21.33065269-3.0707105 32.57008749-5.453094 33.71830449-7.1471506 1.7223255-2.5410848 10.3221291-22.615711 13.6529937-34.9512731z" fill="#e6baaa"/><path d="m-1.56949264 42.9206595c-.16861121.5004524-.25291682.8873487-.25291682 1.1606891 0 .3798622.05911271.9230178.17733814 1.629467.01423363.0849224.08784938.1470671.17395606.1468282.83626226-.0023201 4.25625451-.0194588 10.25997677-.0514162.11129727-.0005924.21091462-.0691783.2511926-.1729334.33917428-.8739588.17770522-1.6110776-.48440716-2.2113563-1.05765955-.9588863-3.65181804-.8776123-4.2597348-1.0682818-.32610001-.1022794-.75345823-.3859084-1.28207465-.850887-.1607374-.1414459-.40570211-.1257564-.54711476.0350102-.02832823.0322053-.05111578.0688883-.06743407.1085542l-.25489732.6195944c-.65652128.3069498-1.19001298.4604246-1.6004751.4604246-.27508444 0-.63662245-.0918297-1.08461403-.2754892l.00000719-.0000176c-.39618266-.1624198-.84901943.0270824-1.01143925.4232651-.00628339.0153267-.01207396.0308509-.0173628.0465487z" fill="#566282" transform="matrix(.2419219 .97029573 -.97029573 .2419219 45.004065 29.387342)"/><g transform="translate(9.271904)"><use fill="url(#E)" xlink:href="#F"/><path d="m8.58762881 32.3966662-7.36124911 2.1482729c11.0807079.8134685 18.89073-1.1858056 21.388811-3.1748382 2.4980811-1.9890326 2.1425944-8.3679242 1.761645-13.7761922-.2539664-3.605512-.6904566-6.2822562-1.3094709-8.03023258-2.024954 10.54704008-3.1570351 16.04193668-3.3962433 16.48468978-.2392081.442753-2.3995025 2.9910019-11.08349269 6.3483003z" fill="url(#G)" mask="url(#P)"/></g></g><g transform="matrix(.99026807153 .13917310165 -.13917310165 .99026807153 54.45404636307 55.37327728694)"><path d="m33.3548043 18.7588594 11.6173154 1.280494c2.5577943-.6833856 4.8355585-1.0096186 6.8332926-.978699.535164.1172513 1.3325286.5206342-.1867475 1.2512066s-3.0846148 1.5675332-2.9990937 2.1812829c.0855211.6137496 1.3081703.698693 1.2886381 1.6049627-.0130215.6041798-1.9366101.2224717-5.7707657-1.1451243l-10.0140562 1.3216823z" fill="#e6baaa" transform="matrix(.98768834 -.15643447 -.15643447 -.98768834 3.902372 49.584341)"/><path d="m14.4705429 3.56966401c7.8869978 12.53687669 6.6377445 15.15437409 14.8720241 9.17301159.6615495.5653742 1.1641432.9496841 1.5077812 1.1529297.4110937.2431424 1.0405975.5284145 1.8885114.8558163-6.1297747 22.3010253-13.7000064 4.2787312-17.0643841 1.9139008-2.2860479-1.6068694-3.7479653-8.86095266-5.1880737-12.42621759z" fill="#8192a0" transform="matrix(.96592583 .25881905 -.25881905 .96592583 4.534684 -5.093711)"/><path d="m3.24829568 34.0705846h21.52355292c.6296365-.0000444 1.1400577-.5104656 1.1400577-1.1401021 0-.1194349-.0187677-.2381279-.0556163-.3517363-.4255283-1.3119502-.6512884-2.6360436-1.043591-3.8709022-4.1586929-13.0904019-6.6197757-21.83379047-6.7196284-27.08680662-.0056917-.29942534-.556887-.82705508-.8007478-.75795727-1.7833282.50530484-3.69163.31636679-5.7249056-.56681416-5.39049211 8.69789637-7.25461773 19.40676785-8.31912152 33.77431865z" fill="#fafdff"/><g transform="translate(.274534 .296266)"><use fill="#d4d9dc" fill-rule="nonzero" xlink:href="#H"/><path d="m11.3038057 21.7241418c-.2655085 4.9975198.2744346 8.6642316 1.6198294 11.0001354s3.7107058 5.1306289 7.0959331 8.3841751c-1.2337325.3685981-2.2474359.5292809-3.0411102.4820481-.7936742-.0472327-2.2442764-.60034-4.3518064-1.6593219l-2.5890942-9.3115279z" fill="#b8c0c5" fill-rule="nonzero" mask="url(#Q)" transform="matrix(-.9998477 .01745241 .01745241 .9998477 29.50227 -.257462)"/><path d="m19.9418844 18.6598348c-1.140171 2.7901646-1.7051197 6.1126845-1.6948461 9.9675597l-5.2985837 3.5188919c.9098423-3.1322333 1.8076603-5.5073499 2.6934542-7.1253497.8857938-1.6179999 2.319119-3.7383671 4.2999756-6.3611019z" fill="url(#I)" mask="url(#Q)" transform="matrix(.52991926 -.8480481 .8480481 .52991926 -13.81246 25.887784)"/></g><path d="m12.9931827.30857936c11.438806.65386321 12.6654285 20.55338594 27.5909594 19.35193204.302964-.0243875.7516753-.0662451 1.158826.3022944.262386.2375031.5208831 3.2691981.4429317 3.7396929-.0519675.3136632-.1727271.5121912-.3622787.5955841-19.9974179 10.1497813-27.4396355-3.9483255-32.72197769-8.7009207-1.13476526-1.0209637-4.42391875-8.47549044 3.89153929-15.28858274z" fill="url(#J)" fill-rule="nonzero"/></g></g></g></svg>