<?xml version="1.0" encoding="UTF-8"?>
<svg width="24px" height="24px" viewBox="0 0 24 24" version="1.1" xmlns="http://www.w3.org/2000/svg" xmlns:xlink="http://www.w3.org/1999/xlink">
    <title>icon5</title>
    <g id="☆-最终方案-☆-" stroke="none" stroke-width="1" fill="none" fill-rule="evenodd">
        <g id="PaaS客户信息-展开" transform="translate(-16.000000, -504.000000)">
            <g id="编组-24" transform="translate(0.000000, 492.000000)">
                <g id="编组-19" transform="translate(16.000000, 12.000000)">
                    <rect id="矩形备份-36" x="0" y="0" width="24" height="24"></rect>
                    <path d="M13.2631579,0.729284551 L21.129147,5.27071545 C21.9107918,5.7219983 22.3923048,6.5560034 22.3923048,7.4585691 L22.3923048,16.5414309 C22.3923048,17.4439966 21.9107918,18.2780017 21.129147,18.7292846 L13.2631579,23.2707154 C12.4815131,23.7219983 11.5184869,23.7219983 10.7368421,23.2707154 L2.87085305,18.7292846 C2.08920822,18.2780017 1.60769515,17.4439966 1.60769515,16.5414309 L1.60769515,7.4585691 C1.60769515,6.5560034 2.08920822,5.7219983 2.87085305,5.27071545 L10.7368421,0.729284551 C11.5184869,0.2780017 12.4815131,0.2780017 13.2631579,0.729284551 Z" id="多边形" fill="#FFFFFF"></path>
                    <rect id="矩形备份-64" fill-opacity="0.600355455" fill="#1EE6ED" x="7.57894737" y="7.57894737" width="8.84210526" height="8.84210526" rx="4.42105263"></rect>
                </g>
            </g>
        </g>
    </g>
</svg>