<?xml version="1.0" encoding="UTF-8"?>
<svg width="24px" height="24px" viewBox="0 0 24 24" version="1.1" xmlns="http://www.w3.org/2000/svg" xmlns:xlink="http://www.w3.org/1999/xlink">
    <title>icon2</title>
    <g id="☆-最终方案-☆-" stroke="none" stroke-width="1" fill="none" fill-rule="evenodd">
        <g id="首页展开_XChaos" transform="translate(-16.000000, -249.000000)">
            <g id="编组-2" transform="translate(0.000000, -68.000000)">
                <g id="编组-23" transform="translate(0.000000, 305.000000)">
                    <g id="编组-18" transform="translate(16.000000, 12.000000)">
                        <rect id="矩形" x="0" y="0" width="24" height="24"></rect>
                        <path d="M21.1666667,9 C21.9030463,9 22.5,9.59695367 22.5,10.3333333 L22.5,21.6666667 C22.5,22.4030463 21.9030463,23 21.1666667,23 L2.83333333,23 C2.09695367,23 1.5,22.4030463 1.5,21.6666667 L1.5,10.3333333 C1.5,9.59695367 2.09695367,9 2.83333333,9 L15,9 L15,10 L11,10 L11,16 L13,16 L13,12 L17,12 L17,9 L21.1666667,9 Z M13,18 L11,18 L11,20 L13,20 L13,18 Z" id="形状结合" fill="#FFFFFF"></path>
                        <path d="M9,6 L9,4 L17,4 L17,9 L15,9 L15,6 L9,6 Z" id="形状结合" fill="#D8D8D8"></path>
                        <rect id="矩形备份-34" fill-opacity="0.600355455" fill="#1EE6ED" x="6" y="1" width="12" height="12" rx="6"></rect>
                    </g>
                </g>
            </g>
        </g>
    </g>
</svg>