<?xml version="1.0" encoding="UTF-8"?>
<svg width="24px" height="24px" viewBox="0 0 24 24" version="1.1" xmlns="http://www.w3.org/2000/svg" xmlns:xlink="http://www.w3.org/1999/xlink">
    <title>icon3</title>
    <g id="☆-最终方案-☆-" stroke="none" stroke-width="1" fill="none" fill-rule="evenodd">
        <g id="首页展开_XChaos" transform="translate(-16.000000, -197.000000)">
            <g id="编组-2" transform="translate(0.000000, -68.000000)">
                <g id="编组-22" transform="translate(0.000000, 253.000000)">
                    <g id="编组-17" transform="translate(16.000000, 12.000000)">
                        <rect id="矩形" x="0" y="0" width="24" height="24"></rect>
                        <path d="M12.84,7.99984852 L9.088,21.9998485 L2.5,22 C1.94771525,22 1.5,21.5522847 1.5,21 L1.5,9 C1.5,8.44771525 1.94771525,8 2.5,8 L12.84,7.99984852 Z M21.5,8 C22.0522847,8 22.5,8.44771525 22.5,9 L22.5,21 C22.5,21.5522847 22.0522847,22 21.5,22 L11.159,21.9998485 L14.911,7.99984852 L21.5,8 Z M7.46966991,10.4696699 L3.46966991,14.4696699 L3.39705176,14.5537883 C3.20340335,14.8147763 3.20101263,15.1729908 3.3898796,15.4363794 L3.46966991,15.5303301 L7.46966991,19.5303301 L8.53033009,18.4696699 L5.061,15 L8.53033009,11.5303301 L7.46966991,10.4696699 Z M16.5303301,10.4696699 L15.4696699,11.5303301 L18.939,15 L15.4696699,18.4696699 L16.5303301,19.5303301 L20.5303301,15.5303301 L20.6029482,15.4462117 C20.7965966,15.1852237 20.7989874,14.8270092 20.6101204,14.5636206 L20.5303301,14.4696699 L16.5303301,10.4696699 Z" id="形状结合" fill="#FFFFFF"></path>
                        <rect id="矩形备份-10" fill-opacity="0.600355455" fill="#1EE6ED" x="6" y="2" width="12" height="12" rx="5.5"></rect>
                    </g>
                </g>
            </g>
        </g>
    </g>
</svg>