<?xml version="1.0" encoding="UTF-8"?>
<svg width="24px" height="24px" viewBox="0 0 24 24" version="1.1" xmlns="http://www.w3.org/2000/svg" xmlns:xlink="http://www.w3.org/1999/xlink">
    <title>icon_nav_management</title>
    <defs>
        <path d="M5.99999992,0 C9.31370842,0 11.9999999,2.6862915 11.9999999,6 L11.9999999,6 L-8.22228685e-08,6 C-8.22228685e-08,2.6862915 2.68629142,0 5.99999992,0 Z" id="path-1"></path>
    </defs>
    <g id="产品信息架构分析" stroke="none" stroke-width="1" fill="none" fill-rule="evenodd">
        <g id="PaaS客户信息-展开备份" transform="translate(-16.000000, -92.000000)">
            <g id="编组-3" transform="translate(0.000000, 80.000000)">
                <g id="编组-15" transform="translate(16.000000, 9.000000)">
                    <rect id="矩形" x="0" y="3" width="24" height="24"></rect>
                    <path d="M21.7639165,12.3249937 C21.9161008,12.4986714 22,12.7217261 22,12.952646 L22,19.047619 C22,19.5736045 21.5736045,20 21.047619,20 L2.6183317,20 C2.27683653,20 2,19.7231635 2,19.3816683 L2,19.185799 C2,18.9167964 2.11376058,18.6603394 2.31317377,18.4797936 L8.52613848,12.8546645 C8.8793865,12.5348388 9.41464403,12.5253186 9.77904204,12.83238 L14.2308999,16.5837556 C14.5908049,16.887031 15.11827,16.8819352 15.4722486,16.5717631 L20.4199668,12.2363485 C20.8155669,11.8897057 21.4172738,11.9293935 21.7639165,12.3249937 Z M21.3816683,7 C21.7231635,7 22,7.27683653 22,7.6183317 L22,7.81420101 C22,8.08320365 21.8862394,8.33966059 21.6868262,8.52020643 L15.4738615,14.1453355 C15.1206135,14.4651612 14.585356,14.4746814 14.220958,14.16762 L9.76910007,10.4162444 C9.40919505,10.112969 8.88173003,10.1180648 8.52775141,10.4282369 L3.58003323,14.7636515 C3.18443306,15.1102943 2.58272625,15.0706065 2.23608346,14.6750063 C2.08389922,14.5013286 2,14.2782739 2,14.047354 L2,7.95238095 C2,7.42639548 2.42639548,7 2.95238095,7 L21.3816683,7 Z" id="形状结合" fill="#FFFFFF"></path>
                    <g id="形状结合备份-2" transform="translate(6.000000, 16.500000)">
                        <mask id="mask-2" fill="white">
                            <use xlink:href="#path-1"></use>
                        </mask>
                        <use id="蒙版备份" fill-opacity="0.600355455" fill="#3FF8FE" xlink:href="#path-1"></use>
                    </g>
                </g>
            </g>
        </g>
    </g>
</svg>