<?xml version="1.0" encoding="UTF-8"?>
<svg width="24px" height="24px" viewBox="0 0 24 24" version="1.1" xmlns="http://www.w3.org/2000/svg" xmlns:xlink="http://www.w3.org/1999/xlink">
    <title>icon2</title>
    <g id="☆-最终方案-☆-" stroke="none" stroke-width="1" fill="none" fill-rule="evenodd">
        <g id="首页展开_XChaos" transform="translate(-16.000000, -145.000000)">
            <g id="编组-2" transform="translate(0.000000, -68.000000)">
                <g id="编组-21" transform="translate(0.000000, 201.000000)">
                    <g id="编组-16" transform="translate(16.000000, 12.000000)">
                        <rect id="矩形" x="0" y="0" width="24" height="24"></rect>
                        <path d="M18.0002435,13.1259548 L18,15.9999548 L18,16 L18,18 L22.8737865,18.0007613 C22.429479,19.7256022 20.8635652,21 19,21 C16.790861,21 15,19.209139 15,17 C15,15.1360729 16.2748927,13.5699129 18.0002435,13.1259548 Z M20,9 L20.0008069,11.0830939 C19.6753441,11.0284458 19.340994,11 19,11 C15.6862915,11 13,13.6862915 13,17 C13,17.7015272 13.1203964,18.3749342 13.3416539,19.0006859 L2,19 L2,9 L20,9 Z M20.0007613,13.1262135 C21.406088,13.4882163 22.5123973,14.5947743 22.8740452,16.0002435 L20,15.9999548 L20.0007613,13.1262135 Z M9,2 L9,4 L13,4 L13,2 L15,2 L15,4 L20,4 L20,7 L2,7 L2,4 L7,4 L7,2 L9,2 Z" id="形状结合" fill="#FFFFFF"></path>
                        <path d="M19,12 C21.7614237,12 24,14.2385763 24,17 C24,19.7614237 21.7614237,22 19,22 C16.2385763,22 14,19.7614237 14,17 C14,14.2385763 16.2385763,12 19,12 Z" id="矩形备份-80" fill-opacity="0.600355455" fill="#1EE6ED" transform="translate(19.000000, 17.000000) rotate(-270.000000) translate(-19.000000, -17.000000) "></path>
                    </g>
                </g>
            </g>
        </g>
    </g>
</svg>