<?xml version="1.0" encoding="UTF-8"?>
<svg width="40px" height="40px" viewBox="0 0 40 40" version="1.1" xmlns="http://www.w3.org/2000/svg" xmlns:xlink="http://www.w3.org/1999/xlink">
    <title>paas</title>
    <defs>
        <rect id="path-1" x="0" y="0" width="40" height="40"></rect>
    </defs>
    <g id="☆-最终方案-☆-" stroke="none" stroke-width="1" fill="none" fill-rule="evenodd">
        <g id="PaaS客户信息-展开" transform="translate(-10.000000, -12.000000)">
            <g id="编组" transform="translate(10.000000, 12.000000)">
                <mask id="mask-2" fill="white">
                    <use xlink:href="#path-1"></use>
                </mask>
                <g id="蒙版"></g>
                <g mask="url(#mask-2)" fill="#FFFFFF">
                    <g transform="translate(7.000000, 4.000000)">
                        <path d="M4.28485485,32 L0,32 L0,17.9417579 L12.7308766,17.9417579 L12.7308766,19.9812279 C10.5951836,19.9812279 8.86400165,21.6882022 8.86400165,23.7940828 L8.86400165,27.4842994 C8.86400165,29.9782395 6.81383509,32 4.28485485,32" id="Fill-1"></path>
                        <path d="M4.74377969,6.51665246 C4.7500651,6.52329352 4.75590155,6.53015595 4.76241144,6.53679702 C4.76241144,6.53679702 4.75477916,6.528385 4.74377969,6.51665246" id="Fill-3"></path>
                        <path d="M15.4288895,0 L9.57111045,0 C5.99830294,0 2.86839246,1.95756362 1.22453286,4.83779207 C0.89948729,5.69493176 1.58549507,6.26296391 2.35276423,6.07524323 C3.88707809,5.70024461 4.62696082,6.39357145 4.7436899,6.51665246 C4.00515404,5.74319014 3.52162631,4.73662656 3.52162631,4.73662656 C4.33895429,5.51739405 6.56533685,5.44810564 6.56533685,5.44810564 C7.87023319,5.3223682 9.11631603,6.08985356 9.11631603,6.08985356 C9.11631603,6.08985356 11.1817472,6.91400932 10.1864073,5.9395442 C10.1222064,5.87667548 10.8582729,5.91497227 11.5049969,6.52373626 C12.0253392,7.01340388 12.2091875,7.64364063 12.2091875,7.64364063 C12.4478086,6.99458753 11.6670707,5.54794293 11.6670707,5.54794293 C13.5630202,6.00374113 13.6723415,7.96174748 13.6723415,7.96174748 C14.6055006,8.27077822 16.1939139,11.0998705 16.1939139,11.0998705 C17.6678429,13.2473685 20.5301745,15.0358064 20.5301745,15.0358064 C20.4769729,16.2515634 18.3091794,16.6726067 18.3091794,16.6726067 C17.1481741,17.9572094 16.4327596,16.5296025 16.4327596,16.5296025 C15.8863777,15.2673581 14.1702359,15.0358064 14.1702359,15.0358064 C12.1797807,15.1210333 11.2614372,14.3415941 10.8403146,13.5417889 C10.8403146,13.5417889 6.45219945,13.6788161 2.91059451,14.8775278 C0,15.8626186 0,17.9417136 0,17.9417136 L0,19.9811837 L0,25.6291853 C0,25.6291853 0.483752211,24.3536587 2.1000009,22.5424198 C3.53329921,20.9361683 7.0454974,20.5071557 7.0454974,20.5071557 L12.7306522,19.9811837 L15.4288895,19.9811837 C20.6929217,19.9811837 25,15.733782 25,10.5426854 L25,9.43849823 C25,4.24740168 20.6929217,0 15.4288895,0" id="Fill-5备份-3"></path>
                    </g>
                </g>
            </g>
        </g>
    </g>
</svg>