<?xml version="1.0" encoding="UTF-8"?>
<svg width="40px" height="40px" viewBox="0 0 40 40" version="1.1" xmlns="http://www.w3.org/2000/svg" xmlns:xlink="http://www.w3.org/1999/xlink">
    <title>xchaos</title>
    <g id="☆-最终方案-☆-" stroke="none" stroke-width="1" fill="none" fill-rule="evenodd">
        <g id="首页展开_XChaos" transform="translate(-10.000000, -12.000000)" fill="#FFFFFF">
            <g id="编组-2" transform="translate(0.000000, -68.000000)">
                <g id="编组-2备份-28" transform="translate(0.000000, 68.000000)">
                    <g id="编组-9" transform="translate(10.000000, 12.000000)">
                        <path d="M25.2519671,22.0651094 L26.5411379,24.3423762 L26.5411379,24.3271765 L31.2857096,32.7142574 L23.5466311,32.7142574 L21.3858524,28.8946441 L25.2519671,22.0651094 Z M16.7390785,7 L20.056938,12.8649664 L20.056938,12.888002 L20.1363784,13.0283398 L24.0072456,19.8662768 L24.0151197,19.8802021 L20.1494244,26.7089343 L20.1428548,26.6973693 L16.7390785,32.7142857 L9,32.7142857 L16.2733388,19.8571193 L9,7 L16.7390785,7 Z M31.2857143,7 L25.2436783,17.6805859 L21.3728111,10.842696 L23.5466357,7 L31.2857143,7 Z" id="形状结合"></path>
                    </g>
                </g>
            </g>
        </g>
    </g>
</svg>