<?xml version="1.0" encoding="UTF-8"?>
<svg width="40px" height="40px" viewBox="0 0 40 40" version="1.1" xmlns="http://www.w3.org/2000/svg" xmlns:xlink="http://www.w3.org/1999/xlink">
    <title>xsea</title>
    <defs>
        <rect id="path-1" x="0" y="0" width="40" height="40"></rect>
    </defs>
    <g id="☆-最终方案-☆-" stroke="none" stroke-width="1" fill="none" fill-rule="evenodd">
        <g id="收起" transform="translate(-12.000000, -4.000000)">
            <g id="编组" transform="translate(12.000000, 4.000000)">
                <mask id="mask-2" fill="white">
                    <use xlink:href="#path-1"></use>
                </mask>
                <g id="蒙版"></g>
                <g mask="url(#mask-2)">
                    <g transform="translate(2.666667, 4.000000)">
                        <path d="M34.5983024,17.8688966 C33.1183558,25.9056457 25.9818262,32 17.4011555,32 C8.83288712,32 1.70458827,25.9232504 0.210461308,17.903733 C0.125378952,17.4470654 7.52055172,20.7338852 15.215167,20.6816291 C24.6309814,20.6176839 34.7001024,17.3160786 34.5983024,17.8688966 Z" id="Fill-1" fill="none"></path>
                        <path d="M24.3994139,5.84061728 C25.7924766,9.49589151 20.6533948,11.3883621 20.6533948,11.3883621 C20.2769118,11.5739009 20.3709698,12.0378096 20.3709698,12.0378096 C21.5569793,14.2642747 21.9334624,16.7320267 21.9334624,17.1959354 C21.9334624,17.6598441 22.046332,17.5113884 22.046332,17.5113884 C22.046332,17.5113884 24.4558488,15.2662581 27.524399,14.8945626 C31.8728914,14.4127304 34.5995719,17.544145 34.5995719,17.544145 L34.5995719,17.544145 L34.6666667,17.5573713 C34.4063139,19.1362431 33.9283736,20.6431738 33.2639474,22.0471373 L33.2639474,22.0471373 L33.0211522,21.9644422 C28.7290947,19.6266044 24.2676072,22.7978215 24.2676072,22.7978215 C24.2676072,22.7978215 18.9590956,27.6048946 12.8173549,24.3909084 C6.11113653,19.793451 2.15627533,22.035311 1.91564555,22.1799169 L1.90398601,22.187064 L1.63247174,22.1832321 C1.5691924,22.0525332 1.45798035,21.9599442 1.39796941,21.8274525 C0.619976709,20.1098068 0.168357581,18.2046132 0,16.2450029 L0,16.2450029 L0.00652135902,16.2273267 C0.00652135902,16.2273267 2.0356673,15.173427 3.86164782,15.1363439 C7.92771517,15.0537724 9.26434295,16.3424077 11.3539369,17.7896347 C13.2476314,19.1011842 15.4659771,19.1936861 15.8652731,19.1995029 L15.9284194,19.1997787 C17.3966031,17.0103966 17.8296464,14.4870201 17.8296464,14.4870201 C18.3191245,12.2418899 16.9260619,12.1862653 16.9260619,12.1862653 C11.5421784,11.6852736 10.5257243,8.77227799 10.5444105,8.51244956 C10.5633475,8.25274474 11.2598788,8.54953259 11.2598788,8.54953259 C12.4457629,9.18043854 12.935241,8.97635826 12.935241,8.97635826 C14.7424099,8.95781675 14.8176564,8.2155381 15.7776757,8.02999935 C17.2272985,7.77029453 17.9614531,8.66090529 17.9614531,8.66090529 C18.9590956,7.2693028 20.1262934,7.47338307 21.5569793,7.49192459 C22.9875397,7.51058971 24.0041193,6.32306749 24.1358005,6.08190419 C24.2676072,5.84061728 24.3994139,5.84061728 24.3994139,5.84061728 Z M24.0550235,2.50088254 C24.1095772,2.98493969 23.9044052,3.3914933 22.9818837,3.87394352 C22.6874193,4.15243707 22.3983475,4.69026461 22.3983475,4.69026461 C22.3983475,4.69026461 21.9278063,2.4636759 23.4714873,2.12980502 C23.4714873,2.12980502 23.9985886,1.99989081 24.0550235,2.50088254 Z M18.8405574,0.0887427109 C18.8405574,0.0887427109 19.4994654,-0.300876321 20.1959967,0.552651412 C21.156016,1.83288121 20.5535428,3.55847819 20.5535428,3.55847819 L20.5535428,3.55847819 L20.5490229,3.5265467 C20.5256134,3.38218508 20.3959485,2.7814033 19.8195137,2.408039 C19.1606056,1.98133693 18.8405574,1.55451126 18.8405574,1.55451126 C18.1628377,0.552651412 18.8405574,0.0887427109 18.8405574,0.0887427109 Z" id="形状结合" fill="#FFFFFF" fill-rule="evenodd"></path>
                    </g>
                </g>
            </g>
        </g>
    </g>
</svg>