<?xml version="1.0" encoding="UTF-8"?>
<svg width="40px" height="40px" viewBox="0 0 40 40" version="1.1" xmlns="http://www.w3.org/2000/svg" xmlns:xlink="http://www.w3.org/1999/xlink">
    <title>xchaos</title>
    <defs>
        <rect id="path-1" x="0" y="0" width="40" height="40"></rect>
    </defs>
    <g id="☆-最终方案-☆-" stroke="none" stroke-width="1" fill="none" fill-rule="evenodd">
        <g id="xsky方案2-总览展开备份" transform="translate(-10.000000, -12.000000)">
            <g id="编组" transform="translate(10.000000, 12.000000)">
                <mask id="mask-2" fill="white">
                    <use xlink:href="#path-1"></use>
                </mask>
                <g id="蒙版"></g>
                <path d="M30.0732227,12 L29.9905889,12.0882364 L27.5986851,14.6472746 L24.0598931,14.6472746 L23.0078617,15.7736184 L21.2591241,17.6452934 L21.2580912,17.6452934 L19.9275151,19.0691827 L26.8582519,19.1388913 L28.2552794,17.6443762 L30.0038448,15.7728846 L31.7536152,13.9015764 L33.5023528,12.0299013 L33.5304138,12 L36.9726276,12 L37,12.0289841 L35.2510903,13.9015764 L33.5023528,15.7728846 L31.7527545,17.6443762 L30.0038448,19.5160513 L31.7527545,21.3880933 L31.7536152,21.3880933 L33.5023528,23.2597684 L35.2510903,25.1319938 L36.9969012,27 L33.4982211,27 L28.6426253,21.8034096 L18.0615409,21.7349851 L17.5065172,21.1420954 L16.0208306,19.5520063 L16,19.5298096 L17.7606161,17.6452934 L19.5091815,15.7736184 L19.5091815,15.7728846 L21.2580912,13.9015764 L22.9641346,12.0768629 L23.0357506,12 L30.0732227,12 Z M5.63651346,12 L5.66678752,12.0299013 L7.49972808,13.9015764 L11.1659718,17.6443762 L13,19.5166016 L11.1659718,21.3880933 L9.33284992,23.2606856 L7.49972808,25.1319938 L5.66950675,27 L2.00326307,27 L3.83275927,25.1319938 L5.66678752,23.2597684 L7.49918423,21.3880933 L9.33284992,19.5166016 L5.66606239,15.7728846 L2,12.0299013 L2.02918637,12 L5.63651346,12 Z M13.7556381,23 L15.488896,24.322337 L15.4899289,24.322337 L17.245567,25.6624271 L17.2465999,25.6624271 L19,27 L15.485625,27 L13.7325693,25.6624271 L12,24.3400901 L12.0227245,24.322337 L13.7556381,23 Z M29.1195289,23 L32,27 L23.8792584,27 L21.8725699,24.2118615 L21,23 L29.1195289,23 Z M18.9717666,12 L19,12.0266052 L15.4882074,15.3569644 L13.7563267,17 L12,15.3342526 L13.7317085,13.6915415 L15.4873466,12.0259563 L15.5147193,12 L18.9717666,12 Z" id="形状结合" fill="#FFFFFF" mask="url(#mask-2)"></path>
            </g>
        </g>
    </g>
</svg>