<?xml version="1.0" encoding="UTF-8"?>
<svg width="40px" height="40px" viewBox="0 0 40 40" version="1.1" xmlns="http://www.w3.org/2000/svg" xmlns:xlink="http://www.w3.org/1999/xlink">
    <title>xwind</title>
    <g id="☆-最终方案-☆-" stroke="none" stroke-width="1" fill="none" fill-rule="evenodd">
        <g id="导航展开" transform="translate(-10.000000, -12.000000)" fill="#FFFFFF">
            <g id="编组-3" transform="translate(10.000000, 12.000000)">
                <path d="M26.701559,20.0070139 L26.7884731,20.0161412 C26.8749313,20.0344005 26.9605397,20.0800696 27.0499615,20.153274 L27.0499615,20.153274 L28.308315,21.1894812 L28.308315,21.1894812 L29.5699846,22.2218942 L30.8220193,23.2222245 L30.8220193,23.2222245 L32.075712,24.2208809 L32.6636965,24.7077945 L32.6636965,24.7077945 L33.2509072,25.1960472 L33.3232231,25.2632969 C33.4745793,25.4258828 33.505835,25.6265882 33.4498681,25.8324199 L33.4498681,25.8324199 L33.4182973,25.9198573 C33.3427811,26.0838346 33.1936823,26.1834568 32.9829733,26.2372761 L32.9829733,26.2372761 L32.4671108,26.3841643 C32.125182,26.4898379 31.7861134,26.6068195 31.4433113,26.7099802 L31.4433113,26.7099802 L30.9333268,26.8510699 L30.9333268,26.8510699 L30.4230107,26.99149 L29.792526,27.1878735 L29.792526,27.1878735 L29.1620412,27.3854845 L28.663239,27.5273739 L28.663239,27.5273739 L28.1639948,27.6675894 L27.6590764,27.8201916 L27.6590764,27.8201916 L27.1546002,27.9746909 L26.6788075,28.1158177 L26.6788075,28.1158177 L26.2031253,28.2569445 L25.6799504,28.4162981 L25.6799504,28.4162981 L25.156444,28.5747589 L24.6783301,28.7130215 L24.6783301,28.7130215 L24.2001056,28.8506146 L23.1472344,29.164114 L22.6703363,29.3039761 L22.6703363,29.3039761 L22.193991,29.444731 L21.6714793,29.6049959 L21.6714793,29.6049959 L21.1486361,29.7644796 L20.1922977,30.0385498 L19.6780576,30.1937373 L19.6780576,30.1937373 L19.1635965,30.3489247 L18.6649602,30.4915952 L18.6649602,30.4915952 L18.1664343,30.6346005 L17.6619397,30.7879281 L17.6619397,30.7879281 L17.1577767,30.9421484 L16.6709674,31.0841493 L16.6709674,31.0841493 L16.1840476,31.2260387 L15.1566729,31.5383478 L14.6582392,31.6802 L14.6582392,31.6802 L14.1598055,31.8219406 L13.6552371,31.974487 L13.6552371,31.974487 L13.1510004,32.1281494 L12.6645227,32.2713407 L12.6645227,32.2713407 L12.1777135,32.4135276 L12.0076061,32.4715004 L12.0076061,32.4715004 L11.9212751,32.4926836 L11.8338723,32.4999984 C11.5506124,32.5006949 11.3519926,32.2680791 11.3523945,31.9086849 L11.3523945,31.9086849 L11.3485356,31.8196849 C11.3589123,31.6507963 11.4728027,31.5343943 11.5992533,31.4312194 L11.5992533,31.4312194 L11.7264409,31.3309353 L12.2216541,30.9481936 L12.2216541,30.9481936 L13.2232158,30.1965643 L14.1072466,29.5222689 L14.1072466,29.5222689 L14.9902827,28.8467461 L16.0527519,28.0372755 L16.0527519,28.0372755 L17.1140053,27.2265773 L17.7336209,26.745076 L17.7336209,26.745076 L18.3530154,26.263463 L19.2209451,25.6019635 L19.2209451,25.6019635 L20.0894276,24.9414684 L21.3352171,23.9856448 L23.0850407,22.6490688 L23.699977,22.1778339 L23.699977,22.1778339 L24.3149134,21.7064874 L25.1974888,21.0317457 L25.1974888,21.0317457 L26.0796222,20.3566692 L26.1791408,20.2751546 C26.2444895,20.2194853 26.3091395,20.1630445 26.3808636,20.1171181 C26.4956714,20.0437649 26.6001627,20.0070139 26.701559,20.0070139 L26.701559,20.0070139 Z M11.8676294,8 L11.9529822,8.00736973 C12.038791,8.02219753 12.124952,8.05966458 12.2023257,8.12215617 L12.2023257,8.12215617 L13.2241185,8.94983488 L13.2241185,8.94983488 L14.2451375,9.77862951 L15.6228307,10.8968569 L15.6228307,10.8968569 L17.0014082,12.0137452 L19.291521,13.8551638 L22.0337907,16.0752518 L23.1770785,16.9973746 L23.1770785,16.9973746 L24.3208085,17.9186047 L24.4249129,18.0029311 L24.4249129,18.0029311 L24.5315596,18.0834634 L24.5976718,18.1399744 C24.8206229,18.3690979 24.827434,18.8250054 24.5495398,19.0358649 L24.5495398,19.0358649 L24.1774748,19.3305067 C23.9324992,19.5309537 23.6918467,19.7371098 23.444644,19.9349998 L23.444644,19.9349998 L22.8123723,20.435416 L22.8123723,20.435416 L22.1773372,20.9324845 L20.2956099,22.4046077 L17.8125788,24.3574697 L16.5797033,25.3299206 L16.5797033,25.3299206 L15.3469384,26.3025946 L12.8636125,28.2572421 L11.6304423,29.2296 L11.6304423,29.2296 L10.3973826,30.2020695 L9.15553542,31.1798954 L9.15553542,31.1798954 L7.9134672,32.1576097 L7.77891073,32.2706897 L7.74383467,32.2960397 L7.74383467,32.2960397 L7.70699007,32.3181535 L7.62893452,32.3533981 C7.29330792,32.4772459 6.9982363,32.228476 7.00000794,31.7164489 L7.00000794,31.7164489 L7.05271201,31.4821042 C7.08277185,31.3485222 7.11706386,31.1947037 7.14960501,31.0403494 L7.14960501,31.0403494 L7.20172169,30.7743324 L7.20172169,30.7743324 L7.24908542,30.5075343 L7.38338398,29.7165508 L7.38338398,29.7165508 L7.52011428,28.9259021 L7.64566224,28.2512161 L7.64566224,28.2512161 L7.77463675,27.5769766 L8.03372796,26.206923 L8.15844692,25.5429685 L8.15844692,25.5429685 L8.28736617,24.879572 L8.4479165,24.1179 L8.4479165,24.1179 L8.60614563,23.3556701 L8.7017942,22.8012247 L8.7017942,22.8012247 L8.79567423,22.2459981 L8.90948719,21.6867356 L8.90948719,21.6867356 L9.02750044,21.1281427 L9.07956186,20.8620885 L9.07956186,20.8620885 L9.12742299,20.5954763 L9.26188735,19.8043068 L9.26188735,19.8043068 L9.39845185,19.0136953 L9.52403666,18.3392326 L9.52403666,18.3392326 L9.65326908,17.6652162 L9.77990396,16.9907721 L9.77990396,16.9907721 L9.91029699,16.3168859 L10.0728738,15.5443895 L10.0728738,15.5443895 L10.2324661,14.7715583 L10.3268252,14.2061024 L10.3268252,14.2061024 L10.4209631,13.6403118 L10.7409216,12.0942403 L10.8368281,11.528989 L10.8368281,11.528989 L10.9316292,10.9632914 L11.0452948,10.4152625 L11.0452948,10.4152625 L11.1640449,9.8679032 L11.2148905,9.60158862 L11.2148905,9.60158862 L11.262199,9.3344929 L11.3498523,8.8320308 L11.3498523,8.8320308 L11.4448008,8.33090782 C11.4891617,8.12037069 11.6692581,8 11.8676294,8 L11.8676294,8 Z M33.1114873,13.8322503 L33.1852169,13.8399101 C33.334937,13.8700003 33.4918498,13.9854184 33.5412427,14.1268534 L33.5412427,14.1268534 L33.5818099,14.2730419 C33.6037966,14.3722569 33.6176829,14.4742273 33.6355648,14.5744122 L33.6355648,14.5744122 L33.7550519,15.2510138 L33.7550519,15.2510138 L33.8725493,15.9279502 L33.9233764,16.226831 L33.9233764,16.226831 L33.9692295,16.5263815 L34.0168143,16.9215106 L34.0168143,16.9215106 L34.0695942,17.3158585 L34.1838124,17.9506316 L34.1838124,17.9506316 L34.3020099,18.5847352 L34.3510869,18.8731636 L34.3510869,18.8731636 L34.3948583,19.1624848 L34.485496,19.825063 L34.485496,19.825063 L34.5818815,20.4864136 L34.6968182,21.1318438 L34.6968182,21.1318438 L34.8178343,21.7762697 L34.8633189,22.0437932 L34.8633189,22.0437932 L34.9040506,22.3122094 L34.9379968,22.5598723 C34.9598415,22.7237942 34.9802453,22.884057 34.999994,23.0329457 L34.999994,23.0329457 L35,23.1333585 C34.9888876,23.3573905 34.8977318,23.5109505 34.6812145,23.6230448 L34.6812145,23.6230448 L34.6004713,23.655809 C34.4209765,23.7074968 34.3011441,23.5945888 34.1846967,23.500591 L34.1846967,23.500591 L33.3054557,22.7743868 L33.3054557,22.7743868 L32.4298622,22.043942 L31.0494057,20.9091432 L31.0494057,20.9091432 L29.6678438,19.7762414 L29.3591134,19.5196677 C29.1538535,19.3479757 28.9486373,19.1763718 28.7370019,19.0131002 L28.7370019,19.0131002 L28.655149,18.9429031 C28.3526094,18.6534011 28.3493968,18.2642312 28.6765768,17.951636 L28.6765768,17.951636 L30.6749541,16.032419 L30.6749541,16.032419 L32.6706785,14.110189 L32.7725716,14.0152228 C32.8425053,13.9533153 32.9168496,13.8962793 32.9980059,13.8565029 C33.0320503,13.8399873 33.0706635,13.8322503 33.1114873,13.8322503 L33.1114873,13.8322503 Z M16.9008961,8.23449223 L17.1919684,8.30383915 C17.3826106,8.348994 17.5672921,8.39280424 17.751122,8.4401193 L17.751122,8.4401193 L18.1702293,8.55338529 L18.1702293,8.55338529 L18.5886734,8.66999905 L18.9979064,8.7839718 L18.9979064,8.7839718 L19.4078025,8.8957127 L19.8008238,8.99497389 L19.8008238,8.99497389 L20.1940662,9.09434667 L21.0335335,9.32437521 L21.4168647,9.42121857 L21.4168647,9.42121857 L21.8001959,9.51795033 L22.3899858,9.67775024 L22.3899858,9.67775024 L22.9801073,9.83665741 L23.375284,9.93296141 L23.375284,9.93296141 L23.7707924,10.0290422 L24.179749,10.1407087 L24.179749,10.1407087 L24.588595,10.2537143 L24.9717236,10.3522316 L24.9717236,10.3522316 L25.3549627,10.4499677 L25.9357809,10.6050435 L25.9357809,10.6050435 L26.5165991,10.7594498 L26.9200659,10.8603105 L26.9200659,10.8603105 L27.3236432,10.9610596 L27.7237018,11.0696015 L27.7237018,11.0696015 L28.1237605,11.1785898 L28.5266745,11.2811243 L28.5266745,11.2811243 L28.9294781,11.3837705 L29.7490493,11.6085914 L30.1522766,11.7098054 L30.1522766,11.7098054 L30.555946,11.8081181 L30.7447723,11.8504859 C30.9345242,11.8904917 31.1254161,11.9274845 31.3027123,11.9981223 L31.3027123,11.9981223 L31.3858294,12.0383077 C31.7248514,12.2341434 31.7863661,12.7006956 31.4716079,12.9945655 L31.4716079,12.9945655 L30.9060065,13.5072568 L30.9060065,13.5072568 L30.3348784,14.0139222 L29.0650478,15.151362 L29.0650478,15.151362 L27.7942224,16.2875744 L27.3938137,16.6359649 L27.3938137,16.6359649 L26.9930735,16.9839091 L26.9116219,17.0500715 C26.6992919,17.204935 26.5219866,17.1871391 26.2844782,16.9941756 L26.2844782,16.9941756 L25.2605484,16.1699191 L25.2605484,16.1699191 L24.2338553,15.3490103 L23.0318187,14.3858215 L23.0318187,14.3858215 L21.8292295,13.4230792 L20.4991211,12.3607222 L20.4991211,12.3607222 L19.16846,11.2988117 L17.9260049,10.3058837 L17.9260049,10.3058837 L16.6810076,9.31619179 L16.607725,9.24851696 C16.3403228,8.95991141 16.381376,8.47057536 16.7207997,8.28969313 C16.7791616,8.25844734 16.8499032,8.24951997 16.9008961,8.23449223 L16.9008961,8.23449223 Z" id="形状结合"></path>
            </g>
        </g>
    </g>
</svg>